<svg width="22" height="22" viewBox="0 0 22 22" fill="none" xmlns="http://www.w3.org/2000/svg">
<path d="M20.7468 1.25261C19.9419 0.447536 18.9722 0.0449219 17.8384 0.0449219H4.1165C2.98265 0.0449219 2.01292 0.447536 1.20769 1.25261C0.402614 2.05784 0 3.02753 0 4.16142V17.8831C0 19.0169 0.402614 19.9867 1.20769 20.7919C2.01292 21.5972 2.98265 21.9998 4.1165 21.9998H17.8382C18.9721 21.9998 19.9418 21.5972 20.7467 20.7919C21.5519 19.9867 21.9545 19.017 21.9545 17.8831V4.16142C21.9545 3.02753 21.5518 2.05769 20.7468 1.25261ZM16.7948 8.49245C16.8044 8.57821 16.8092 8.70662 16.8092 8.87844C16.8092 9.67891 16.6924 10.4817 16.459 11.2867C16.2257 12.0921 15.8683 12.8639 15.3869 13.6024C14.906 14.3408 14.3318 14.9937 13.6649 15.5606C12.9978 16.1273 12.1975 16.5802 11.2634 16.9182C10.3298 17.2567 9.3291 17.426 8.26194 17.426C6.60402 17.426 5.06987 16.9778 3.65952 16.0825C3.88821 16.1109 4.12656 16.1253 4.37418 16.1253C5.75594 16.1253 6.99948 15.6965 8.10489 14.8386C7.45701 14.8294 6.87802 14.6294 6.36827 14.2383C5.85837 13.8477 5.50352 13.3522 5.30337 12.7519C5.55103 12.7899 5.73682 12.8088 5.86068 12.8088C6.07029 12.8088 6.31335 12.7708 6.58961 12.6947C5.89402 12.5611 5.30807 12.216 4.83161 11.6585C4.35506 11.101 4.11685 10.465 4.11685 9.7504V9.72182C4.62175 9.95987 5.0982 10.0837 5.54613 10.0934C4.67897 9.512 4.24542 8.67834 4.24542 7.59205C4.24542 7.05837 4.38349 6.55338 4.65984 6.07692C5.41256 7.0013 6.32752 7.73969 7.40415 8.29234C8.48087 8.84495 9.63399 9.15479 10.8632 9.22143C10.8156 9.0404 10.7917 8.81161 10.7917 8.53535C10.7917 7.7062 11.0847 6.99879 11.6708 6.4127C12.2567 5.82665 12.9643 5.53352 13.7932 5.53352C14.6701 5.53352 15.3992 5.84808 15.9804 6.47703C16.638 6.35317 17.2767 6.11006 17.8959 5.7481C17.6577 6.48163 17.2144 7.03915 16.5667 7.42033C17.1859 7.33442 17.7622 7.17251 18.2957 6.93431C17.8956 7.54414 17.3951 8.06345 16.7948 8.49245Z" fill="#F3EEDF"/>
</svg>
