<svg width="398" height="440" viewBox="0 0 398 440" fill="none" xmlns="http://www.w3.org/2000/svg">
<path d="M0 0V439.839H397.14V0H0ZM336.671 7.771L313.683 51.1021L290.694 7.771H336.671ZM273.846 7.771L250.786 51.1643L227.798 7.83316L273.846 7.771ZM211.192 7.771L188.204 51.1021L165.216 7.771H211.192ZM148.296 7.771L125.307 51.1021L102.319 7.771H148.296ZM85.642 7.771L62.5966 51.1643L39.5941 7.83316L85.642 7.771ZM7.28199 7.771H23.2881L7.2106 38.1401V22.9089L11.5655 14.7027H7.2106L7.28199 7.771ZM70.8352 61.6862L93.8378 18.3085L116.855 61.7484L70.8352 61.6862ZM390.015 69.4572V123.403H7.35338V69.5194L390.015 69.4572ZM133.732 61.6862L156.734 18.3085L179.68 61.7484L133.732 61.6862ZM196.385 61.6862L219.388 18.3085L242.405 61.6862H196.385ZM259.21 61.6862L282.213 18.3085L305.23 61.6862H259.21ZM321.864 61.6862L344.867 18.3085L367.884 61.6862H321.864ZM389.944 246.838H7.28199V193.016H389.944V246.838ZM336.028 254.609L313.683 296.712L291.351 254.609H336.028ZM273.132 254.609L250.786 296.774L228.455 254.671L273.132 254.609ZM210.478 254.609L188.132 296.712L165.801 254.609H210.478ZM147.653 254.609L125.307 296.712L102.976 254.609H147.653ZM84.9994 254.609L62.5966 296.774L40.2509 254.671L84.9994 254.609ZM7.2106 185.245V167.434L20.8037 141.821L43.7919 185.152L7.2106 185.245ZM60.4548 185.245L83.4431 141.914L106.431 185.245H60.4548ZM123.351 185.245L146.34 141.914L169.328 185.245H123.351ZM186.005 185.245L208.993 141.914L231.982 185.245H186.005ZM248.83 185.245L271.818 141.914L294.807 185.245H248.83ZM311.484 185.245L334.472 141.914L357.46 185.245H311.484ZM372.453 185.245H358.817L334.543 139.427L310.27 185.245H296.263L271.99 139.427L247.716 185.245H233.438L209.165 139.427L184.891 185.245H170.684L146.411 139.427L122.138 185.245H107.859L83.5859 139.427L59.3126 185.245H45.1341L20.8608 139.427L7.2106 165.04V143.795L13.8643 131.237H27.9571L52.2305 177.101L76.5038 131.237H90.5252L114.799 177.101L139.072 131.237H153.35L177.624 177.101L201.897 131.237H215.904L240.177 177.101L264.451 131.237H278.729L303.002 177.101L327.276 131.237H341.283L365.556 177.101L389.472 132.029V152.374L372.081 185.152L372.453 185.245ZM12.6221 131.237L7.26771 141.308V131.237H12.6221ZM75.3472 131.237L52.3304 174.614L29.2708 131.237H75.3472ZM138.001 131.237L114.984 174.614L91.9816 131.237H138.001ZM200.826 131.237L177.823 174.614L154.821 131.237H200.826ZM263.48 131.237L240.463 174.614L217.46 131.237H263.48ZM326.376 131.237L303.359 174.614L280.357 131.237H326.376ZM389.016 131.237L366.013 174.614L343.011 131.237H389.016ZM8.12441 61.7484L31.1841 18.3706L54.2009 61.7484H8.12441ZM7.2106 254.671H22.617L7.2106 283.75V268.519L11.5655 260.313H7.2106V254.671ZM8.0673 307.514L31.127 263.996L54.1866 307.514H8.0673ZM389.944 316.466V370.35H7.28199V316.404L389.944 316.466ZM372.538 432.099H358.86L334.586 386.281L310.313 432.099H296.263L271.99 386.281L247.716 432.099H233.438L209.165 386.281L184.891 432.099H170.841L146.568 386.281L122.295 432.099H108.016L83.7429 386.281L59.4696 432.099H45.1055L20.8322 386.281L7.23916 411.925V390.679L13.8929 378.121H27.9857L52.259 423.97L76.5323 378.121H90.5537L114.827 423.97L139.1 378.121H153.379L177.652 423.97L201.925 378.121H215.933L240.206 423.97L264.479 378.121H278.758L303.031 423.97L327.304 378.121H341.311L365.585 423.97L389.501 378.898V399.243L372.11 432.021L372.538 432.099ZM311.569 432.099L334.558 388.768L357.546 432.099H311.569ZM248.916 432.099L271.904 388.768L294.892 432.099H248.916ZM186.019 432.099L209.008 388.768L231.996 432.099H186.019ZM123.366 432.099L146.354 388.768L169.342 432.099H123.366ZM60.5405 432.099L83.5288 388.768L106.517 432.099H60.5405ZM7.28199 414.381L20.875 388.752L43.8633 432.083H7.2106L7.28199 414.381ZM12.6221 378.121L7.26771 388.192V378.121H12.6221ZM75.3472 378.121L52.2733 421.483L29.2708 378.121H75.3472ZM138.001 378.121L114.927 421.483L91.9245 378.121H138.001ZM200.826 378.121L177.823 421.483L154.821 378.121H200.826ZM263.48 378.121L240.477 421.483L217.475 378.121H263.48ZM326.376 378.121L303.374 421.483L280.371 378.121H326.376ZM389.016 378.121L366.013 421.483L343.011 378.121H389.016ZM389.929 432.036H373.866L389.944 401.73V416.961L385.589 425.167H389.958L389.929 432.036ZM389.929 307.452H384.518L389.929 297.256V307.452ZM389.929 294.77L382.59 308.633H369.868L344.867 261.494L319.879 308.633H307.215L282.213 261.494L257.226 308.633H244.375L219.374 261.494L194.386 308.633H181.679L156.663 261.494L131.676 308.633H118.825L93.8092 261.494L68.822 308.633H56.1713L31.1841 261.494L7.26771 306.566V286.268L24.0163 254.718H38.9373L62.5966 299.261L86.2559 254.671H101.605L125.25 299.261L148.91 254.671H164.502L188.147 299.261L211.806 254.671H227.155L250.8 299.261L274.46 254.671H290.052L313.697 299.261L337.356 254.671H352.706L376.351 299.261L389.958 273.601L389.929 294.77ZM321.793 307.452L344.852 263.934L367.912 307.452H321.793ZM259.139 307.452L282.199 263.934L305.258 307.452H259.139ZM196.314 307.452L219.374 263.934L242.433 307.452H196.314ZM133.66 307.452L156.72 263.934L179.78 307.452H133.66ZM70.8352 307.452L93.8949 263.934L116.955 307.452H70.8352ZM376.465 296.774L354.133 254.671H390.072V271.13L376.465 296.774ZM390.072 185.183H373.866L389.944 154.876V170.107L385.589 178.313H389.958L390.072 185.183ZM390.072 61.7484H384.718L390.072 51.6461V61.7484ZM390.072 49.1593L383.404 61.7484H369.326L344.867 15.8373L320.593 61.7017H306.586L282.213 15.8373L257.94 61.7017H243.661L219.317 15.8373L195.043 61.7017H181.05L156.663 15.8373L132.39 61.7017H118.111L93.7664 15.8373L69.4931 61.7017H55.4574L31.1841 15.8373L7.2106 60.9091V40.6112L24.6017 7.83316H38.3233L62.5966 53.651L86.8699 7.83316H100.92L125.193 53.651L149.467 7.83316H163.745L188.018 53.651L212.292 7.83316H226.342L250.615 53.651L274.888 7.83316H289.167L313.44 53.651L337.713 7.83316H351.763L376.036 53.651L389.644 27.9911L390.072 49.1593ZM376.465 51.1643L353.477 7.83316H390.072V25.52L376.465 51.1643Z" fill="#D5D0C2"/>
<path d="M25.4711 44.2011L19.7598 54.8318H42.3911L36.7511 44.2011L31.1825 33.5859L25.4711 44.2011ZM36.337 51.0396H25.8852L28.4982 46.0973L31.1825 41.1704L33.7955 46.0973L36.337 51.0396Z" fill="#D5D0C2"/>
<path d="M68.223 25.3329L73.8487 14.7021H51.3174L56.886 25.3329L62.5973 36.0413L68.223 25.3329ZM57.3572 18.5099H67.809L65.196 23.4367L62.5973 28.3636L59.9844 23.4367L57.3572 18.5099Z" fill="#D5D0C2"/>
<path d="M88.1411 44.2011L82.4297 54.8318H104.975L99.3353 44.2011L93.6954 33.5859L88.1411 44.2011ZM99.0069 51.0396H88.5409L91.1538 46.0973L93.7668 41.1704L96.394 46.0973L99.0069 51.0396Z" fill="#D5D0C2"/>
<path d="M130.875 25.3329L136.501 14.7021H113.998L119.624 25.3329L125.335 35.9636L130.875 25.3329ZM120.009 18.5099H130.461L127.848 23.4367L125.235 28.3636L122.565 23.4367L120.009 18.5099Z" fill="#D5D0C2"/>
<path d="M151.036 44.2011L145.41 54.8318H167.956L162.316 44.2011L156.604 33.5859L151.036 44.2011ZM161.902 51.0396H151.436L154.049 46.0973L156.662 41.1704L159.289 46.0973L161.902 51.0396Z" fill="#D5D0C2"/>
<path d="M193.772 25.3329L199.397 14.7021H176.823L182.535 25.3329L188.132 36.0413L193.772 25.3329ZM182.906 18.5099H193.358L190.745 23.4367L188.132 28.3636L185.519 23.4367L182.906 18.5099Z" fill="#D5D0C2"/>
<path d="M213.693 44.2011L208.053 54.8318H230.598L224.958 44.2011L219.247 33.5859L213.693 44.2011ZM224.559 51.0396H214.093L216.705 46.0973L219.318 41.1704L221.931 46.0973L224.559 51.0396Z" fill="#D5D0C2"/>
<path d="M256.428 25.3329L262.054 14.7021H239.522L245.148 25.3329L250.86 35.9636L256.428 25.3329ZM245.562 18.5099H256.014L253.401 23.4367L250.788 28.3636L248.218 23.4367L245.562 18.5099Z" fill="#D5D0C2"/>
<path d="M276.59 44.2011L270.879 54.8318H293.425L287.785 44.2011L282.145 33.5859L276.59 44.2011ZM287.456 51.0396H276.99L279.632 46.0973L282.245 41.1704L284.857 46.0973L287.456 51.0396Z" fill="#D5D0C2"/>
<path d="M319.323 25.3329L324.949 14.7021H302.475L308.1 25.3329L313.812 35.9636L319.323 25.3329ZM308.457 18.5099H318.909L316.296 23.4367L313.683 28.3636L311.042 23.4367L308.457 18.5099Z" fill="#D5D0C2"/>
<path d="M339.241 44.2011L333.601 54.8318H356.146L350.506 44.2011L344.866 33.5859L339.241 44.2011ZM350.106 51.0396H339.598L342.21 46.0973L344.823 41.1704L347.436 46.0973L350.106 51.0396Z" fill="#D5D0C2"/>
<path d="M370.701 25.3329L376.412 35.9636L382.038 25.3329L387.678 14.7021H365.061L370.701 25.3329ZM381.566 18.5099L378.953 23.4367L376.341 28.3636L373.728 23.4367L371.1 18.5099H381.566Z" fill="#D5D0C2"/>
<path d="M371.652 148.784L377.292 138.153H354.746L360.386 148.784L366.012 159.399L371.652 148.784ZM360.786 141.946H371.252L368.639 146.888L366.012 151.815L363.399 146.888L360.786 141.946Z" fill="#D5D0C2"/>
<path d="M334.558 157.021L328.846 167.651L323.221 178.282H345.752L340.126 167.651L334.558 157.021ZM329.332 174.474L331.945 169.547L334.558 164.621L337.171 169.547L339.784 174.474H329.332Z" fill="#D5D0C2"/>
<path d="M309 148.784L314.64 138.153H292.095L297.735 148.784L303.375 159.399L309 148.784ZM298.134 141.946H308.601L305.988 146.888L303.375 151.815L300.747 146.888L298.134 141.946Z" fill="#D5D0C2"/>
<path d="M271.902 157.021L266.19 167.651L260.564 178.282H283.096L277.47 167.651L271.902 157.021ZM266.676 174.474L269.289 169.547L271.902 164.621L274.514 169.547L277.127 174.474H266.676Z" fill="#D5D0C2"/>
<path d="M246.104 148.784L251.744 138.153H229.198L234.838 148.784L240.55 159.399L246.104 148.784ZM235.238 141.946H245.704L243.091 146.888L240.478 151.815L237.851 146.888L235.238 141.946Z" fill="#D5D0C2"/>
<path d="M209.004 157.021L203.364 167.651L197.738 178.282H220.27L214.644 167.651L209.004 157.021ZM203.778 174.474L206.391 169.547L209.004 164.621L211.617 169.547L214.23 174.474H203.778Z" fill="#D5D0C2"/>
<path d="M183.453 148.784L189.164 138.153H166.547L172.187 148.784L177.827 159.399L183.453 148.784ZM172.587 141.946H183.053L180.44 146.888L177.827 151.815L175.214 146.888L172.587 141.946Z" fill="#D5D0C2"/>
<path d="M146.353 157.021L140.713 167.651L135.087 178.282H157.618L151.993 167.651L146.353 157.021ZM141.127 174.474L143.74 169.547L146.353 164.621L148.966 169.547L151.578 174.474H141.127Z" fill="#D5D0C2"/>
<path d="M120.551 148.784L126.191 138.153H103.646L109.285 148.784L114.997 159.399L120.551 148.784ZM109.685 141.946H120.151L117.538 146.888L114.925 151.815L112.313 146.888L109.685 141.946Z" fill="#D5D0C2"/>
<path d="M83.4621 157.021L77.7507 167.651L72.125 178.282H94.7277L89.102 167.651L83.4621 157.021ZM78.3076 174.474L80.9205 169.547L83.5335 164.621L86.1464 169.547L88.7594 174.474H78.3076Z" fill="#D5D0C2"/>
<path d="M57.8998 148.784L63.6112 138.153H40.9941L46.6341 148.784L52.3455 159.399L57.8998 148.784ZM47.0339 141.946H57.5L54.887 146.888L52.2741 151.815L49.6611 146.888L47.0339 141.946Z" fill="#D5D0C2"/>
<path d="M20.8009 157.021L15.1752 167.651L9.46387 178.282H32.0809L26.4409 167.651L20.8009 157.021ZM15.575 174.474L18.188 169.547L20.8009 164.621L23.4139 169.547L26.0411 174.474H15.575Z" fill="#D5D0C2"/>
<path d="M371.652 395.653L377.292 385.022H354.746L360.386 395.653L366.012 406.268L371.652 395.653ZM360.786 388.815H371.252L368.639 393.757L366.012 398.684L363.399 393.757L360.786 388.815Z" fill="#D5D0C2"/>
<path d="M334.558 403.89L328.846 414.52L323.221 425.151H345.752L340.126 414.52L334.558 403.89ZM329.332 421.343L331.945 416.416L334.558 411.49L337.171 416.416L339.784 421.343H329.332Z" fill="#D5D0C2"/>
<path d="M309 395.653L314.64 385.022H292.095L297.735 395.653L303.375 406.268L309 395.653ZM298.192 388.846H308.658L306.045 393.788L303.432 398.715L300.805 393.788L298.192 388.846Z" fill="#D5D0C2"/>
<path d="M271.902 403.89L266.19 414.52L260.564 425.151H283.096L277.47 414.52L271.902 403.89ZM266.676 421.343L269.289 416.416L271.902 411.49L274.514 416.416L277.127 421.343H266.676Z" fill="#D5D0C2"/>
<path d="M246.104 395.653L251.744 385.022H229.198L234.838 395.653L240.55 406.268L246.104 395.653ZM235.238 388.815H245.704L243.091 393.757L240.478 398.684L237.851 393.757L235.238 388.815Z" fill="#D5D0C2"/>
<path d="M209.004 403.89L203.364 414.52L197.738 425.151H220.27L214.644 414.52L209.004 403.89ZM203.778 421.343L206.391 416.416L209.004 411.49L211.617 416.416L214.23 421.343H203.778Z" fill="#D5D0C2"/>
<path d="M183.453 395.653L189.164 385.022H166.547L172.187 395.653L177.827 406.268L183.453 395.653ZM172.544 388.846H183.01L180.397 393.788L177.784 398.715L175.171 393.788L172.544 388.846Z" fill="#D5D0C2"/>
<path d="M146.353 403.89L140.713 414.52L135.087 425.151H157.618L151.993 414.52L146.353 403.89ZM141.127 421.343L143.74 416.416L146.353 411.49L148.966 416.416L151.578 421.343H141.127Z" fill="#D5D0C2"/>
<path d="M120.551 395.653L126.191 385.022H103.646L109.285 395.653L114.997 406.268L120.551 395.653ZM109.714 388.846H120.18L117.567 393.788L114.954 398.715L112.341 393.788L109.714 388.846Z" fill="#D5D0C2"/>
<path d="M83.4621 403.89L77.7507 414.52L72.125 425.151H94.7277L89.102 414.52L83.4621 403.89ZM78.3076 421.343L80.9205 416.416L83.5335 411.49L86.1464 416.416L88.7594 421.343H78.3076Z" fill="#D5D0C2"/>
<path d="M57.8998 395.653L63.6112 385.022H40.9941L46.6341 395.653L52.3455 406.268L57.8998 395.653ZM47.0339 388.846H57.5L54.887 393.788L52.2741 398.715L49.6611 393.788L47.0339 388.846Z" fill="#D5D0C2"/>
<path d="M20.8009 403.89L15.1752 414.52L9.46387 425.151H32.0809L26.4409 414.52L20.8009 403.89ZM15.575 421.343L18.188 416.416L20.8009 411.49L23.4139 416.416L26.0411 421.343H15.575Z" fill="#D5D0C2"/>
<path d="M14.2215 114.358C14.209 114.578 14.2395 114.798 14.3111 115.004C14.3828 115.21 14.4938 115.397 14.6369 115.553C14.7801 115.709 14.952 115.83 15.1413 115.908C15.3306 115.986 15.533 116.019 15.735 116.005L48.5754 116.596C48.847 116.602 49.117 116.549 49.3691 116.439C49.6212 116.328 49.8501 116.164 50.0423 115.955C50.2344 115.746 50.3856 115.496 50.4869 115.222C50.5881 114.948 50.6373 114.654 50.6315 114.358L50.0889 87.2061C50.0816 86.7717 49.9197 86.3573 49.6375 86.05C49.3552 85.7428 48.9745 85.5666 48.5754 85.5587L24.3021 84.937C24.0261 84.9284 23.7515 84.9812 23.4951 85.0922C23.2386 85.2032 23.0056 85.37 22.8104 85.5825C22.6153 85.7949 22.462 86.0485 22.36 86.3277C22.258 86.6069 22.2095 86.9058 22.2174 87.2061L22.7885 106.54C22.776 106.76 22.8066 106.981 22.8782 107.187C22.9498 107.393 23.0609 107.58 23.204 107.736C23.3471 107.891 23.519 108.012 23.7084 108.09C23.8977 108.168 24.1 108.201 24.3021 108.188L40.7508 107.846C40.9076 107.846 41.0629 107.812 41.2076 107.746C41.3524 107.68 41.4836 107.584 41.5939 107.463C41.7041 107.341 41.7911 107.197 41.8498 107.039C41.9085 106.88 41.9378 106.711 41.9359 106.54L41.7788 94.946C41.7849 94.7973 41.7625 94.6489 41.713 94.5101C41.6635 94.3713 41.588 94.2453 41.4913 94.1401C41.3946 94.0348 41.2788 93.9526 41.1513 93.8987C41.0238 93.8448 40.8874 93.8204 40.7508 93.827L32.7692 94.1845H32.6692C32.5841 94.1883 32.5006 94.2109 32.4238 94.251C32.3469 94.291 32.2784 94.3476 32.2223 94.4174C32.1662 94.4872 32.1237 94.5687 32.0975 94.6569C32.0712 94.7451 32.0617 94.8382 32.0695 94.9305L32.3836 100.199C32.4008 100.295 32.4479 100.381 32.5169 100.443C32.5859 100.505 32.6726 100.538 32.762 100.538C32.8514 100.538 32.9381 100.505 33.0071 100.443C33.0762 100.381 33.1233 100.295 33.1404 100.199L33.4117 95.7231L39.6942 96.0184L39.5657 105.204L25.8727 104.908L26.3296 89.3665L46.9905 88.8847L46.5336 112.198L17.2342 112.726L17.1057 80.0879L50.1032 79.1243C50.2206 79.1243 50.3331 79.0735 50.4161 78.9832C50.4991 78.8928 50.5458 78.7703 50.5458 78.6425C50.5458 78.5147 50.4991 78.3921 50.4161 78.3018C50.3331 78.2114 50.2206 78.1607 50.1032 78.1607L15.735 77.1504C15.5529 77.1378 15.3703 77.1656 15.1984 77.2324C15.0265 77.2991 14.8689 77.4033 14.7352 77.5386C14.6016 77.6739 14.4947 77.8374 14.4211 78.0192C14.3475 78.201 14.3087 78.3972 14.3072 78.5958C14.3072 78.5958 14.2072 114.327 14.2215 114.358Z" fill="#D5D0C2"/>
<path d="M63.4678 107.427L87.7411 108.049C88.0176 108.059 88.2931 108.008 88.5505 107.898C88.808 107.788 89.0418 107.621 89.2374 107.408C89.433 107.195 89.5862 106.941 89.6874 106.66C89.7887 106.38 89.8358 106.08 89.8258 105.779L89.2689 86.4452C89.2709 86.2269 89.2326 86.0105 89.1563 85.8086C89.08 85.6068 88.9673 85.4236 88.8249 85.27C88.6824 85.1164 88.5131 84.9954 88.327 84.9143C88.1408 84.8332 87.9416 84.7936 87.7411 84.7977L71.3067 85.1396C71.1486 85.1376 70.9918 85.1699 70.8454 85.2348C70.699 85.2996 70.5661 85.3957 70.4543 85.5174C70.3425 85.639 70.2543 85.7838 70.1947 85.9431C70.1351 86.1024 70.1054 86.2732 70.1073 86.4452L70.2643 98.0395C70.2603 98.189 70.2846 98.3378 70.3357 98.4766C70.3868 98.6153 70.4637 98.7412 70.5615 98.8462C70.6593 98.9512 70.776 99.0331 70.9042 99.0869C71.0324 99.1406 71.1694 99.165 71.3067 99.1585L79.2883 98.8011H79.374C79.5457 98.789 79.7062 98.7041 79.821 98.5646C79.9358 98.4251 79.9958 98.2422 79.9879 98.055L79.6595 92.7863C79.6595 92.6791 79.6204 92.5764 79.5508 92.5006C79.4812 92.4248 79.3868 92.3822 79.2883 92.3822C79.1898 92.3822 79.0954 92.4248 79.0258 92.5006C78.9562 92.5764 78.9171 92.6791 78.9171 92.7863L78.6315 97.2624L72.349 96.9671L72.4775 87.7818L86.1848 88.0771L85.7279 103.619L65.067 104.148C65.067 101.443 65.4668 84.3625 65.5382 80.8345L94.8232 80.3061C94.8232 83.228 94.9517 110.38 94.9517 112.944L61.9543 113.908C61.8369 113.908 61.7243 113.959 61.6413 114.049C61.5583 114.139 61.5117 114.262 61.5117 114.39C61.5117 114.517 61.5583 114.64 61.6413 114.73C61.7243 114.821 61.8369 114.871 61.9543 114.871L96.3367 115.882C96.5135 115.886 96.6892 115.852 96.8537 115.781C97.0181 115.71 97.1679 115.604 97.2942 115.47C97.4206 115.335 97.5209 115.174 97.5894 114.997C97.6579 114.819 97.6932 114.629 97.6932 114.436C97.6932 114.436 97.8645 78.6897 97.8502 78.6897C97.8502 78.4734 97.8111 78.2591 97.735 78.0593C97.659 77.8594 97.5475 77.6778 97.4069 77.5248C97.2664 77.3718 97.0995 77.2505 96.9159 77.1677C96.7323 77.0849 96.5355 77.0423 96.3367 77.0423L63.4964 76.4517C63.2241 76.4454 62.9535 76.4989 62.7006 76.6089C62.4477 76.7189 62.2178 76.8833 62.0246 77.0922C61.8314 77.3011 61.6788 77.5502 61.5759 77.8246C61.4731 78.0991 61.4221 78.3933 61.426 78.6897L61.9686 105.842C61.9931 106.261 62.1602 106.656 62.4373 106.949C62.7144 107.242 63.0817 107.412 63.4678 107.427Z" fill="#D5D0C2"/>
<path d="M109.14 114.358C109.14 114.795 109.299 115.214 109.583 115.523C109.867 115.832 110.252 116.005 110.653 116.005L143.494 116.596C143.766 116.602 144.036 116.549 144.289 116.439C144.542 116.329 144.772 116.164 144.965 115.956C145.159 115.747 145.311 115.498 145.414 115.223C145.517 114.949 145.568 114.654 145.564 114.358L145.021 87.2061C145.01 86.7703 144.845 86.3559 144.561 86.049C144.276 85.7422 143.894 85.5665 143.494 85.5587L119.22 84.937C118.943 84.9263 118.667 84.9775 118.409 85.0875C118.151 85.1975 117.916 85.364 117.719 85.5767C117.522 85.7894 117.368 86.0437 117.265 86.324C117.162 86.6042 117.113 86.9045 117.121 87.2061L117.692 106.54C117.68 106.762 117.711 106.983 117.783 107.191C117.856 107.398 117.968 107.586 118.113 107.742C118.257 107.898 118.431 108.018 118.622 108.095C118.813 108.172 119.017 108.204 119.22 108.188L135.655 107.846C135.813 107.848 135.97 107.816 136.116 107.751C136.262 107.686 136.395 107.59 136.507 107.468C136.619 107.347 136.707 107.202 136.767 107.042C136.826 106.883 136.856 106.712 136.854 106.54L136.697 94.9461C136.701 94.7966 136.677 94.6478 136.626 94.509C136.575 94.3702 136.498 94.2444 136.4 94.1394C136.302 94.0344 136.185 93.9524 136.057 93.8987C135.929 93.845 135.792 93.8206 135.655 93.827L127.673 94.1845H127.587C127.416 94.1965 127.255 94.2814 127.14 94.4209C127.026 94.5604 126.966 94.7434 126.973 94.9305L127.302 100.199C127.302 100.306 127.341 100.409 127.411 100.485C127.48 100.561 127.575 100.603 127.673 100.603C127.772 100.603 127.866 100.561 127.936 100.485C128.005 100.409 128.044 100.306 128.044 100.199L128.33 95.7232L134.612 96.0185L134.484 105.204L120.777 104.908C120.777 102.531 121.148 92.5526 121.234 89.3665L141.894 88.8381L141.423 112.151L112.138 112.679L112.01 80.0413L145.007 79.0777C145.124 79.0777 145.237 79.0269 145.32 78.9366C145.403 78.8462 145.45 78.7237 145.45 78.5959C145.45 78.4681 145.403 78.3456 145.32 78.2552C145.237 78.1648 145.124 78.1141 145.007 78.1141L110.625 77.1038C110.448 77.0997 110.272 77.134 110.108 77.2048C109.943 77.2756 109.793 77.3814 109.667 77.5161C109.541 77.6507 109.44 77.8114 109.372 77.9889C109.303 78.1663 109.268 78.3568 109.268 78.5493C109.268 78.5493 109.125 114.327 109.14 114.358Z" fill="#D5D0C2"/>
<path d="M158.392 107.427L182.665 108.049C182.941 108.057 183.216 108.004 183.472 107.893C183.729 107.782 183.962 107.616 184.157 107.403C184.352 107.191 184.505 106.937 184.607 106.658C184.709 106.379 184.758 106.08 184.75 105.779L184.179 86.4452C184.191 86.2253 184.161 86.005 184.089 85.7989C184.017 85.5929 183.906 85.4057 183.763 85.25C183.62 85.0942 183.448 84.9733 183.259 84.8953C183.07 84.8174 182.867 84.7841 182.665 84.7977L166.216 85.1397C165.9 85.1437 165.597 85.2825 165.372 85.5265C165.148 85.7705 165.021 86.1002 165.017 86.4452L165.188 98.0395C165.182 98.1882 165.205 98.3367 165.254 98.4755C165.304 98.6142 165.379 98.7402 165.476 98.8455C165.573 98.9508 165.688 99.033 165.816 99.0868C165.943 99.1407 166.08 99.1652 166.216 99.1585L174.198 98.8011H174.298C174.383 98.7972 174.467 98.7746 174.543 98.7346C174.62 98.6945 174.689 98.6379 174.745 98.5681C174.801 98.4983 174.844 98.4169 174.87 98.3287C174.896 98.2405 174.906 98.1474 174.898 98.0551L174.569 92.7863C174.569 92.6791 174.53 92.5764 174.461 92.5006C174.391 92.4248 174.297 92.3822 174.198 92.3822C174.1 92.3822 174.005 92.4248 173.936 92.5006C173.866 92.5764 173.827 92.6791 173.827 92.7863L173.556 97.2624L167.273 96.9671L167.387 87.7818L181.095 88.0771L180.638 103.619L159.991 104.148C159.991 101.443 160.377 84.3626 160.448 80.8345L189.676 80.3061L189.819 112.944L156.807 113.908C156.69 113.908 156.577 113.959 156.494 114.049C156.411 114.139 156.364 114.262 156.364 114.39C156.364 114.517 156.411 114.64 156.494 114.73C156.577 114.821 156.69 114.872 156.807 114.872L191.189 115.882C191.372 115.894 191.554 115.867 191.726 115.8C191.898 115.733 192.056 115.629 192.189 115.494C192.323 115.358 192.43 115.195 192.503 115.013C192.577 114.831 192.616 114.635 192.617 114.436C192.617 114.436 192.774 78.6897 192.76 78.6897C192.773 78.4698 192.742 78.2496 192.67 78.0435C192.599 77.8374 192.488 77.6503 192.345 77.4945C192.201 77.3387 192.03 77.2178 191.84 77.1399C191.651 77.0619 191.449 77.0286 191.247 77.0423L158.406 76.4517C158.135 76.4453 157.865 76.4989 157.612 76.6091C157.36 76.7193 157.131 76.8839 156.939 77.093C156.747 77.3021 156.596 77.5514 156.495 77.8258C156.393 78.1002 156.344 78.3941 156.35 78.6897L156.893 105.842C156.914 106.262 157.08 106.659 157.358 106.953C157.636 107.247 158.005 107.416 158.392 107.427Z" fill="#D5D0C2"/>
<path d="M204.085 114.358C204.072 114.578 204.103 114.798 204.175 115.004C204.246 115.21 204.357 115.397 204.5 115.553C204.644 115.709 204.815 115.83 205.005 115.908C205.194 115.986 205.396 116.019 205.598 116.005L238.439 116.596C238.71 116.602 238.98 116.549 239.233 116.439C239.485 116.328 239.714 116.164 239.906 115.955C240.098 115.746 240.249 115.496 240.35 115.222C240.452 114.948 240.501 114.654 240.495 114.358L239.952 87.2061C239.945 86.7717 239.783 86.3573 239.501 86.05C239.219 85.7428 238.838 85.5666 238.439 85.5587L214.166 84.937C213.89 84.9284 213.615 84.9812 213.359 85.0922C213.102 85.2032 212.869 85.37 212.674 85.5825C212.479 85.7949 212.325 86.0485 212.223 86.3277C212.122 86.6069 212.073 86.9058 212.081 87.2061L212.652 106.54C212.639 106.76 212.67 106.981 212.742 107.187C212.813 107.393 212.924 107.58 213.067 107.736C213.211 107.891 213.382 108.012 213.572 108.09C213.761 108.168 213.963 108.201 214.166 108.188L230.614 107.846C230.931 107.842 231.234 107.703 231.458 107.459C231.682 107.215 231.81 106.885 231.814 106.54L231.642 94.946C231.648 94.7973 231.626 94.6489 231.576 94.5101C231.527 94.3713 231.451 94.2453 231.355 94.1401C231.258 94.0348 231.142 93.9526 231.015 93.8987C230.887 93.8448 230.751 93.8204 230.614 93.827L222.633 94.1845H222.518C222.433 94.1883 222.35 94.2109 222.273 94.251C222.196 94.291 222.128 94.3476 222.071 94.4174C222.015 94.4872 221.973 94.5687 221.947 94.6569C221.92 94.7451 221.911 94.8382 221.919 94.9305L222.247 100.199C222.247 100.306 222.286 100.409 222.356 100.485C222.425 100.561 222.52 100.603 222.618 100.603C222.717 100.603 222.811 100.561 222.881 100.485C222.95 100.409 222.99 100.306 222.99 100.199L223.261 95.7231L229.543 96.0184C229.543 97.5726 229.443 103.339 229.429 105.204L215.722 104.908L216.179 89.3665L236.797 88.8847L236.34 112.198L207.055 112.726L206.912 80.0879L239.924 79.1243C240.041 79.1243 240.154 79.0735 240.237 78.9832C240.32 78.8928 240.366 78.7703 240.366 78.6425C240.366 78.5147 240.32 78.3921 240.237 78.3018C240.154 78.2114 240.041 78.1607 239.924 78.1607L205.541 77.1504C205.359 77.1378 205.177 77.1656 205.005 77.2324C204.833 77.2991 204.675 77.4033 204.542 77.5386C204.408 77.6739 204.301 77.8374 204.227 78.0192C204.154 78.201 204.115 78.3972 204.114 78.5958C204.114 78.5958 204.071 114.327 204.085 114.358Z" fill="#D5D0C2"/>
<path d="M253.325 107.427L277.599 108.049C277.876 108.059 278.152 108.008 278.41 107.898C278.668 107.788 278.903 107.622 279.1 107.409C279.296 107.196 279.451 106.942 279.554 106.662C279.657 106.381 279.706 106.081 279.698 105.779L279.126 86.4452C279.139 86.2239 279.108 86.0022 279.036 85.795C278.963 85.5878 278.851 85.3998 278.706 85.2438C278.562 85.0877 278.388 84.9672 278.197 84.8903C278.006 84.8133 277.802 84.7818 277.599 84.7977L261.164 85.1396C261.006 85.1376 260.849 85.1699 260.703 85.2348C260.557 85.2997 260.424 85.3957 260.312 85.5174C260.2 85.639 260.112 85.7838 260.052 85.9431C259.993 86.1025 259.963 86.2732 259.965 86.4452L260.122 98.0395C260.118 98.189 260.142 98.3378 260.193 98.4766C260.244 98.6154 260.321 98.7412 260.419 98.8462C260.517 98.9512 260.634 99.0331 260.762 99.0869C260.89 99.1406 261.027 99.165 261.164 99.1585L269.146 98.8011H269.232C269.403 98.789 269.564 98.7042 269.679 98.5646C269.793 98.4251 269.853 98.2422 269.846 98.0551L269.517 92.7863C269.517 92.6791 269.478 92.5764 269.408 92.5006C269.339 92.4248 269.244 92.3822 269.146 92.3822C269.047 92.3822 268.953 92.4248 268.883 92.5006C268.814 92.5764 268.775 92.6791 268.775 92.7863L268.503 97.2624L262.207 96.9671L262.335 87.7818L276.042 88.0771L275.585 103.619L254.925 104.148L255.396 80.8345L284.681 80.3061L284.809 112.944L251.812 113.908C251.694 113.908 251.582 113.959 251.499 114.049C251.416 114.139 251.369 114.262 251.369 114.39C251.369 114.517 251.416 114.64 251.499 114.73C251.582 114.821 251.694 114.871 251.812 114.871L286.194 115.882C286.556 115.883 286.905 115.734 287.17 115.466C287.435 115.197 287.597 114.829 287.622 114.436C287.622 114.436 287.779 78.6897 287.765 78.6897C287.765 78.4734 287.726 78.2592 287.65 78.0593C287.574 77.8594 287.462 77.6778 287.322 77.5248C287.181 77.3718 287.014 77.2505 286.831 77.1677C286.647 77.0849 286.45 77.0423 286.251 77.0423L253.411 76.4517C253.139 76.4453 252.869 76.4989 252.617 76.6091C252.365 76.7193 252.136 76.8839 251.944 77.093C251.752 77.3021 251.601 77.5514 251.5 77.8258C251.398 78.1002 251.349 78.3941 251.355 78.6897L251.898 105.842C251.917 106.25 252.073 106.636 252.336 106.928C252.599 107.22 252.951 107.397 253.325 107.427Z" fill="#D5D0C2"/>
<path d="M299.007 114.358C299.007 114.795 299.166 115.214 299.45 115.523C299.734 115.832 300.119 116.005 300.52 116.005L333.361 116.596C333.634 116.605 333.905 116.553 334.159 116.443C334.413 116.334 334.643 116.17 334.837 115.96C335.031 115.751 335.183 115.501 335.285 115.226C335.387 114.95 335.437 114.655 335.431 114.358L334.889 87.2061C334.878 86.7703 334.713 86.3559 334.428 86.049C334.144 85.7422 333.761 85.5665 333.361 85.5587L309.087 84.937C308.811 84.9261 308.535 84.9774 308.278 85.0876C308.021 85.1978 307.787 85.3645 307.591 85.5774C307.395 85.7904 307.242 86.0449 307.141 86.3251C307.04 86.6053 306.993 86.9052 307.003 87.2061L307.574 106.54C307.561 106.76 307.592 106.981 307.664 107.187C307.735 107.393 307.846 107.58 307.989 107.736C308.132 107.891 308.304 108.012 308.494 108.09C308.683 108.168 308.885 108.201 309.087 108.188L325.536 107.846C325.693 107.846 325.848 107.812 325.993 107.746C326.138 107.68 326.269 107.584 326.379 107.463C326.489 107.341 326.576 107.197 326.635 107.039C326.694 106.881 326.723 106.711 326.721 106.54L326.564 94.9461C326.57 94.7974 326.548 94.6489 326.498 94.5101C326.449 94.3714 326.373 94.2453 326.277 94.1401C326.18 94.0348 326.064 93.9526 325.937 93.8987C325.809 93.8448 325.673 93.8204 325.536 93.827L317.54 94.1845H317.455C317.369 94.1883 317.286 94.211 317.209 94.251C317.132 94.291 317.064 94.3477 317.008 94.4175C316.952 94.4872 316.909 94.5687 316.883 94.6569C316.857 94.7451 316.847 94.8382 316.855 94.9305L317.169 100.199C317.169 100.306 317.208 100.409 317.278 100.485C317.347 100.561 317.442 100.603 317.54 100.603C317.639 100.603 317.733 100.561 317.803 100.485C317.872 100.409 317.911 100.306 317.911 100.199L318.197 95.7232L324.48 96.0185L324.351 105.204L310.644 104.908L311.101 89.3665L331.762 88.8381L331.29 112.151L302.005 112.679L301.877 80.0413L334.874 79.0777C334.992 79.0777 335.104 79.0269 335.187 78.9366C335.27 78.8462 335.317 78.7237 335.317 78.5959C335.317 78.4681 335.27 78.3456 335.187 78.2552C335.104 78.1648 334.992 78.1141 334.874 78.1141L300.492 77.1038C300.315 77.0997 300.139 77.134 299.975 77.2048C299.81 77.2756 299.661 77.3814 299.534 77.5161C299.408 77.6507 299.308 77.8114 299.239 77.9889C299.171 78.1663 299.135 78.3568 299.135 78.5493C299.135 78.5493 299.007 114.327 299.007 114.358Z" fill="#D5D0C2"/>
<path d="M348.247 107.427L372.52 108.048C372.796 108.057 373.071 108.004 373.327 107.893C373.584 107.782 373.816 107.615 374.012 107.403C374.207 107.19 374.36 106.937 374.462 106.658C374.564 106.378 374.613 106.079 374.605 105.779L374.034 86.4449C374.046 86.225 374.016 86.0047 373.944 85.7986C373.872 85.5926 373.761 85.4054 373.618 85.2496C373.475 85.0938 373.303 84.973 373.114 84.895C372.924 84.817 372.722 84.7838 372.52 84.7974L356.071 85.1393C355.914 85.1393 355.759 85.1732 355.614 85.239C355.47 85.3048 355.338 85.4012 355.228 85.5226C355.118 85.6441 355.031 85.7881 354.972 85.9464C354.914 86.1047 354.884 86.2741 354.886 86.4449L355.043 98.0392C355.037 98.1879 355.06 98.3364 355.109 98.4751C355.159 98.6139 355.234 98.7399 355.331 98.8452C355.428 98.9504 355.543 99.0326 355.671 99.0865C355.798 99.1404 355.935 99.1648 356.071 99.1582L364.053 98.8007H364.153C364.238 98.7969 364.321 98.7743 364.398 98.7343C364.475 98.6942 364.544 98.6376 364.6 98.5678C364.656 98.498 364.698 98.4165 364.725 98.3283C364.751 98.2401 364.76 98.1471 364.753 98.0547L364.438 92.786C364.421 92.6905 364.374 92.6044 364.305 92.5425C364.236 92.4806 364.15 92.4467 364.06 92.4467C363.971 92.4467 363.884 92.4806 363.815 92.5425C363.746 92.6044 363.699 92.6905 363.682 92.786L363.41 97.2621L357.128 96.9668C357.128 95.4126 357.228 89.6465 357.256 87.7815L370.964 88.0768L370.507 103.619L349.846 104.147C349.846 101.443 350.246 84.3622 350.303 80.8342L379.574 80.3058C379.574 83.2277 379.688 110.38 379.702 112.944L346.705 113.908C346.587 113.908 346.475 113.958 346.392 114.049C346.309 114.139 346.262 114.262 346.262 114.389C346.262 114.517 346.309 114.64 346.392 114.73C346.475 114.82 346.587 114.871 346.705 114.871L381.073 115.881C381.255 115.894 381.438 115.866 381.609 115.799C381.781 115.733 381.939 115.629 382.073 115.493C382.206 115.358 382.313 115.194 382.387 115.013C382.46 114.831 382.499 114.635 382.501 114.436L382.658 78.6894C382.667 78.4542 382.63 78.2195 382.548 78.0013C382.467 77.7831 382.344 77.5863 382.187 77.4243C382.03 77.2623 381.843 77.1388 381.638 77.0621C381.434 76.9854 381.217 76.9573 381.001 76.9798L348.161 76.3892C347.889 76.3828 347.619 76.4364 347.367 76.5466C347.115 76.6568 346.886 76.8214 346.694 77.0305C346.502 77.2396 346.351 77.4889 346.25 77.7633C346.148 78.0377 346.099 78.3316 346.105 78.6272L346.648 105.779C346.653 106.002 346.699 106.221 346.782 106.424C346.866 106.627 346.985 106.811 347.133 106.964C347.282 107.117 347.457 107.236 347.648 107.316C347.839 107.395 348.042 107.433 348.247 107.427Z" fill="#D5D0C2"/>
<path d="M25.4711 289.811L19.7598 300.442H42.3911L36.7511 289.811L31.1825 279.196L25.4711 289.811ZM36.337 296.65H25.8852L28.4982 291.708L31.1825 286.781L33.7955 291.708L36.337 296.65Z" fill="#D5D0C2"/>
<path d="M68.223 270.943L73.8487 260.312H51.3174L56.9431 270.943L62.5973 281.605L68.223 270.943ZM57.3572 264.12H67.809L65.196 269.047L62.5973 273.974L59.9844 269.047L57.3572 264.12Z" fill="#D5D0C2"/>
<path d="M88.1411 289.811L82.4297 300.442H104.975L99.3353 289.811L93.6954 279.196L88.1411 289.811ZM99.0069 296.65H88.5409L91.1538 291.708L93.7668 286.781L96.394 291.708L99.0069 296.65Z" fill="#D5D0C2"/>
<path d="M130.875 270.943L136.501 260.312H113.998L119.624 270.943L125.335 281.574L130.875 270.943ZM120.009 264.12H130.461L127.848 269.047L125.235 273.974L122.565 269.047L120.009 264.12Z" fill="#D5D0C2"/>
<path d="M151.036 289.811L145.41 300.442H167.956L162.316 289.811L156.604 279.196L151.036 289.811ZM161.902 296.65H151.436L154.049 291.708L156.662 286.781L159.289 291.708L161.902 296.65Z" fill="#D5D0C2"/>
<path d="M193.772 270.943L199.397 260.312H176.823L182.449 270.943L188.089 281.574L193.772 270.943ZM182.906 264.12H193.358L190.745 269.047L188.132 273.974L185.519 269.047L182.906 264.12Z" fill="#D5D0C2"/>
<path d="M213.693 289.811L208.053 300.442H230.598L224.958 289.811L219.247 279.196L213.693 289.811ZM224.559 296.65H214.093L216.705 291.708L219.318 286.781L221.931 291.708L224.559 296.65Z" fill="#D5D0C2"/>
<path d="M256.428 270.943L262.054 260.312H239.522L245.148 270.943L250.86 281.574L256.428 270.943ZM245.562 264.12H256.014L253.401 269.047L250.788 273.974L248.218 269.047L245.562 264.12Z" fill="#D5D0C2"/>
<path d="M276.59 289.811L270.879 300.442H293.425L287.785 289.811L282.145 279.196L276.59 289.811ZM287.456 296.65H276.99L279.632 291.708L282.245 286.781L284.857 291.708L287.456 296.65Z" fill="#D5D0C2"/>
<path d="M319.323 270.943L324.949 260.312H302.475L308.1 270.943L313.812 281.574L319.323 270.943ZM308.457 264.12H318.909L316.296 269.047L313.683 273.974L311.042 269.047L308.457 264.12Z" fill="#D5D0C2"/>
<path d="M339.241 289.811L333.601 300.442H356.146L350.506 289.811L344.866 279.196L339.241 289.811ZM350.106 296.65H339.598L342.21 291.708L344.823 286.781L347.436 291.708L350.106 296.65Z" fill="#D5D0C2"/>
<path d="M370.701 270.943L376.412 281.574L382.038 270.943L387.678 260.312H365.061L370.701 270.943ZM381.566 264.12L378.953 269.047L376.341 273.974L373.728 269.047L371.1 264.12H381.566Z" fill="#D5D0C2"/>
<path d="M14.2215 359.968C14.209 360.188 14.2395 360.408 14.3111 360.614C14.3828 360.82 14.4938 361.008 14.6369 361.163C14.7801 361.319 14.952 361.44 15.1413 361.518C15.3306 361.596 15.533 361.629 15.735 361.616L48.5754 362.206C48.847 362.212 49.117 362.159 49.3691 362.049C49.6212 361.939 49.8501 361.774 50.0423 361.565C50.2344 361.356 50.3856 361.106 50.4869 360.832C50.5881 360.558 50.6373 360.264 50.6315 359.968L50.0603 332.894C50.053 332.459 49.8912 332.045 49.6089 331.738C49.3266 331.431 48.9459 331.254 48.5468 331.246L24.2735 330.625C24.0012 330.623 23.7312 330.68 23.4797 330.794C23.2283 330.908 23.0005 331.076 22.8099 331.287C22.6193 331.499 22.4699 331.751 22.3706 332.027C22.2712 332.303 22.224 332.598 22.2317 332.894L22.8028 352.228C22.7903 352.448 22.8208 352.668 22.8925 352.874C22.9641 353.08 23.0752 353.268 23.2183 353.423C23.3614 353.579 23.5333 353.7 23.7226 353.778C23.9119 353.856 24.1143 353.889 24.3163 353.876L40.7651 353.534C40.9225 353.536 41.0786 353.503 41.2242 353.438C41.3698 353.373 41.5019 353.277 41.6125 353.155C41.7232 353.033 41.8101 352.888 41.8681 352.729C41.9261 352.57 41.954 352.399 41.9502 352.228L41.7931 340.634C41.7992 340.485 41.7768 340.337 41.7273 340.198C41.6777 340.059 41.6022 339.933 41.5055 339.828C41.4088 339.723 41.2931 339.64 41.1656 339.587C41.0381 339.533 40.9017 339.508 40.7651 339.515L32.7834 339.888H32.6835C32.599 339.894 32.5165 339.918 32.4406 339.959C32.3647 339.999 32.297 340.056 32.2412 340.125C32.1855 340.195 32.1429 340.275 32.1159 340.362C32.0889 340.45 32.078 340.542 32.0838 340.634L32.3979 345.903C32.415 345.998 32.4622 346.084 32.5312 346.146C32.6002 346.208 32.6869 346.242 32.7763 346.242C32.8657 346.242 32.9524 346.208 33.0214 346.146C33.0904 346.084 33.1375 345.998 33.1547 345.903L33.426 341.426L39.7085 341.722L39.58 350.907L25.887 350.612L26.3439 335.07L46.9905 334.448L46.5336 357.761L17.2342 358.29L17.1057 325.651L50.1032 324.688C50.2206 324.688 50.3331 324.637 50.4161 324.547C50.4991 324.456 50.5458 324.334 50.5458 324.206C50.5458 324.078 50.4991 323.956 50.4161 323.865C50.3331 323.775 50.2206 323.724 50.1032 323.724L15.735 322.714C15.5529 322.701 15.3703 322.729 15.1984 322.796C15.0265 322.863 14.8689 322.967 14.7352 323.102C14.6016 323.237 14.4947 323.401 14.4211 323.583C14.3475 323.764 14.3087 323.961 14.3072 324.159C14.3072 324.159 14.2072 359.937 14.2215 359.968Z" fill="#D5D0C2"/>
<path d="M63.4681 353.098L87.7415 353.72C88.0146 353.716 88.2842 353.652 88.5339 353.532C88.7835 353.411 89.0081 353.236 89.1937 353.018C89.3794 352.8 89.5223 352.543 89.6139 352.263C89.7054 351.983 89.7436 351.686 89.7262 351.389L89.1693 332.055C89.1693 331.837 89.1297 331.621 89.0527 331.42C88.9758 331.22 88.863 331.037 88.721 330.884C88.5789 330.731 88.4104 330.61 88.2251 330.528C88.0398 330.446 87.8415 330.405 87.6415 330.407L71.207 330.749C71.049 330.747 70.8922 330.779 70.7458 330.844C70.5994 330.909 70.4664 331.005 70.3547 331.127C70.2429 331.248 70.1546 331.393 70.095 331.552C70.0355 331.712 70.0057 331.883 70.0077 332.055L70.1647 343.649C70.1607 343.798 70.185 343.947 70.2361 344.086C70.2872 344.225 70.3641 344.351 70.4619 344.456C70.5597 344.561 70.6764 344.643 70.8046 344.696C70.9328 344.75 71.0698 344.774 71.207 344.768L79.1887 344.41H79.2744C79.4461 344.398 79.6066 344.314 79.7214 344.174C79.8362 344.034 79.8962 343.852 79.8883 343.664L79.5599 338.396C79.5599 338.289 79.5208 338.186 79.4512 338.11C79.3816 338.034 79.2871 337.992 79.1887 337.992C79.0902 337.992 78.9958 338.034 78.9262 338.11C78.8566 338.186 78.8174 338.289 78.8174 338.396L78.5319 342.872L72.2494 342.577L72.3779 333.391L86.0852 333.686L85.6282 349.228L64.9674 349.757C64.9674 347.053 65.3672 329.972 65.4386 326.444L94.7236 325.915C94.7236 328.837 94.8521 355.989 94.8521 358.554L61.8547 359.517C61.7373 359.517 61.6247 359.568 61.5417 359.658C61.4587 359.749 61.412 359.871 61.412 359.999C61.412 360.127 61.4587 360.249 61.5417 360.34C61.6247 360.43 61.7373 360.481 61.8547 360.481L96.2371 361.491C96.4139 361.495 96.5896 361.461 96.7541 361.39C96.9185 361.319 97.0682 361.214 97.1946 361.079C97.3209 360.944 97.4213 360.784 97.4898 360.606C97.5583 360.429 97.5936 360.238 97.5936 360.046C97.5936 360.046 97.7649 324.299 97.7506 324.299C97.7469 323.863 97.5863 323.447 97.3032 323.139C97.0202 322.831 96.6374 322.656 96.2371 322.652L63.3967 322.061C63.1245 322.055 62.8538 322.108 62.601 322.218C62.3481 322.328 62.1182 322.493 61.925 322.702C61.7318 322.91 61.5792 323.16 61.4763 323.434C61.3735 323.708 61.3225 324.003 61.3264 324.299L61.869 351.451C61.8745 351.673 61.9203 351.893 62.0037 352.096C62.087 352.299 62.2064 352.482 62.3549 352.635C62.5034 352.788 62.6782 352.908 62.8692 352.987C63.0602 353.067 63.2637 353.105 63.4681 353.098Z" fill="#D5D0C2"/>
<path d="M109.14 359.968C109.138 360.185 109.176 360.4 109.251 360.601C109.327 360.802 109.438 360.984 109.579 361.137C109.72 361.291 109.887 361.412 110.072 361.494C110.256 361.576 110.454 361.617 110.653 361.615L143.494 362.206C143.766 362.212 144.037 362.159 144.29 362.049C144.542 361.939 144.772 361.774 144.966 361.565C145.159 361.357 145.311 361.107 145.414 360.833C145.517 360.558 145.568 360.264 145.564 359.968L144.993 332.894C144.982 332.458 144.817 332.043 144.533 331.737C144.248 331.43 143.866 331.254 143.465 331.246L119.192 330.625C118.915 330.614 118.639 330.665 118.38 330.775C118.122 330.885 117.888 331.052 117.691 331.264C117.494 331.477 117.34 331.731 117.237 332.012C117.134 332.292 117.085 332.592 117.093 332.894L117.664 352.228C117.651 352.449 117.682 352.671 117.755 352.878C117.827 353.085 117.94 353.273 118.084 353.429C118.229 353.585 118.403 353.706 118.594 353.783C118.785 353.86 118.989 353.891 119.192 353.875L135.626 353.534C135.784 353.536 135.941 353.503 136.088 353.438C136.234 353.373 136.367 353.277 136.479 353.156C136.59 353.034 136.679 352.889 136.738 352.73C136.798 352.571 136.828 352.4 136.826 352.228L136.669 340.634C136.673 340.484 136.648 340.335 136.597 340.197C136.546 340.058 136.469 339.932 136.372 339.827C136.274 339.722 136.157 339.64 136.029 339.586C135.901 339.533 135.764 339.508 135.626 339.515L127.645 339.888H127.559C127.387 339.9 127.227 339.985 127.112 340.124C126.997 340.264 126.937 340.447 126.945 340.634L127.273 345.902C127.273 346.01 127.313 346.112 127.382 346.188C127.452 346.264 127.546 346.306 127.645 346.306C127.743 346.306 127.838 346.264 127.907 346.188C127.977 346.112 128.016 346.01 128.016 345.902L128.302 341.426L134.584 341.722L134.456 350.907L120.748 350.612C120.748 348.234 121.119 338.271 121.205 335.07L141.866 334.541L141.395 357.854L112.11 358.383L111.981 325.744L144.979 324.781C145.096 324.781 145.209 324.73 145.292 324.64C145.375 324.549 145.421 324.427 145.421 324.299C145.421 324.171 145.375 324.049 145.292 323.958C145.209 323.868 145.096 323.817 144.979 323.817L110.596 322.807C110.42 322.803 110.244 322.837 110.079 322.908C109.915 322.979 109.765 323.085 109.639 323.219C109.512 323.354 109.412 323.515 109.344 323.692C109.275 323.869 109.24 324.06 109.24 324.252C109.24 324.252 109.126 359.937 109.14 359.968Z" fill="#D5D0C2"/>
<path d="M158.391 353.099L182.665 353.72C182.941 353.731 183.217 353.68 183.474 353.57C183.732 353.46 183.965 353.293 184.161 353.08C184.357 352.867 184.51 352.613 184.611 352.332C184.712 352.052 184.759 351.752 184.749 351.451L184.178 332.117C184.191 331.897 184.16 331.677 184.089 331.471C184.017 331.265 183.906 331.078 183.763 330.922C183.62 330.766 183.448 330.645 183.258 330.567C183.069 330.489 182.867 330.456 182.665 330.47L166.216 330.812C165.899 330.816 165.596 330.954 165.372 331.198C165.148 331.442 165.02 331.772 165.017 332.117L165.188 343.711C165.182 343.86 165.204 344.009 165.254 344.147C165.303 344.286 165.379 344.412 165.476 344.517C165.572 344.623 165.688 344.705 165.815 344.759C165.943 344.813 166.079 344.837 166.216 344.83L174.198 344.473H174.298C174.383 344.469 174.466 344.447 174.543 344.406C174.62 344.366 174.688 344.31 174.744 344.24C174.801 344.17 174.843 344.089 174.869 344.001C174.896 343.912 174.905 343.819 174.897 343.727L174.569 338.458C174.569 338.351 174.53 338.248 174.46 338.172C174.391 338.097 174.296 338.054 174.198 338.054C174.099 338.054 174.005 338.097 173.935 338.172C173.866 338.248 173.826 338.351 173.826 338.458L173.555 342.934L167.273 342.639L167.387 333.454L181.094 333.749L180.637 349.291L159.991 349.819C159.991 347.115 160.376 330.034 160.448 326.506L189.733 325.978L189.875 358.616L156.864 359.58C156.746 359.58 156.634 359.631 156.551 359.721C156.468 359.811 156.421 359.934 156.421 360.062C156.421 360.189 156.468 360.312 156.551 360.402C156.634 360.493 156.746 360.543 156.864 360.543L191.246 361.554C191.428 361.566 191.611 361.538 191.783 361.472C191.955 361.405 192.112 361.301 192.246 361.165C192.379 361.03 192.486 360.867 192.56 360.685C192.634 360.503 192.672 360.307 192.674 360.108C192.674 360.108 192.831 324.362 192.817 324.362C192.819 324.145 192.781 323.93 192.705 323.729C192.63 323.528 192.519 323.345 192.378 323.192C192.237 323.039 192.069 322.917 191.885 322.835C191.7 322.753 191.502 322.712 191.303 322.714L158.463 322.124C158.191 322.117 157.921 322.171 157.669 322.281C157.417 322.391 157.188 322.556 156.996 322.765C156.804 322.974 156.653 323.223 156.551 323.498C156.45 323.772 156.401 324.066 156.407 324.362L156.835 351.389C156.831 351.613 156.869 351.836 156.945 352.045C157.022 352.253 157.136 352.442 157.281 352.602C157.427 352.761 157.6 352.887 157.79 352.973C157.981 353.058 158.185 353.101 158.391 353.099Z" fill="#D5D0C2"/>
<path d="M204.085 359.968C204.072 360.188 204.103 360.408 204.175 360.614C204.246 360.82 204.357 361.008 204.5 361.163C204.644 361.319 204.815 361.44 205.005 361.518C205.194 361.596 205.396 361.629 205.598 361.616L238.439 362.206C238.71 362.212 238.98 362.159 239.233 362.049C239.485 361.939 239.714 361.774 239.906 361.565C240.098 361.356 240.249 361.106 240.35 360.832C240.452 360.558 240.501 360.264 240.495 359.968L239.924 332.894C239.916 332.459 239.755 332.045 239.472 331.738C239.19 331.431 238.809 331.254 238.41 331.246L214.137 330.625C213.865 330.623 213.595 330.68 213.343 330.794C213.092 330.908 212.864 331.076 212.673 331.287C212.483 331.499 212.333 331.751 212.234 332.027C212.135 332.303 212.087 332.598 212.095 332.894L212.666 352.228C212.654 352.448 212.684 352.668 212.756 352.874C212.828 353.08 212.939 353.268 213.082 353.423C213.225 353.579 213.397 353.7 213.586 353.778C213.775 353.856 213.978 353.889 214.18 353.876L230.629 353.534C230.947 353.534 231.252 353.396 231.477 353.151C231.702 352.906 231.828 352.574 231.828 352.228L231.657 340.634C231.663 340.485 231.64 340.337 231.591 340.198C231.541 340.059 231.466 339.933 231.369 339.828C231.272 339.723 231.157 339.64 231.029 339.587C230.902 339.533 230.765 339.508 230.629 339.515L222.647 339.888H222.518C222.434 339.894 222.351 339.918 222.276 339.959C222.2 339.999 222.132 340.056 222.076 340.125C222.02 340.195 221.978 340.275 221.951 340.362C221.924 340.45 221.913 340.542 221.919 340.634L222.247 345.903C222.247 346.01 222.286 346.113 222.356 346.188C222.425 346.264 222.52 346.307 222.618 346.307C222.717 346.307 222.811 346.264 222.881 346.188C222.95 346.113 222.99 346.01 222.99 345.903L223.261 341.426L229.543 341.722C229.543 343.276 229.443 349.042 229.429 350.907L215.722 350.612L216.179 335.07L236.797 334.448L236.34 357.761L207.055 358.29L206.912 325.651L239.924 324.688C240.041 324.688 240.154 324.637 240.237 324.547C240.32 324.456 240.366 324.334 240.366 324.206C240.366 324.078 240.32 323.956 240.237 323.865C240.154 323.775 240.041 323.724 239.924 323.724L205.541 322.714C205.359 322.701 205.177 322.729 205.005 322.796C204.833 322.863 204.675 322.967 204.542 323.102C204.408 323.237 204.301 323.401 204.227 323.583C204.154 323.764 204.115 323.961 204.114 324.159C204.114 324.159 204.071 359.937 204.085 359.968Z" fill="#D5D0C2"/>
<path d="M253.326 353.098L277.6 353.72C277.876 353.721 278.149 353.66 278.403 353.541C278.657 353.422 278.886 353.249 279.075 353.03C279.265 352.812 279.412 352.554 279.507 352.272C279.602 351.989 279.643 351.689 279.627 351.389L279.056 332.055C279.069 331.833 279.038 331.612 278.966 331.404C278.893 331.197 278.781 331.009 278.636 330.853C278.491 330.697 278.318 330.577 278.127 330.5C277.936 330.423 277.732 330.391 277.528 330.407L261.094 330.749C260.936 330.747 260.779 330.779 260.633 330.844C260.486 330.909 260.353 331.005 260.242 331.127C260.13 331.248 260.042 331.393 259.982 331.552C259.922 331.712 259.893 331.883 259.895 332.055L260.052 343.649C260.048 343.798 260.072 343.947 260.123 344.086C260.174 344.225 260.251 344.351 260.349 344.456C260.447 344.561 260.563 344.643 260.691 344.696C260.82 344.75 260.957 344.774 261.094 344.768L269.076 344.41H269.161C269.333 344.398 269.493 344.314 269.608 344.174C269.723 344.035 269.783 343.852 269.775 343.664L269.447 338.396C269.447 338.289 269.408 338.186 269.338 338.11C269.268 338.034 269.174 337.992 269.076 337.992C268.977 337.992 268.883 338.034 268.813 338.11C268.743 338.186 268.704 338.289 268.704 338.396L268.433 342.872L262.136 342.577L262.265 333.391L275.972 333.686L275.515 349.228L254.854 349.757L255.325 326.444L284.61 325.915L284.739 358.554L251.742 359.517C251.624 359.517 251.512 359.568 251.429 359.658C251.346 359.749 251.299 359.871 251.299 359.999C251.299 360.127 251.346 360.249 251.429 360.34C251.512 360.43 251.624 360.481 251.742 360.481L286.124 361.491C286.486 361.492 286.835 361.343 287.1 361.075C287.365 360.807 287.526 360.439 287.552 360.046C287.552 360.046 287.709 324.299 287.695 324.299C287.691 323.863 287.53 323.447 287.247 323.139C286.964 322.831 286.581 322.656 286.181 322.652L253.341 322.061C253.069 322.055 252.799 322.108 252.547 322.218C252.295 322.329 252.066 322.493 251.874 322.702C251.682 322.912 251.531 323.161 251.429 323.435C251.328 323.71 251.279 324.003 251.285 324.299L251.827 351.451C251.834 351.883 251.994 352.295 252.273 352.602C252.553 352.909 252.93 353.087 253.326 353.098Z" fill="#D5D0C2"/>
<path d="M299.007 359.968C299.005 360.185 299.043 360.4 299.118 360.601C299.194 360.802 299.305 360.984 299.446 361.137C299.587 361.291 299.754 361.412 299.939 361.494C300.123 361.576 300.321 361.617 300.52 361.615L333.361 362.206C333.634 362.214 333.905 362.162 334.159 362.053C334.413 361.944 334.643 361.78 334.837 361.57C335.031 361.361 335.183 361.111 335.285 360.836C335.387 360.56 335.437 360.265 335.431 359.968L334.86 332.894C334.849 332.458 334.684 332.043 334.4 331.737C334.115 331.43 333.733 331.254 333.332 331.246L309.059 330.625C308.782 330.614 308.507 330.665 308.249 330.775C307.992 330.885 307.758 331.052 307.563 331.265C307.367 331.478 307.214 331.732 307.113 332.013C307.011 332.293 306.964 332.593 306.974 332.894L307.545 352.228C307.533 352.448 307.563 352.668 307.635 352.874C307.707 353.08 307.818 353.267 307.961 353.423C308.104 353.579 308.276 353.7 308.465 353.778C308.654 353.856 308.857 353.889 309.059 353.875L325.508 353.534C325.665 353.536 325.821 353.503 325.967 353.438C326.112 353.373 326.244 353.277 326.355 353.155C326.466 353.033 326.553 352.888 326.611 352.729C326.669 352.57 326.697 352.399 326.693 352.228L326.536 340.634C326.542 340.485 326.519 340.336 326.47 340.198C326.42 340.059 326.345 339.933 326.248 339.828C326.151 339.722 326.036 339.64 325.908 339.586C325.781 339.532 325.644 339.508 325.508 339.515L317.512 339.888H317.426C317.342 339.894 317.259 339.918 317.183 339.958C317.107 339.999 317.04 340.056 316.984 340.125C316.928 340.194 316.886 340.275 316.859 340.362C316.831 340.45 316.821 340.542 316.826 340.634L317.14 345.902C317.14 346.01 317.18 346.112 317.249 346.188C317.319 346.264 317.413 346.306 317.512 346.306C317.61 346.306 317.705 346.264 317.774 346.188C317.844 346.112 317.883 346.01 317.883 345.902L318.169 341.426L324.451 341.722L324.323 350.907L310.615 350.612L311.072 335.07L331.733 334.541L331.262 357.854L301.977 358.383L301.848 325.744L334.846 324.781C334.963 324.781 335.076 324.73 335.159 324.64C335.242 324.549 335.288 324.427 335.288 324.299C335.288 324.171 335.242 324.049 335.159 323.958C335.076 323.868 334.963 323.817 334.846 323.817L300.463 322.807C300.287 322.803 300.111 322.837 299.946 322.908C299.782 322.979 299.632 323.085 299.506 323.219C299.379 323.354 299.279 323.515 299.211 323.692C299.142 323.869 299.107 324.06 299.107 324.252C299.107 324.252 299.007 359.937 299.007 359.968Z" fill="#D5D0C2"/>
<path d="M348.251 353.098L372.524 353.72C372.8 353.731 373.076 353.68 373.333 353.57C373.591 353.459 373.825 353.293 374.02 353.08C374.216 352.867 374.369 352.612 374.47 352.332C374.571 352.052 374.618 351.752 374.608 351.451L374.037 332.117C374.061 331.883 374.035 331.647 373.963 331.426C373.89 331.205 373.772 331.005 373.618 330.84C373.464 330.676 373.278 330.551 373.074 330.476C372.87 330.401 372.652 330.378 372.438 330.407L355.989 330.749C355.833 330.749 355.677 330.783 355.533 330.849C355.388 330.914 355.257 331.011 355.146 331.132C355.036 331.254 354.949 331.398 354.89 331.556C354.832 331.714 354.802 331.884 354.804 332.055L354.961 343.649C354.955 343.798 354.978 343.946 355.027 344.085C355.077 344.224 355.152 344.35 355.249 344.455C355.346 344.56 355.461 344.642 355.589 344.696C355.716 344.75 355.853 344.775 355.989 344.768L363.971 344.41H364.071C364.156 344.407 364.24 344.384 364.316 344.344C364.393 344.304 364.462 344.247 364.518 344.177C364.574 344.108 364.616 344.026 364.643 343.938C364.669 343.85 364.679 343.757 364.671 343.664L364.357 338.396C364.339 338.3 364.292 338.214 364.223 338.152C364.154 338.09 364.068 338.056 363.978 338.056C363.889 338.056 363.802 338.09 363.733 338.152C363.664 338.214 363.617 338.3 363.6 338.396L363.329 342.872L357.046 342.577C357.046 341.022 357.146 335.256 357.175 333.391L370.882 333.686L370.425 349.228L349.764 349.757C349.764 347.053 350.164 329.972 350.221 326.444L379.52 325.915C379.52 328.837 379.634 355.989 379.649 358.554L346.651 359.517C346.534 359.517 346.421 359.568 346.338 359.658C346.255 359.749 346.209 359.871 346.209 359.999C346.209 360.127 346.255 360.249 346.338 360.34C346.421 360.43 346.534 360.481 346.651 360.481L381.02 361.491C381.202 361.504 381.384 361.476 381.556 361.409C381.728 361.342 381.886 361.238 382.019 361.103C382.153 360.968 382.26 360.804 382.333 360.622C382.407 360.441 382.446 360.244 382.447 360.046L382.604 324.299C382.601 323.861 382.438 323.442 382.152 323.133C381.866 322.825 381.479 322.652 381.077 322.652L348.236 322.061C347.965 322.055 347.695 322.108 347.443 322.218C347.19 322.329 346.961 322.493 346.769 322.702C346.577 322.912 346.426 323.161 346.325 323.435C346.224 323.71 346.174 324.003 346.18 324.299L346.737 351.389C346.733 351.833 346.89 352.261 347.173 352.58C347.456 352.9 347.843 353.086 348.251 353.098Z" fill="#D5D0C2"/>
<path d="M348.25 230.877L372.523 231.498C372.8 231.505 373.075 231.45 373.332 231.337C373.588 231.225 373.821 231.056 374.016 230.843C374.211 230.629 374.364 230.374 374.466 230.094C374.567 229.814 374.616 229.515 374.608 229.214L374.037 209.895C374.041 209.677 374.004 209.46 373.93 209.257C373.855 209.055 373.744 208.87 373.603 208.715C373.462 208.56 373.294 208.438 373.108 208.355C372.923 208.272 372.724 208.23 372.523 208.232L356.075 208.59C355.917 208.587 355.761 208.62 355.616 208.685C355.47 208.75 355.338 208.846 355.227 208.968C355.117 209.09 355.03 209.235 354.972 209.394C354.914 209.553 354.886 209.724 354.89 209.895L355.047 221.474C355.041 221.623 355.063 221.772 355.113 221.912C355.162 222.051 355.237 222.178 355.334 222.285C355.43 222.391 355.546 222.475 355.673 222.531C355.801 222.586 355.937 222.613 356.075 222.608L364.056 222.235H364.156C364.328 222.22 364.487 222.131 364.599 221.988C364.712 221.846 364.768 221.661 364.756 221.474L364.442 216.205C364.425 216.11 364.378 216.023 364.309 215.962C364.24 215.9 364.153 215.866 364.064 215.866C363.974 215.866 363.887 215.9 363.818 215.962C363.749 216.023 363.702 216.11 363.685 216.205L363.414 220.697L357.131 220.401L357.26 211.216L370.967 211.511L370.51 227.053L349.849 227.582L350.306 204.269L379.577 203.74L379.706 236.379L346.737 237.311C346.631 237.332 346.536 237.392 346.467 237.481C346.398 237.571 346.36 237.684 346.36 237.801C346.36 237.917 346.398 238.03 346.467 238.12C346.536 238.209 346.631 238.27 346.737 238.29L381.105 239.285C381.288 239.302 381.472 239.278 381.646 239.213C381.82 239.148 381.979 239.044 382.114 238.908C382.248 238.771 382.355 238.606 382.427 238.422C382.499 238.238 382.535 238.04 382.533 237.84L382.69 202.093C382.69 201.652 382.529 201.229 382.242 200.917C381.956 200.605 381.567 200.43 381.162 200.43L348.322 199.839C348.049 199.833 347.777 199.887 347.524 199.998C347.271 200.109 347.042 200.275 346.849 200.486C346.657 200.697 346.506 200.948 346.406 201.224C346.305 201.5 346.258 201.796 346.265 202.093L346.808 229.229C346.821 229.649 346.975 230.048 347.241 230.352C347.507 230.656 347.866 230.843 348.25 230.877Z" fill="#D5D0C2"/>
<path d="M299.007 237.793C299.007 238.231 299.166 238.652 299.449 238.964C299.733 239.275 300.118 239.452 300.52 239.456L333.361 240.047C333.635 240.055 333.908 240.003 334.162 239.893C334.417 239.782 334.648 239.617 334.842 239.406C335.036 239.195 335.188 238.943 335.29 238.666C335.391 238.388 335.439 238.091 335.431 237.793L334.889 210.641C334.874 210.207 334.708 209.794 334.424 209.488C334.14 209.182 333.76 209.005 333.361 208.994L309.087 208.372C308.811 208.361 308.535 208.412 308.278 208.523C308.021 208.633 307.787 208.8 307.591 209.013C307.395 209.225 307.242 209.48 307.141 209.76C307.04 210.04 306.993 210.34 307.003 210.641L307.574 229.975C307.57 230.194 307.606 230.411 307.681 230.613C307.756 230.816 307.867 231 308.008 231.155C308.149 231.31 308.317 231.433 308.503 231.516C308.688 231.599 308.887 231.641 309.087 231.638L325.536 231.281C325.694 231.283 325.85 231.251 325.995 231.186C326.141 231.121 326.273 231.024 326.384 230.902C326.494 230.781 326.581 230.636 326.639 230.476C326.697 230.317 326.725 230.147 326.721 229.975L326.564 218.397C326.57 218.247 326.548 218.098 326.498 217.959C326.449 217.819 326.374 217.692 326.277 217.586C326.181 217.479 326.065 217.395 325.938 217.34C325.81 217.284 325.673 217.258 325.536 217.262L317.54 217.635H317.455C317.283 217.651 317.124 217.74 317.011 217.882C316.899 218.025 316.843 218.209 316.855 218.397L317.169 223.65C317.169 223.757 317.208 223.86 317.278 223.936C317.347 224.011 317.442 224.054 317.54 224.054C317.639 224.054 317.733 224.011 317.803 223.936C317.872 223.86 317.911 223.757 317.911 223.65L318.197 219.174L324.48 219.469L324.351 228.654L310.644 228.359L311.101 212.817L331.762 212.289C331.762 215.009 331.362 232.074 331.29 235.602L302.005 236.13C302.005 233.208 301.877 206.056 301.877 203.492L334.874 202.528C334.98 202.508 335.075 202.447 335.144 202.358C335.213 202.268 335.251 202.155 335.251 202.039C335.251 201.922 335.213 201.809 335.144 201.72C335.075 201.63 334.98 201.57 334.874 201.549L300.492 200.554C300.314 200.548 300.138 200.581 299.973 200.651C299.807 200.721 299.657 200.827 299.53 200.962C299.403 201.097 299.303 201.258 299.235 201.437C299.167 201.615 299.133 201.807 299.135 202C299.135 202 299.007 237.762 299.007 237.793Z" fill="#D5D0C2"/>
<path d="M253.327 230.877L277.6 231.498C277.878 231.507 278.155 231.454 278.413 231.342C278.671 231.23 278.906 231.062 279.102 230.848C279.299 230.634 279.453 230.379 279.556 230.098C279.658 229.817 279.707 229.516 279.699 229.214L279.128 209.895C279.132 209.677 279.096 209.46 279.021 209.257C278.947 209.055 278.835 208.87 278.694 208.715C278.553 208.56 278.385 208.438 278.199 208.355C278.014 208.272 277.815 208.23 277.615 208.232L261.066 208.558C260.907 208.554 260.75 208.585 260.602 208.649C260.455 208.713 260.321 208.809 260.209 208.931C260.097 209.053 260.009 209.199 259.95 209.359C259.891 209.52 259.863 209.691 259.867 209.864L260.024 221.443C260.018 221.594 260.04 221.744 260.091 221.885C260.141 222.025 260.217 222.153 260.315 222.26C260.413 222.366 260.531 222.45 260.66 222.504C260.789 222.559 260.927 222.584 261.066 222.577L269.048 222.204H269.133C269.306 222.188 269.467 222.1 269.581 221.958C269.696 221.816 269.755 221.631 269.747 221.443L269.419 216.174C269.419 216.067 269.38 215.964 269.31 215.888C269.24 215.813 269.146 215.77 269.048 215.77C268.949 215.77 268.855 215.813 268.785 215.888C268.715 215.964 268.676 216.067 268.676 216.174L268.405 220.666L262.108 220.37L262.237 211.185L275.944 211.48C275.873 213.843 275.573 223.821 275.487 227.022L254.826 227.551L255.297 204.238L284.583 203.709L284.711 236.348L251.714 237.311C251.608 237.332 251.512 237.392 251.444 237.481C251.375 237.571 251.337 237.684 251.337 237.801C251.337 237.917 251.375 238.03 251.444 238.12C251.512 238.209 251.608 238.27 251.714 238.29L286.096 239.285C286.279 239.3 286.462 239.274 286.635 239.208C286.808 239.142 286.966 239.038 287.1 238.902C287.234 238.766 287.341 238.602 287.414 238.419C287.487 238.236 287.524 238.039 287.524 237.84C287.524 237.84 287.681 202.093 287.667 202.093C287.667 201.655 287.508 201.234 287.224 200.923C286.941 200.611 286.556 200.434 286.153 200.43L253.313 199.839C253.04 199.833 252.769 199.887 252.516 199.998C252.263 200.109 252.033 200.275 251.841 200.486C251.648 200.697 251.497 200.948 251.397 201.224C251.297 201.5 251.249 201.796 251.257 202.093L251.799 229.229C251.814 229.664 251.98 230.076 252.263 230.382C252.547 230.688 252.928 230.865 253.327 230.877Z" fill="#D5D0C2"/>
<path d="M204.084 237.793C204.082 238.01 204.12 238.226 204.195 238.428C204.27 238.629 204.381 238.813 204.522 238.968C204.663 239.122 204.83 239.245 205.015 239.329C205.199 239.412 205.397 239.456 205.597 239.456L238.438 240.046C238.711 240.053 238.982 239.999 239.235 239.887C239.488 239.776 239.718 239.61 239.91 239.399C240.102 239.189 240.253 238.937 240.354 238.661C240.454 238.385 240.502 238.089 240.494 237.793L239.951 210.641C239.941 210.207 239.778 209.795 239.496 209.489C239.215 209.182 238.836 209.005 238.438 208.993L214.164 208.372C213.889 208.363 213.614 208.416 213.357 208.527C213.101 208.638 212.868 208.805 212.673 209.017C212.478 209.229 212.324 209.483 212.222 209.762C212.12 210.041 212.072 210.34 212.08 210.641L212.651 229.975C212.647 230.193 212.684 230.41 212.758 230.613C212.833 230.815 212.944 231 213.085 231.155C213.226 231.31 213.394 231.432 213.58 231.515C213.765 231.598 213.964 231.64 214.164 231.638L230.613 231.28C230.771 231.283 230.928 231.25 231.074 231.185C231.221 231.12 231.354 231.024 231.466 230.903C231.577 230.781 231.666 230.636 231.725 230.477C231.785 230.318 231.815 230.147 231.813 229.975L231.641 218.396C231.649 218.246 231.629 218.096 231.58 217.955C231.531 217.815 231.456 217.687 231.359 217.58C231.262 217.473 231.146 217.389 231.017 217.334C230.889 217.28 230.751 217.255 230.613 217.262L222.632 217.635H222.517C222.346 217.65 222.186 217.739 222.074 217.882C221.962 218.024 221.906 218.209 221.918 218.396L222.246 223.649C222.246 223.756 222.285 223.859 222.355 223.935C222.424 224.011 222.519 224.053 222.617 224.053C222.716 224.053 222.81 224.011 222.88 223.935C222.949 223.859 222.989 223.756 222.989 223.649L223.26 219.173L229.542 219.469L229.428 228.654L215.721 228.359L216.178 212.817L236.824 212.288C236.824 215.008 236.439 232.073 236.367 235.601L207.082 236.13L206.94 203.491L239.951 202.528C240.057 202.507 240.152 202.447 240.221 202.357C240.29 202.268 240.328 202.155 240.328 202.038C240.328 201.921 240.29 201.808 240.221 201.719C240.152 201.629 240.057 201.569 239.951 201.549L205.569 200.554C205.386 200.539 205.203 200.565 205.03 200.631C204.857 200.697 204.699 200.801 204.565 200.937C204.431 201.073 204.324 201.237 204.251 201.42C204.178 201.603 204.141 201.8 204.141 201.999C204.141 201.999 204.07 237.761 204.084 237.793Z" fill="#D5D0C2"/>
<path d="M158.392 230.877L182.665 231.498C182.942 231.505 183.217 231.45 183.473 231.337C183.73 231.225 183.963 231.056 184.158 230.843C184.353 230.629 184.506 230.374 184.607 230.094C184.709 229.814 184.758 229.515 184.75 229.214L184.179 209.895C184.183 209.677 184.146 209.46 184.072 209.257C183.997 209.055 183.886 208.87 183.745 208.715C183.604 208.56 183.436 208.438 183.25 208.355C183.065 208.272 182.866 208.23 182.665 208.232L166.217 208.59C166.059 208.587 165.902 208.62 165.755 208.685C165.609 208.75 165.476 208.846 165.364 208.967C165.252 209.089 165.164 209.234 165.105 209.393C165.045 209.552 165.015 209.723 165.017 209.895L165.189 221.474C165.18 221.624 165.201 221.774 165.25 221.915C165.298 222.055 165.374 222.183 165.471 222.29C165.568 222.397 165.684 222.481 165.813 222.536C165.941 222.59 166.079 222.615 166.217 222.608L174.198 222.235H174.298C174.47 222.22 174.629 222.131 174.741 221.988C174.853 221.846 174.91 221.661 174.898 221.474L174.569 216.205C174.569 216.098 174.53 215.995 174.461 215.919C174.391 215.844 174.297 215.801 174.198 215.801C174.1 215.801 174.005 215.844 173.936 215.919C173.866 215.995 173.827 216.098 173.827 216.205L173.556 220.697L167.273 220.401C167.273 218.847 167.373 213.066 167.387 211.216L181.095 211.511L180.638 227.053L159.991 227.582L160.448 204.269L189.676 203.74L189.819 236.379L156.836 237.311C156.73 237.332 156.635 237.392 156.566 237.481C156.497 237.571 156.459 237.684 156.459 237.801C156.459 237.917 156.497 238.03 156.566 238.12C156.635 238.209 156.73 238.27 156.836 238.29L191.218 239.285C191.401 239.3 191.584 239.274 191.757 239.208C191.93 239.142 192.088 239.038 192.222 238.902C192.356 238.766 192.463 238.602 192.536 238.419C192.609 238.236 192.646 238.039 192.646 237.84C192.646 237.84 192.803 202.093 192.789 202.093C192.791 201.875 192.753 201.659 192.678 201.458C192.602 201.256 192.491 201.073 192.351 200.918C192.21 200.763 192.042 200.641 191.858 200.557C191.673 200.473 191.475 200.43 191.275 200.43L158.435 199.839C158.162 199.833 157.891 199.887 157.638 199.998C157.385 200.109 157.155 200.275 156.963 200.486C156.77 200.697 156.619 200.948 156.519 201.224C156.419 201.5 156.371 201.796 156.379 202.093L156.921 229.229C156.935 229.654 157.093 230.057 157.365 230.362C157.636 230.666 158.003 230.85 158.392 230.877Z" fill="#D5D0C2"/>
<path d="M109.14 237.793C109.14 238.231 109.299 238.652 109.582 238.964C109.866 239.275 110.25 239.452 110.653 239.456L143.494 240.047C143.767 240.051 144.037 239.995 144.29 239.884C144.543 239.772 144.773 239.606 144.966 239.396C145.159 239.186 145.311 238.936 145.414 238.66C145.517 238.385 145.568 238.09 145.564 237.793L145.021 210.641C145.007 210.207 144.841 209.794 144.557 209.488C144.273 209.182 143.893 209.005 143.494 208.994L119.22 208.372C118.943 208.361 118.667 208.413 118.409 208.523C118.151 208.633 117.916 208.799 117.719 209.012C117.522 209.224 117.368 209.479 117.265 209.759C117.162 210.039 117.113 210.34 117.121 210.641L117.692 229.975C117.689 230.195 117.725 230.413 117.801 230.617C117.876 230.82 117.989 231.006 118.131 231.161C118.274 231.316 118.444 231.438 118.631 231.52C118.818 231.603 119.019 231.643 119.22 231.638L135.655 231.281C135.813 231.285 135.971 231.254 136.118 231.19C136.266 231.126 136.399 231.03 136.512 230.908C136.624 230.786 136.712 230.64 136.771 230.48C136.83 230.32 136.858 230.148 136.854 229.975L136.697 218.397C136.703 218.246 136.68 218.095 136.63 217.955C136.58 217.814 136.503 217.686 136.405 217.58C136.307 217.473 136.19 217.39 136.061 217.335C135.931 217.28 135.793 217.256 135.655 217.262L127.673 217.635H127.587C127.414 217.651 127.254 217.739 127.139 217.881C127.025 218.023 126.965 218.208 126.973 218.397L127.302 223.65C127.302 223.757 127.341 223.86 127.411 223.936C127.48 224.011 127.575 224.054 127.673 224.054C127.772 224.054 127.866 224.011 127.936 223.936C128.005 223.86 128.044 223.757 128.044 223.65L128.33 219.174L134.612 219.469L134.484 228.654L120.777 228.359L121.233 212.817L141.894 212.289L141.423 235.602L112.138 236.13L112.01 203.492L145.007 202.528C145.113 202.508 145.208 202.447 145.277 202.358C145.346 202.268 145.384 202.155 145.384 202.039C145.384 201.922 145.346 201.809 145.277 201.72C145.208 201.63 145.113 201.57 145.007 201.549L110.625 200.554C110.447 200.548 110.271 200.581 110.105 200.651C109.94 200.721 109.79 200.827 109.663 200.962C109.536 201.097 109.436 201.258 109.368 201.437C109.3 201.615 109.266 201.807 109.268 202C109.268 202 109.125 237.762 109.14 237.793Z" fill="#D5D0C2"/>
<path d="M63.4681 230.876L87.7414 231.498C88.0185 231.506 88.2944 231.453 88.5518 231.341C88.8093 231.229 89.043 231.061 89.2383 230.847C89.4337 230.633 89.5867 230.377 89.6878 230.096C89.7888 229.815 89.8359 229.515 89.826 229.213L89.2692 209.894C89.2711 209.675 89.2329 209.458 89.1568 209.255C89.0807 209.053 88.9682 208.869 88.8259 208.714C88.6837 208.559 88.5145 208.436 88.3283 208.354C88.1421 208.271 87.9425 208.229 87.7414 208.231L71.3069 208.589C71.1483 208.584 70.9906 208.615 70.8433 208.679C70.696 208.743 70.5623 208.839 70.4501 208.962C70.3379 209.084 70.2497 209.229 70.1908 209.39C70.132 209.55 70.1036 209.722 70.1075 209.894L70.2646 221.473C70.2585 221.624 70.2813 221.774 70.3316 221.915C70.3818 222.056 70.4583 222.183 70.5564 222.29C70.6544 222.397 70.7717 222.48 70.901 222.535C71.0302 222.589 71.1684 222.614 71.3069 222.608L79.2886 222.235H79.3742C79.5472 222.219 79.7077 222.13 79.8222 221.988C79.9367 221.846 79.9962 221.662 79.9882 221.473L79.6598 216.204C79.6598 216.097 79.6207 215.994 79.5511 215.919C79.4814 215.843 79.387 215.8 79.2886 215.8C79.1901 215.8 79.0957 215.843 79.026 215.919C78.9564 215.994 78.9173 216.097 78.9173 216.204L78.6317 220.696L72.3492 220.401L72.4777 211.215L86.185 211.511L85.7281 227.053L65.0672 227.581L65.5384 204.268L94.8235 203.74L94.952 236.378L61.9545 237.341C61.849 237.362 61.7535 237.422 61.6846 237.512C61.6158 237.601 61.5781 237.714 61.5781 237.831C61.5781 237.948 61.6158 238.061 61.6846 238.15C61.7535 238.24 61.849 238.3 61.9545 238.321L96.337 239.315C96.5143 239.322 96.6909 239.289 96.8562 239.219C97.0215 239.149 97.1721 239.043 97.2988 238.908C97.4256 238.773 97.5259 238.611 97.5937 238.433C97.6615 238.254 97.6955 238.063 97.6934 237.87C97.6934 237.87 97.8648 202.123 97.8505 202.123C97.8505 201.685 97.6915 201.264 97.4081 200.953C97.1246 200.641 96.7397 200.464 96.337 200.46L63.4966 199.87C63.2231 199.863 62.9513 199.917 62.6975 200.028C62.4436 200.139 62.2131 200.305 62.0196 200.516C61.8262 200.726 61.6739 200.977 61.5719 201.253C61.47 201.53 61.4204 201.826 61.4262 202.123L61.9688 229.26C61.9928 229.682 62.1589 230.081 62.4354 230.379C62.7119 230.677 63.0794 230.854 63.4681 230.876Z" fill="#D5D0C2"/>
<path d="M14.2246 237.792C14.2228 238.01 14.2605 238.226 14.3357 238.428C14.4109 238.629 14.5221 238.813 14.6629 238.967C14.8036 239.122 14.9711 239.245 15.1556 239.328C15.3402 239.412 15.5382 239.455 15.7381 239.455L48.5785 240.046C48.8514 240.052 49.1226 239.998 49.3756 239.887C49.6287 239.776 49.8584 239.61 50.0507 239.399C50.243 239.188 50.3939 238.937 50.4943 238.661C50.5947 238.385 50.6424 238.089 50.6346 237.792L50.092 210.64C50.0812 210.207 49.9183 209.795 49.6368 209.489C49.3552 209.182 48.9765 209.005 48.5785 208.993L24.3052 208.371C24.0293 208.363 23.7547 208.416 23.4982 208.527C23.2417 208.638 23.0087 208.804 22.8136 209.017C22.6184 209.229 22.4651 209.483 22.3632 209.762C22.2612 210.041 22.2127 210.34 22.2205 210.64L22.7917 229.975C22.7879 230.193 22.8243 230.41 22.8988 230.612C22.9733 230.815 23.0844 230.999 23.2256 231.154C23.3667 231.309 23.5349 231.432 23.7204 231.515C23.9058 231.598 24.1047 231.64 24.3052 231.638L40.7539 231.28C40.9113 231.282 41.0675 231.25 41.2131 231.185C41.3587 231.12 41.4908 231.024 41.6014 230.902C41.712 230.78 41.799 230.635 41.857 230.476C41.915 230.316 41.9429 230.146 41.939 229.975L41.782 218.396C41.7879 218.247 41.7655 218.097 41.7162 217.958C41.6668 217.818 41.5915 217.691 41.495 217.585C41.3986 217.478 41.283 217.395 41.1554 217.339C41.0279 217.283 40.8913 217.257 40.7539 217.261L32.7723 217.634H32.6724C32.5006 217.65 32.3414 217.739 32.2292 217.882C32.117 218.024 32.0608 218.209 32.0727 218.396L32.3868 223.649C32.4039 223.745 32.451 223.831 32.5201 223.893C32.5891 223.955 32.6757 223.988 32.7652 223.988C32.8546 223.988 32.9412 223.955 33.0103 223.893C33.0793 223.831 33.1264 223.745 33.1435 223.649L33.4148 219.173L39.7544 219.437C39.7544 220.991 39.6545 226.758 39.6259 228.623L25.9329 228.327L26.3898 212.785L47.0364 212.257C47.0364 214.977 46.6366 232.042 46.5795 235.57L17.2802 236.098C17.2802 233.176 17.166 206.025 17.1517 203.46L50.1491 202.496C50.2547 202.476 50.3502 202.416 50.4191 202.326C50.4879 202.237 50.5256 202.124 50.5256 202.007C50.5256 201.89 50.4879 201.777 50.4191 201.688C50.3502 201.598 50.2547 201.538 50.1491 201.517L15.781 200.523C15.5984 200.508 15.4149 200.534 15.2421 200.6C15.0692 200.666 14.9108 200.77 14.7767 200.906C14.6426 201.041 14.5358 201.206 14.4629 201.389C14.39 201.571 14.3526 201.769 14.3531 201.968C14.3531 201.968 14.2104 237.761 14.2246 237.792Z" fill="#D5D0C2"/>
</svg>
