<svg width="335" height="340" viewBox="0 0 335 340" fill="none" xmlns="http://www.w3.org/2000/svg">
<path d="M0.208984 0V339.859H334.232V0H0.208984ZM328.167 26.4802L324.936 23.2497L321.418 26.7684L324.936 30.2871L328.167 27.0567V30.7434L324.936 33.9739L317.731 26.7684L324.936 19.5629L328.167 22.7814V26.4802ZM326.762 26.7684L324.936 28.5818L323.123 26.7684L324.936 24.943L326.762 26.7684ZM328.167 20.2354L324.936 17.005L315.173 26.7564L324.936 36.5198L328.167 33.3014V38.1771L324.936 41.4076L310.285 26.7684L324.936 12.1173L328.167 15.3477V20.2354ZM6.32164 78.8881C7.54802 79.8966 8.71865 80.971 9.82833 82.1066C13.347 85.5893 17.0338 89.18 24.2393 89.18C31.4448 89.18 35.1556 85.5772 38.6503 82.1066C42.145 78.636 45.2914 75.5496 51.8604 75.5496C58.4294 75.5496 61.6118 78.732 65.0704 82.1066C68.5291 85.4812 72.2759 89.18 79.4814 89.18C86.6869 89.18 90.3857 85.5772 93.8924 82.1066C97.3991 78.636 100.533 75.5496 107.102 75.5496C113.671 75.5496 116.854 78.732 120.252 82.1066C123.651 85.4812 127.458 89.18 134.663 89.18C141.869 89.18 145.568 85.5772 149.074 82.1066C152.581 78.636 155.703 75.5496 162.284 75.5496C168.866 75.5496 172.036 78.732 175.495 82.1066C178.953 85.4812 182.7 89.18 189.906 89.18C197.111 89.18 200.822 85.5772 204.317 82.1066C207.811 78.636 210.946 75.5496 217.467 75.5496C223.988 75.5496 227.218 78.732 230.677 82.1066C234.135 85.4812 237.882 89.18 245.088 89.18C252.293 89.18 256.004 85.5772 259.499 82.1066C262.993 78.636 266.128 75.5496 272.709 75.5496C279.29 75.5496 282.46 78.732 285.919 82.1066C289.377 85.4812 293.124 89.18 300.33 89.18C307.535 89.18 311.246 85.5772 314.741 82.1066C318.235 78.636 321.382 75.5496 327.951 75.5496H328.431V81.5302H328.335C327.198 81.5893 326.127 82.0826 325.343 82.9083C324.56 83.734 324.123 84.8291 324.123 85.9675C324.123 87.106 324.56 88.2011 325.343 89.0267C326.127 89.8524 327.198 90.3458 328.335 90.4049H328.431V95.4248H6.58584L6.32164 78.8881ZM328.167 215.612L320.445 207.89L310.682 217.654L320.445 227.417L328.167 219.695V224.571L320.445 232.293L305.794 217.654L320.445 203.003L328.167 210.737V215.612ZM327.663 217.654L320.457 224.859L313.252 217.654L320.457 210.448L327.663 217.654ZM328.167 88.5675H328.071C327.402 88.5224 326.776 88.225 326.319 87.7356C325.861 87.2463 325.607 86.6014 325.607 85.9315C325.607 85.2616 325.861 84.6167 326.319 84.1274C326.776 83.638 327.402 83.3406 328.071 83.2955H328.167V88.5675ZM328.167 175.382C324.852 171.971 321.238 168.681 314.452 168.681C307.175 168.681 303.524 172.475 300.042 176.126C296.559 179.777 293.412 183.02 286.903 183.02C280.395 183.02 277.164 179.669 273.693 176.126C270.223 172.584 266.488 168.681 259.282 168.681C252.077 168.681 248.366 172.463 244.871 176.126C241.377 179.789 238.242 183.02 231.661 183.02C225.08 183.02 221.934 179.669 218.523 176.126C215.113 172.584 211.318 168.681 204.112 168.681C196.907 168.681 193.196 172.463 189.701 176.126C186.207 179.789 183.072 183.02 176.551 183.02C170.03 183.02 166.824 179.669 163.413 176.126C160.003 172.584 156.208 168.681 149.002 168.681C141.797 168.681 138.098 172.463 134.591 176.126C131.085 179.789 127.962 183.02 121.381 183.02C114.8 183.02 111.642 179.669 108.231 176.126C104.821 172.584 101.026 168.681 93.8203 168.681C86.6148 168.681 82.916 172.463 79.4094 176.126C75.9027 179.789 72.7803 183.02 66.2593 183.02C59.7384 183.02 56.5199 179.669 53.1093 176.126C49.6987 172.584 45.9038 168.681 38.6983 168.681C31.4928 168.681 27.782 172.463 24.2874 176.126C20.7927 179.789 17.6583 183.02 11.1373 183.02C9.54333 183.024 7.95862 182.777 6.44174 182.287V170.698C7.97272 171.11 9.55185 171.316 11.1373 171.311C18.4149 171.311 22.0536 167.708 25.5483 164.237C29.043 160.767 32.1894 157.68 38.7584 157.68C45.3274 157.68 48.5098 160.863 51.9684 164.237C55.4271 167.612 59.1739 171.311 66.3794 171.311C73.5849 171.311 77.2957 167.708 80.7904 164.237C84.2851 160.767 87.4195 157.68 94.0005 157.68C100.581 157.68 103.752 160.863 107.211 164.237C110.669 167.612 114.416 171.311 121.622 171.311C128.827 171.311 132.538 167.708 136.033 164.237C139.527 160.767 142.662 157.68 149.183 157.68C155.704 157.68 158.946 160.863 162.393 164.237C165.839 167.612 169.598 171.311 176.804 171.311C184.009 171.311 187.72 167.708 191.215 164.237C194.709 160.767 197.856 157.68 204.425 157.68C210.994 157.68 214.176 160.863 217.635 164.237C221.093 167.612 224.84 171.311 232.046 171.311C239.251 171.311 242.962 167.708 246.457 164.237C249.951 160.767 253.098 157.68 259.667 157.68C266.236 157.68 269.418 160.863 272.877 164.237C276.335 167.612 280.082 171.311 287.288 171.311C294.493 171.311 298.192 167.708 301.699 164.237C305.205 160.767 308.328 157.68 314.909 157.68C321.49 157.68 324.66 160.863 328.059 164.225L328.623 164.778L328.167 175.382ZM328.167 162.256C324.852 159.013 321.238 155.879 314.452 155.879C307.187 155.879 303.548 159.482 300.042 162.964C296.535 166.447 293.412 169.509 286.891 169.509C280.37 169.509 277.14 166.327 273.681 162.952C270.223 159.578 266.476 155.879 259.27 155.879C252.065 155.879 248.366 159.482 244.859 162.952C241.353 166.423 238.218 169.509 231.649 169.509C225.08 169.509 221.91 166.327 218.499 162.952C215.089 159.578 211.294 155.879 204.088 155.879C196.883 155.879 193.184 159.482 189.677 162.952C186.171 166.423 183.036 169.509 176.467 169.509C169.898 169.509 166.728 166.327 163.257 162.964C159.787 159.602 156.052 155.879 148.846 155.879C141.641 155.879 137.954 159.482 134.435 162.952C130.917 166.423 127.794 169.509 121.225 169.509C114.656 169.509 111.474 166.327 108.015 162.952C104.557 159.578 100.81 155.879 93.6042 155.879C86.3987 155.879 82.7119 159.482 79.1932 162.952C75.6745 166.423 72.5521 169.509 65.9831 169.509C59.4141 169.509 56.2317 166.327 52.7731 162.952C49.3144 159.578 45.5676 155.879 38.3621 155.879C31.1566 155.879 27.4578 159.482 23.9511 162.952C20.4444 166.423 17.31 169.509 10.741 169.509C9.14981 169.513 7.56697 169.278 6.04545 168.813V160.106C6.28625 161.172 6.91167 162.113 7.80215 162.747C8.69262 163.381 9.78563 163.664 10.8721 163.543C11.9586 163.422 12.9623 162.905 13.6912 162.09C14.4201 161.275 14.8231 160.22 14.8231 159.127C14.8231 158.034 14.4201 156.979 13.6912 156.165C12.9623 155.35 11.9586 154.832 10.8721 154.711C9.78563 154.59 8.69262 154.874 7.80215 155.508C6.91167 156.142 6.28625 157.082 6.04545 158.149V149.094H327.891L328.167 162.256ZM7.9549 159.121C7.95491 158.598 8.11015 158.087 8.40099 157.652C8.69184 157.217 9.10518 156.879 9.58864 156.679C10.0721 156.48 10.6039 156.428 11.1168 156.531C11.6296 156.634 12.1003 156.887 12.4693 157.257C12.8383 157.628 13.089 158.1 13.1896 158.613C13.2902 159.127 13.2362 159.658 13.0343 160.141C12.8325 160.623 12.492 161.035 12.056 161.324C11.6199 161.613 11.108 161.766 10.5849 161.763C10.2385 161.763 9.89554 161.695 9.57567 161.562C9.2558 161.429 8.96532 161.234 8.72094 160.989C8.47656 160.743 8.2831 160.452 8.15163 160.131C8.02017 159.811 7.95332 159.468 7.9549 159.121ZM10.9692 184.821C18.2587 184.821 21.8975 181.038 25.3802 177.375C28.8628 173.712 32.0212 170.482 38.5302 170.482C45.0392 170.482 48.2696 173.832 51.7403 177.375C55.2109 180.918 58.9458 184.821 66.1512 184.821C73.3567 184.821 77.0796 181.038 80.5622 177.375C84.0449 173.712 87.1913 170.482 93.7002 170.482C100.209 170.482 103.44 173.832 106.85 177.375C110.261 180.918 114.056 184.821 121.261 184.821C128.467 184.821 132.19 181.038 135.672 177.375C139.155 173.712 142.301 170.482 148.81 170.482C155.319 170.482 158.55 173.832 162.02 177.375C165.491 180.918 169.226 184.821 176.431 184.821C183.637 184.821 187.36 181.038 190.842 177.375C194.325 173.712 197.483 170.482 204.052 170.482C210.621 170.482 213.78 173.832 217.19 177.375C220.601 180.918 224.396 184.821 231.601 184.821C238.807 184.821 242.53 181.038 246.012 177.375C249.495 173.712 252.653 170.482 259.222 170.482C265.791 170.482 268.95 173.832 272.36 177.375C275.771 180.918 279.566 184.821 286.771 184.821C293.977 184.821 297.688 181.038 301.182 177.375C304.677 173.712 307.823 170.482 314.392 170.482C320.961 170.482 324.108 173.82 327.518 177.351L328.107 177.964V190.813H6.26161V184.208C7.79584 184.623 9.37987 184.826 10.9692 184.809V184.821ZM6.27363 252.769C6.74615 253.254 7.00922 253.905 7.00617 254.582C7.0098 255.263 6.74688 255.918 6.27363 256.407V252.769ZM8.80754 254.582C8.80566 253.746 8.56656 252.927 8.11803 252.222C7.66949 251.516 7.02994 250.952 6.27363 250.595V244.482H328.119V263.012C326.103 261.722 324.255 260.185 322.619 258.437C319.1 254.954 315.413 251.352 308.208 251.352C301.002 251.352 297.315 254.954 293.797 258.425C290.278 261.896 287.156 264.982 280.587 264.982C274.018 264.982 270.847 261.8 267.437 258.437C264.026 255.074 260.231 251.352 253.026 251.352C245.82 251.352 242.121 254.954 238.615 258.437C235.108 261.92 231.986 264.982 225.465 264.982C218.944 264.982 215.713 261.8 212.255 258.425C208.796 255.05 205.049 251.352 197.844 251.352C190.638 251.352 186.939 254.954 183.433 258.437C179.926 261.92 176.792 264.982 170.223 264.982C163.654 264.982 160.471 261.8 157.012 258.425C153.554 255.05 149.807 251.352 142.602 251.352C135.396 251.352 131.697 254.954 128.191 258.425C124.684 261.896 121.549 264.982 114.98 264.982C108.411 264.982 105.241 261.8 101.83 258.437C98.4198 255.074 94.6249 251.352 87.4194 251.352C80.214 251.352 76.5151 254.954 73.0085 258.425C69.5018 261.896 66.3674 264.982 59.7984 264.982C53.2294 264.982 50.059 261.8 46.6484 258.437C43.2378 255.074 39.4429 251.352 32.2374 251.352C25.0319 251.352 21.3331 254.954 17.8264 258.425C14.68 261.535 11.7017 264.43 6.16551 264.922V258.581C6.94209 258.237 7.60371 257.677 8.07196 256.968C8.54021 256.26 8.7955 255.431 8.80754 254.582ZM6.27363 266.723C12.5544 266.267 15.8809 262.94 19.1955 259.71C22.51 256.479 25.8365 253.153 32.4055 253.153C38.9745 253.153 42.1569 256.335 45.6156 259.71C49.0742 263.085 52.8211 266.783 60.0266 266.783C67.2321 266.783 70.9429 263.181 74.4376 259.71C77.9322 256.239 81.0786 253.153 87.6476 253.153C94.2166 253.153 97.4111 256.335 100.858 259.71C104.304 263.085 108.063 266.783 115.269 266.783C122.474 266.783 126.185 263.181 129.68 259.71C133.174 256.239 136.321 253.153 142.89 253.153C149.459 253.153 152.641 256.335 156.1 259.71C159.558 263.085 163.305 266.783 170.511 266.783C177.716 266.783 181.415 263.181 184.922 259.71C188.428 256.239 191.563 253.153 198.132 253.153C204.701 253.153 207.883 256.335 211.342 259.71C214.801 263.085 218.547 266.783 225.753 266.783C232.958 266.783 236.657 263.181 240.164 259.71C243.671 256.239 246.793 253.153 253.374 253.153C259.955 253.153 263.137 256.335 266.584 259.71C270.031 263.085 273.79 266.783 280.995 266.783C288.201 266.783 291.911 263.181 295.406 259.71C298.901 256.239 302.035 253.153 308.556 253.153C315.077 253.153 318.319 256.335 321.766 259.71C323.721 261.843 326.003 263.651 328.527 265.066V276.403C326.508 275.037 324.668 273.423 323.051 271.599C319.532 267.996 315.846 264.141 308.64 264.141C301.435 264.141 297.724 267.924 294.229 271.587C290.734 275.25 287.6 278.48 281.019 278.48C274.438 278.48 271.292 275.142 267.881 271.587C264.47 268.032 260.675 264.141 253.47 264.141C246.264 264.141 242.542 267.936 239.059 271.587C235.576 275.238 231.986 278.48 225.501 278.48C219.016 278.48 215.761 275.13 212.291 271.587C208.82 268.044 205.085 264.141 197.88 264.141C190.674 264.141 186.951 267.936 183.469 271.587C179.986 275.238 176.816 278.48 170.259 278.48C163.702 278.48 160.519 275.13 157.109 271.587C153.698 268.044 149.903 264.141 142.698 264.141C135.492 264.141 131.781 267.924 128.287 271.587C124.792 275.25 121.658 278.48 115.077 278.48C108.495 278.48 105.349 275.142 101.938 271.587C98.5279 268.032 94.733 264.141 87.5275 264.141C80.322 264.141 76.6112 267.924 73.1165 271.587C69.6219 275.25 66.4635 278.48 59.9425 278.48C53.4216 278.48 50.2151 275.142 46.8045 271.587C43.3939 268.032 39.599 264.141 32.3935 264.141C25.188 264.141 21.4772 267.924 17.9826 271.587C14.8482 274.853 11.8699 277.94 6.34568 278.408L6.27363 266.723ZM328.119 238.478H6.27363V219.263L22.474 235.475L40.3436 217.606L22.474 199.736L6.27363 216.033V196.818H328.119V207.542L320.397 199.808L302.527 217.678L320.397 235.536L328.119 227.814V238.478ZM7.8348 217.654L22.474 203.015L37.1251 217.654L22.474 232.293L7.8348 217.654ZM328.167 60.262H327.687C320.409 60.262 316.77 64.0568 313.276 67.7196C309.781 71.3824 306.647 74.6129 300.126 74.6129C293.605 74.6129 290.386 71.2623 286.915 67.7196C283.445 64.1769 279.71 60.262 272.505 60.262C265.299 60.262 261.588 64.0568 258.094 67.7196C254.599 71.3824 251.464 74.6129 244.883 74.6129C238.302 74.6129 235.144 71.2623 231.733 67.7196C228.323 64.1769 224.528 60.262 217.322 60.262C210.117 60.262 206.406 64.0568 202.911 67.7196C199.417 71.3824 196.282 74.6129 189.761 74.6129C183.24 74.6129 180.022 71.2623 176.551 67.7196C173.081 64.1769 169.346 60.262 162.14 60.262C154.935 60.262 151.212 64.0568 147.729 67.7196C144.247 71.3824 141.1 74.6129 134.591 74.6129C128.082 74.6129 124.852 71.2623 121.441 67.7196C118.031 64.1769 114.236 60.262 107.03 60.262C99.8249 60.262 96.1141 64.0568 92.6194 67.7196C89.1248 71.3824 85.9904 74.6129 79.4814 74.6129C72.9725 74.6129 69.742 71.2623 66.3314 67.7196C62.9208 64.1769 59.1259 60.262 51.9204 60.262C44.7149 60.262 41.0041 64.0568 37.5094 67.7196C34.0147 71.3824 30.8804 74.6129 24.3594 74.6129C17.8384 74.6129 14.632 71.2623 11.2214 67.7196C9.75784 66.1072 8.14992 64.6319 6.41773 63.3123V53.7049H328.263L328.167 60.262ZM9.76826 68.9445C13.2869 72.6073 16.9738 76.3902 24.1792 76.3902C31.3847 76.3902 35.1076 72.6073 38.5902 68.9445C42.0729 65.2818 45.2313 62.0393 51.7403 62.0393C58.2492 62.0393 61.4677 65.3898 64.8783 68.9445C68.2889 72.4993 72.0838 76.3902 79.2893 76.3902C86.4948 76.3902 90.2056 72.6073 93.7002 68.9445C97.1949 65.2818 100.341 62.0393 106.85 62.0393C113.359 62.0393 116.578 65.3899 119.988 68.9326C123.399 72.4753 127.194 76.3902 134.399 76.3902C141.605 76.3902 145.316 72.6073 148.81 68.9445C152.305 65.2818 155.451 62.0393 161.96 62.0393C168.469 62.0393 171.688 65.3898 175.098 68.9445C178.509 72.4993 182.304 76.3902 189.509 76.3902C196.715 76.3902 200.438 72.6074 203.92 68.9326C207.403 65.2578 210.549 62.0393 217.058 62.0393C223.567 62.0393 226.798 65.3898 230.268 68.9445C233.739 72.4993 237.474 76.3902 244.679 76.3902C251.885 76.3902 255.608 72.6074 259.09 68.9326C262.573 65.2578 265.719 62.0393 272.228 62.0393C278.737 62.0393 281.968 65.3898 285.438 68.9445C288.909 72.4993 292.644 76.3902 299.849 76.3902C307.055 76.3902 310.778 72.6073 314.26 68.9445C317.743 65.2818 320.901 62.0393 327.47 62.0393H327.951V73.7482H327.47C320.205 73.7482 316.566 77.351 313.059 80.8216C309.553 84.2923 306.418 87.3786 299.849 87.3786C293.28 87.3786 290.098 84.1962 286.639 80.8216C283.181 77.447 279.434 73.7482 272.228 73.7482C265.023 73.7482 261.336 77.351 257.817 80.8216C254.299 84.2923 251.176 87.3786 244.607 87.3786C238.038 87.3786 234.856 84.1962 231.397 80.8216C227.939 77.447 224.192 73.7482 216.986 73.7482C209.781 73.7482 206.094 77.351 202.575 80.8216C199.057 84.2923 195.934 87.3786 189.365 87.3786C182.796 87.3786 179.614 84.1962 176.155 80.8216C172.696 77.447 168.95 73.7482 161.744 73.7482C154.539 73.7482 150.84 77.351 147.333 80.8336C143.826 84.3163 140.704 87.3786 134.123 87.3786C127.542 87.3786 124.372 84.1962 120.913 80.8216C117.454 77.447 113.707 73.7482 106.502 73.7482C99.2965 73.7482 95.5977 77.351 92.091 80.8336C88.5844 84.3163 85.45 87.3786 78.881 87.3786C72.3119 87.3786 69.1295 84.1962 65.6709 80.8216C62.2122 77.447 58.4654 73.7482 51.2599 73.7482C44.0544 73.7482 40.3556 77.351 36.8489 80.8216C33.3422 84.2923 30.2079 87.3786 23.6389 87.3786C17.0698 87.3786 13.8994 84.1962 10.4888 80.8336C9.01219 79.3035 7.40488 77.9051 5.68515 76.6544V65.558C7.11 66.6076 8.47328 67.7383 9.76826 68.9445ZM6.27363 122.83L15.4726 132.029L25.2361 122.277L15.4726 112.514L6.27363 121.725V116.849L15.4726 107.626L30.1238 122.277L15.4726 136.916L6.27363 127.705V122.83ZM8.26712 122.277L15.4726 115.072L22.6781 122.277L15.4726 129.483L8.26712 122.277ZM15.4726 140.135L33.3543 122.277L15.4846 104.408L6.28561 113.631V101.405H328.131V119.131L313.408 104.408L295.55 122.277L313.408 140.135L328.131 125.424V143.089H6.28561V130.936L15.4726 140.135ZM328.095 122.277L313.444 136.916L298.757 122.277L313.396 107.626L328.095 122.277ZM6.24959 280.222C12.5424 279.741 15.917 276.235 19.1835 272.836C22.45 269.437 25.8245 265.943 32.3335 265.943C38.8424 265.943 42.0729 269.293 45.4835 272.836C48.8941 276.379 52.689 280.282 59.8945 280.282C67.1 280.282 70.8228 276.499 74.3055 272.836C77.7881 269.173 80.9465 265.943 87.4555 265.943C93.9644 265.943 97.1949 269.293 100.606 272.836C104.016 276.379 107.811 280.282 115.016 280.282C122.222 280.282 125.945 276.499 129.427 272.836C132.91 269.173 136.069 265.943 142.577 265.943C149.086 265.943 152.305 269.293 155.716 272.836C159.126 276.379 162.921 280.282 170.127 280.282C177.332 280.282 181.043 276.499 184.537 272.836C188.032 269.173 191.179 265.943 197.748 265.943C204.317 265.943 207.475 269.293 210.886 272.836C214.296 276.379 218.091 280.282 225.297 280.282C232.502 280.282 236.213 276.499 239.708 272.836C243.202 269.173 246.349 265.943 252.918 265.943C259.487 265.943 262.657 269.293 266.068 272.836C269.478 276.379 273.273 280.282 280.479 280.282C287.684 280.282 291.407 276.499 294.89 272.836C298.372 269.173 301.519 265.943 308.028 265.943C314.536 265.943 317.779 269.293 321.238 272.848C323.175 275.081 325.462 276.983 328.011 278.48V286.166H6.16551L6.24959 280.222ZM328.095 314.904L322.619 320.38L315.413 313.175L322.619 305.969L328.095 311.445V314.904ZM328.095 308.899L322.619 303.423L312.867 313.187L322.619 322.95L328.095 317.474V322.35L322.619 327.826L307.967 313.187L322.619 298.536L328.095 304.024V308.899ZM328.095 6.07666V12.1533L324.864 8.92283L307.067 26.7684L324.936 44.626L328.167 41.4076V47.7124H6.32164V6.05262L328.095 6.07666ZM6.24959 333.854V292.171H328.095V300.769L322.691 295.293L304.821 313.163L322.691 331.02L328.167 325.556V333.83L6.24959 333.854Z" fill="#D5D0C2"/>
<path d="M44.8366 26.7681L26.967 8.89844L9.10938 26.7681L26.967 44.6257L44.8366 26.7681ZM26.967 12.1169L41.6182 26.7681L26.967 41.4072L12.3278 26.7681L26.967 12.1169Z" fill="#D5D0C2"/>
<path d="M36.7336 26.7683L26.9702 17.0049L17.2188 26.7683L26.9702 36.5198L36.7336 26.7683ZM26.9702 19.5628L34.1757 26.7683L26.9702 33.9738L19.7647 26.7683L26.9702 19.5628Z" fill="#D5D0C2"/>
<path d="M30.4882 26.7677L26.9695 23.249L23.4629 26.7677L26.9695 30.2864L30.4882 26.7677ZM26.9695 24.9423L28.795 26.7677L26.9695 28.5811L25.1562 26.7677L26.9695 24.9423Z" fill="#D5D0C2"/>
<path d="M82.3542 26.7681L64.4846 8.89844L46.627 26.7681L64.4846 44.6257L82.3542 26.7681ZM64.4846 12.1169L79.1357 26.7681L64.4846 41.4072L49.8454 26.7681L64.4846 12.1169Z" fill="#D5D0C2"/>
<path d="M74.2463 26.7683L64.4829 17.0049L54.7314 26.7683L64.4829 36.5198L74.2463 26.7683ZM64.4829 19.5628L71.6884 26.7683L64.4829 33.9738L57.2774 26.7683L64.4829 19.5628Z" fill="#D5D0C2"/>
<path d="M68.0058 26.7677L64.4872 23.249L60.9805 26.7677L64.4872 30.2864L68.0058 26.7677ZM64.4872 24.9423L66.3125 26.7677L64.4872 28.5811L62.6738 26.7677L64.4872 24.9423Z" fill="#D5D0C2"/>
<path d="M119.558 26.7681L101.701 8.89844L83.7949 26.7681L101.665 44.6257L119.558 26.7681ZM101.701 12.1169L116.34 26.7681L101.701 41.4072L87.0494 26.7681L101.701 12.1169Z" fill="#D5D0C2"/>
<path d="M111.413 26.7683L101.662 17.0049L91.8984 26.7683L101.662 36.5198L111.413 26.7683ZM101.662 19.5628L108.867 26.7683L101.662 33.9738L94.4564 26.7683L101.662 19.5628Z" fill="#D5D0C2"/>
<path d="M105.206 26.7677L101.7 23.249L98.2051 26.7677L101.724 30.2864L105.206 26.7677ZM101.7 24.9423L103.513 26.7677L101.7 28.5811L99.8744 26.7677L101.7 24.9423Z" fill="#D5D0C2"/>
<path d="M156.764 26.7681L138.906 8.89844L121.024 26.7681L138.894 44.6257L156.764 26.7681ZM138.906 12.1169L153.545 26.7681L138.906 41.4072L124.267 26.7681L138.906 12.1169Z" fill="#D5D0C2"/>
<path d="M148.645 26.7683L138.882 17.0049L129.118 26.7683L138.882 36.5198L148.645 26.7683ZM138.882 19.5628L146.087 26.7683L138.882 33.9738L131.676 26.7683L138.882 19.5628Z" fill="#D5D0C2"/>
<path d="M142.425 26.7677L138.906 23.249L135.436 26.7677L138.954 30.2864L142.425 26.7677ZM138.906 24.9423L140.72 26.7677L138.906 28.5811L137.093 26.7677L138.906 24.9423Z" fill="#D5D0C2"/>
<path d="M193.982 26.7681L176.112 8.89844L158.255 26.7681L176.112 44.6257L193.982 26.7681ZM176.112 12.1169L190.764 26.7681L176.112 41.4072L161.473 26.7681L176.112 12.1169Z" fill="#D5D0C2"/>
<path d="M185.868 26.7683L176.105 17.0049L166.354 26.7683L176.105 36.5198L185.868 26.7683ZM176.105 19.5628L183.31 26.7683L176.105 33.9738L168.899 26.7683L176.105 19.5628Z" fill="#D5D0C2"/>
<path d="M179.635 26.7677L176.116 23.249L172.598 26.7677L176.116 30.2864L179.635 26.7677ZM176.116 24.9423L177.942 26.7677L176.116 28.5811L174.303 26.7677L176.116 24.9423Z" fill="#D5D0C2"/>
<path d="M231.183 26.7681L213.313 8.89844L195.479 26.7681L213.337 44.6257L231.183 26.7681ZM213.313 12.1169L227.964 26.7681L213.313 41.4072L198.674 26.7681L213.313 12.1169Z" fill="#D5D0C2"/>
<path d="M223.103 26.7683L213.339 17.0049L203.588 26.7683L213.339 36.5198L223.103 26.7683ZM213.339 19.5628L220.545 26.7683L213.339 33.9738L206.134 26.7683L213.339 19.5628Z" fill="#D5D0C2"/>
<path d="M216.832 26.7677L213.313 23.249L209.807 26.7677L213.313 30.2864L216.832 26.7677ZM213.313 24.9423L215.139 26.7677L213.313 28.5811L211.5 26.7677L213.313 24.9423Z" fill="#D5D0C2"/>
<path d="M268.388 26.7681L250.531 8.89844L232.709 26.7681L250.579 44.6257L268.388 26.7681ZM250.531 12.1169L265.134 26.7681L250.495 41.4072L235.843 26.7681L250.531 12.1169Z" fill="#D5D0C2"/>
<path d="M260.328 26.7683L250.577 17.0049L240.813 26.7683L250.577 36.5198L260.328 26.7683ZM250.577 19.5628L257.782 26.7683L250.577 33.9738L243.371 26.7683L250.577 19.5628Z" fill="#D5D0C2"/>
<path d="M254.036 26.7677L250.529 23.249L247.011 26.7677L250.529 30.2864L254.036 26.7677ZM250.529 24.9423L252.343 26.7677L250.529 28.5811L248.704 26.7677L250.529 24.9423Z" fill="#D5D0C2"/>
<path d="M305.605 26.7681L287.736 8.89844L269.866 26.7681L287.736 44.6257L305.605 26.7681ZM287.736 12.1169L302.363 26.7681L287.724 41.4072L273.073 26.7681L287.736 12.1169Z" fill="#D5D0C2"/>
<path d="M297.554 26.7683L287.791 17.0049L278.027 26.7683L287.791 36.5198L297.554 26.7683ZM287.791 19.5628L294.996 26.7683L287.791 33.9738L280.585 26.7683L287.791 19.5628Z" fill="#D5D0C2"/>
<path d="M291.257 26.7677L287.738 23.249L284.22 26.7677L287.738 30.2864L291.257 26.7677ZM287.738 24.9423L289.552 26.7677L287.738 28.5811L285.925 26.7677L287.738 24.9423Z" fill="#D5D0C2"/>
<path d="M18.9519 122.277L15.4813 118.759L11.9746 122.277L15.4813 125.796L18.9519 122.277ZM15.4333 120.452L17.2586 122.277L15.4333 124.091L13.6199 122.277L15.4333 120.452Z" fill="#D5D0C2"/>
<path d="M70.861 122.277L52.9914 104.407L35.1338 122.277L52.9914 140.134L70.861 122.277ZM52.9914 107.626L67.6425 122.277L52.9914 136.916L38.3522 122.277L52.9914 107.626Z" fill="#D5D0C2"/>
<path d="M62.7532 122.277L52.9897 112.514L43.2383 122.277L52.9897 132.029L62.7532 122.277ZM52.9897 115.072L60.1952 122.277L52.9897 129.483L45.7842 122.277L52.9897 115.072Z" fill="#D5D0C2"/>
<path d="M56.5078 122.277L52.9891 118.759L49.4824 122.277L52.9891 125.796L56.5078 122.277ZM52.9891 120.452L54.8145 122.277L52.9891 124.091L51.1757 122.277L52.9891 120.452Z" fill="#D5D0C2"/>
<path d="M108.065 122.277L90.2075 104.407L72.3379 122.277L90.2075 140.134L108.065 122.277ZM90.2075 107.626L104.847 122.277L90.2075 136.916L75.5564 122.277L90.2075 107.626Z" fill="#D5D0C2"/>
<path d="M99.9563 122.277L90.2049 112.514L80.4414 122.277L90.2049 132.029L99.9563 122.277ZM90.2049 115.072L97.4103 122.277L90.2049 129.483L82.9994 122.277L90.2049 115.072Z" fill="#D5D0C2"/>
<path d="M93.7119 122.277L90.2052 118.759L86.6865 122.277L90.2052 125.796L93.7119 122.277ZM90.2052 120.452L92.0186 122.277L90.2052 124.091L88.3798 122.277L90.2052 120.452Z" fill="#D5D0C2"/>
<path d="M145.286 122.277L127.417 104.407L109.547 122.277L127.417 140.134L145.286 122.277ZM127.417 107.626L142.056 122.277L127.417 136.916L112.765 122.277L127.417 107.626Z" fill="#D5D0C2"/>
<path d="M137.172 122.277L127.409 112.514L117.646 122.277L127.409 132.029L137.172 122.277ZM127.409 115.072L134.614 122.277L127.409 129.483L120.203 122.277L127.409 115.072Z" fill="#D5D0C2"/>
<path d="M130.933 122.277L127.414 118.759L123.896 122.277L127.414 125.796L130.933 122.277ZM127.414 120.452L129.228 122.277L127.414 124.091L125.601 122.277L127.414 120.452Z" fill="#D5D0C2"/>
<path d="M182.483 122.277L164.613 104.407L146.756 122.277L164.613 140.134L182.483 122.277ZM164.613 107.626L179.265 122.277L164.613 136.916L149.974 122.277L164.613 107.626Z" fill="#D5D0C2"/>
<path d="M174.387 122.277L164.624 112.514L154.86 122.277L164.624 132.029L174.387 122.277ZM164.624 115.072L171.829 122.277L164.624 129.483L157.418 122.277L164.624 115.072Z" fill="#D5D0C2"/>
<path d="M168.131 122.277L164.612 118.759L161.094 122.277L164.612 125.796L168.131 122.277ZM164.612 120.452L166.438 122.277L164.612 124.091L162.799 122.277L164.612 120.452Z" fill="#D5D0C2"/>
<path d="M219.687 122.277L201.818 104.407L183.96 122.277L201.818 140.134L219.687 122.277ZM201.818 107.626L216.469 122.277L201.818 136.916L187.178 122.277L201.818 107.626Z" fill="#D5D0C2"/>
<path d="M211.584 122.277L201.821 112.514L192.069 122.277L201.821 132.029L211.584 122.277ZM201.821 115.072L209.026 122.277L201.821 129.483L194.615 122.277L201.821 115.072Z" fill="#D5D0C2"/>
<path d="M205.339 122.277L201.82 118.759L198.313 122.277L201.82 125.796L205.339 122.277ZM201.82 120.452L203.646 122.277L201.82 124.091L200.007 122.277L201.82 120.452Z" fill="#D5D0C2"/>
<path d="M256.896 122.277L239.039 104.407L221.169 122.277L239.039 140.134L256.896 122.277ZM239.039 107.626L253.678 122.277L239.039 136.916L224.387 122.277L239.039 107.626Z" fill="#D5D0C2"/>
<path d="M248.787 122.277L239.036 112.514L229.272 122.277L239.036 132.029L248.787 122.277ZM239.036 115.072L246.241 122.277L239.036 129.483L231.83 122.277L239.036 115.072Z" fill="#D5D0C2"/>
<path d="M242.554 122.277L239.035 118.759L235.517 122.277L239.035 125.796L242.554 122.277ZM239.035 120.452L240.849 122.277L239.035 124.091L237.21 122.277L239.035 120.452Z" fill="#D5D0C2"/>
<path d="M294.106 122.277L276.237 104.407L258.367 122.277L276.237 140.134L294.106 122.277ZM276.237 107.626L290.876 122.277L276.237 136.916L261.598 122.277L276.237 107.626Z" fill="#D5D0C2"/>
<path d="M286.008 122.277L276.245 112.514L266.481 122.277L276.245 132.029L286.008 122.277ZM276.245 115.072L283.45 122.277L276.245 129.483L269.039 122.277L276.245 115.072Z" fill="#D5D0C2"/>
<path d="M279.758 122.277L276.239 118.759L272.721 122.277L276.239 125.796L279.758 122.277ZM276.239 120.452L278.053 122.277L276.239 124.091L274.426 122.277L276.239 120.452Z" fill="#D5D0C2"/>
<path d="M303.69 122.277L313.442 132.029L323.205 122.277L313.442 112.514L303.69 122.277ZM313.442 129.483L306.236 122.277L313.442 115.072L320.647 122.277L313.442 129.483Z" fill="#D5D0C2"/>
<path d="M309.925 122.277L313.443 125.796L316.962 122.277L313.443 118.759L309.925 122.277ZM313.443 124.091L311.63 122.277L313.443 120.452L315.269 122.277L313.443 124.091Z" fill="#D5D0C2"/>
<path d="M319.176 313.163L322.682 316.681L326.201 313.163L322.694 309.704L319.176 313.163ZM322.682 314.976L320.869 313.163L322.682 311.349L324.508 313.163L322.682 314.976Z" fill="#D5D0C2"/>
<path d="M267.314 313.163L285.172 331.032L303.042 313.163L285.172 295.293L267.314 313.163ZM285.172 327.802L270.533 313.163L285.172 298.523L299.823 313.163L285.172 327.802Z" fill="#D5D0C2"/>
<path d="M275.424 313.163L285.175 322.926L294.939 313.163L285.175 303.399L275.424 313.163ZM285.175 320.368L277.97 313.163L285.175 305.957L292.381 313.163L285.175 320.368Z" fill="#D5D0C2"/>
<path d="M281.668 313.163L285.175 316.681L288.693 313.163L285.175 309.704L281.668 313.163ZM285.175 314.976L283.361 313.163L285.175 311.349L287 313.163L285.175 314.976Z" fill="#D5D0C2"/>
<path d="M230.105 313.163L247.975 331.032L265.845 313.163L247.975 295.293L230.105 313.163ZM247.975 327.802L233.336 313.163L247.975 298.523L262.626 313.163L247.975 327.802Z" fill="#D5D0C2"/>
<path d="M238.21 313.163L247.973 322.926L257.737 313.163L247.973 303.399L238.21 313.163ZM247.973 320.368L240.768 313.163L247.973 305.957L255.179 313.163L247.973 320.368Z" fill="#D5D0C2"/>
<path d="M244.454 313.163L247.973 316.681L251.491 313.163L247.973 309.704L244.454 313.163ZM247.973 314.976L246.159 313.163L247.973 311.349L249.786 313.163L247.973 314.976Z" fill="#D5D0C2"/>
<path d="M192.902 313.163L210.772 331.032L228.63 313.163L210.772 295.293L192.902 313.163ZM210.772 327.802L196.121 313.163L210.772 298.523L225.411 313.163L210.772 327.802Z" fill="#D5D0C2"/>
<path d="M201.001 313.163L210.764 322.926L220.528 313.163L210.764 303.399L201.001 313.163ZM210.764 320.368L203.559 313.163L210.764 305.957L217.97 313.163L210.764 320.368Z" fill="#D5D0C2"/>
<path d="M207.25 313.163L210.769 316.681L214.287 313.163L210.769 309.704L207.25 313.163ZM210.769 314.976L208.943 313.163L210.769 311.349L212.582 313.163L210.769 314.976Z" fill="#D5D0C2"/>
<path d="M155.692 313.163L173.562 331.032L191.42 313.163L173.562 295.293L155.692 313.163ZM173.562 327.802L158.911 313.163L173.562 298.523L188.201 313.163L173.562 327.802Z" fill="#D5D0C2"/>
<path d="M163.802 313.163L173.565 322.926L183.317 313.163L173.565 303.399L163.802 313.163ZM173.565 320.368L166.36 313.163L173.565 305.957L180.771 313.163L173.565 320.368Z" fill="#D5D0C2"/>
<path d="M170.046 313.163L173.565 316.681L177.071 313.163L173.565 309.704L170.046 313.163ZM173.565 314.976L171.739 313.163L173.565 311.349L175.378 313.163L173.565 314.976Z" fill="#D5D0C2"/>
<path d="M118.489 313.163L136.347 331.032L154.216 313.163L136.347 295.293L118.489 313.163ZM136.347 327.802L121.708 313.163L136.347 298.523L151.046 313.163L136.347 327.802Z" fill="#D5D0C2"/>
<path d="M126.593 313.163L136.344 322.926L146.108 313.163L136.344 303.399L126.593 313.163ZM136.344 320.368L129.139 313.163L136.344 305.957L143.55 313.163L136.344 320.368Z" fill="#D5D0C2"/>
<path d="M132.832 313.163L136.351 316.681L139.869 313.163L136.351 309.704L132.832 313.163ZM136.351 314.976L134.537 313.163L136.351 311.349L138.176 313.163L136.351 314.976Z" fill="#D5D0C2"/>
<path d="M81.2695 313.163L99.1392 331.032L117.009 313.163L99.1392 295.293L81.2695 313.163ZM99.1392 327.802L84.5 313.163L99.1392 298.523L113.814 313.163L99.1392 327.802Z" fill="#D5D0C2"/>
<path d="M89.3789 313.163L99.1424 322.926L108.906 313.163L99.1424 303.399L89.3789 313.163ZM99.1424 320.368L91.9369 313.163L99.1424 305.957L106.348 313.163L99.1424 320.368Z" fill="#D5D0C2"/>
<path d="M95.6279 313.163L99.1466 316.681L102.665 313.163L99.1466 309.704L95.6279 313.163ZM99.1466 314.976L97.3332 313.163L99.1466 311.349L100.96 313.163L99.1466 314.976Z" fill="#D5D0C2"/>
<path d="M44.0713 313.163L61.9409 331.032L79.7985 313.163L61.9409 295.293L44.0713 313.163ZM61.9409 327.802L47.2897 313.163L61.9409 298.523L76.5921 313.163L61.9409 327.802Z" fill="#D5D0C2"/>
<path d="M52.1797 313.162L61.9431 322.914L71.6946 313.15L61.9431 303.387L52.1797 313.162ZM61.9431 320.368L54.7376 313.162L61.9431 305.957L69.1486 313.162L61.9431 320.368Z" fill="#D5D0C2"/>
<path d="M58.4248 313.163L61.9435 316.681L65.4622 313.163L61.9435 309.704L58.4248 313.163ZM61.9435 314.976L60.1181 313.163L61.9435 311.349L63.7569 313.163L61.9435 314.976Z" fill="#D5D0C2"/>
<path d="M6.8623 313.163L24.7319 331.032L42.5895 313.163L24.7319 295.293L6.8623 313.163ZM24.7319 327.802L10.0807 313.163L24.7319 298.523L39.3591 313.163L24.7319 327.802Z" fill="#D5D0C2"/>
<path d="M14.9707 313.163L24.7341 322.926L34.4856 313.163L24.7341 303.399L14.9707 313.163ZM24.7341 320.368L17.5287 313.163L24.7341 305.957L31.9396 313.163L24.7341 320.368Z" fill="#D5D0C2"/>
<path d="M21.2158 313.163L24.7345 316.681L28.2411 313.163L24.7345 309.704L21.2158 313.163ZM24.7345 314.976L22.9091 313.163L24.7345 311.349L26.5479 313.163L24.7345 314.976Z" fill="#D5D0C2"/>
<path d="M316.929 217.653L320.447 221.172L323.966 217.653L320.447 214.135L316.929 217.653ZM320.447 219.467L318.634 217.653L320.447 215.84L322.273 217.653L320.447 219.467Z" fill="#D5D0C2"/>
<path d="M265.136 217.654L282.993 235.523L300.863 217.654L282.993 199.784L265.136 217.654ZM282.993 232.293L268.354 217.654L282.993 203.015L297.56 217.654L282.993 232.293Z" fill="#D5D0C2"/>
<path d="M273.182 217.654L282.933 227.418L292.697 217.654L282.933 207.891L273.182 217.654ZM282.933 224.86L275.728 217.654L282.933 210.449L290.139 217.654L282.933 224.86Z" fill="#D5D0C2"/>
<path d="M279.41 217.653L282.929 221.172L286.448 217.653L282.929 214.135L279.41 217.653ZM282.929 219.467L281.115 217.653L282.929 215.84L284.754 217.653L282.929 219.467Z" fill="#D5D0C2"/>
<path d="M227.9 217.654L245.77 235.523L263.64 217.654L245.77 199.784L227.9 217.654ZM245.77 232.293L231.131 217.654L245.77 203.015L260.325 217.654L245.77 232.293Z" fill="#D5D0C2"/>
<path d="M235.962 217.654L245.725 227.418L255.489 217.654L245.725 207.891L235.962 217.654ZM245.725 224.86L238.52 217.654L245.725 210.449L252.931 217.654L245.725 224.86Z" fill="#D5D0C2"/>
<path d="M242.207 217.653L245.726 221.172L249.244 217.653L245.726 214.135L242.207 217.653ZM245.726 219.467L243.912 217.653L245.726 215.84L247.539 217.653L245.726 219.467Z" fill="#D5D0C2"/>
<path d="M190.676 217.654L208.545 235.523L226.403 217.654L208.545 199.784L190.676 217.654ZM208.545 232.293L193.894 217.654L208.545 203.015L223.185 217.654L208.545 232.293Z" fill="#D5D0C2"/>
<path d="M198.759 217.654L208.522 227.418L218.274 217.654L208.522 207.891L198.759 217.654ZM208.522 224.86L201.317 217.654L208.522 210.449L215.728 217.654L208.522 224.86Z" fill="#D5D0C2"/>
<path d="M205.003 217.653L208.522 221.172L212.028 217.653L208.522 214.135L205.003 217.653ZM208.522 219.467L206.696 217.653L208.522 215.84L210.335 217.653L208.522 219.467Z" fill="#D5D0C2"/>
<path d="M153.451 217.654L171.309 235.523L189.178 217.654L171.309 199.784L153.451 217.654ZM171.309 232.293L156.67 217.654L171.309 203.015L185.96 217.654L171.309 232.293Z" fill="#D5D0C2"/>
<path d="M161.555 217.654L171.306 227.418L181.07 217.654L171.306 207.891L161.555 217.654ZM171.306 224.86L164.101 217.654L171.306 210.449L178.512 217.654L171.306 224.86Z" fill="#D5D0C2"/>
<path d="M167.862 217.653L171.369 221.172L174.888 217.653L171.369 214.135L167.862 217.653ZM171.369 219.467L169.556 217.653L171.369 215.84L173.194 217.653L171.369 219.467Z" fill="#D5D0C2"/>
<path d="M116.216 217.654L134.073 235.523L151.943 217.654L134.073 199.784L116.216 217.654ZM134.073 232.293L119.458 217.654L134.097 203.015L148.749 217.654L134.073 232.293Z" fill="#D5D0C2"/>
<path d="M124.341 217.654L134.104 227.418L143.868 217.654L134.104 207.891L124.341 217.654ZM134.104 224.86L126.899 217.654L134.104 210.449L141.31 217.654L134.104 224.86Z" fill="#D5D0C2"/>
<path d="M130.627 217.653L134.146 221.172L137.664 217.653L134.146 214.135L130.627 217.653ZM134.146 219.467L132.332 217.653L134.146 215.84L135.971 217.653L134.146 219.467Z" fill="#D5D0C2"/>
<path d="M78.9912 217.654L96.8608 235.523L114.73 217.654L96.8608 199.784L78.9912 217.654ZM96.8608 232.293L82.2097 217.654L96.8608 203.015L111.5 217.654L96.8608 232.293Z" fill="#D5D0C2"/>
<path d="M87.1367 217.654L96.9002 227.418L106.664 217.654L96.9002 207.891L87.1367 217.654ZM96.9002 224.86L89.6947 217.654L96.9002 210.449L104.106 217.654L96.9002 224.86Z" fill="#D5D0C2"/>
<path d="M93.4014 217.653L96.92 221.172L100.439 217.653L96.92 214.135L93.4014 217.653ZM96.92 219.467L95.1067 217.653L96.92 215.84L98.7334 217.653L96.92 219.467Z" fill="#D5D0C2"/>
<path d="M41.8184 217.654L59.688 235.523L77.5456 217.654L59.688 199.784L41.8184 217.654ZM59.688 232.293L45.0368 217.654L59.688 203.015L74.3271 217.654L59.688 232.293Z" fill="#D5D0C2"/>
<path d="M49.9326 217.654L59.6961 227.418L69.4475 217.654L59.6961 207.891L49.9326 217.654ZM59.6961 224.86L52.4906 217.654L59.6961 210.449L66.9016 217.654L59.6961 224.86Z" fill="#D5D0C2"/>
<path d="M56.1719 217.653L59.6905 221.172L63.1972 217.653L59.6905 214.135L56.1719 217.653ZM59.6905 219.467L57.8652 217.653L59.6905 215.84L61.5039 217.653L59.6905 219.467Z" fill="#D5D0C2"/>
<path d="M32.2434 217.654L22.4799 207.891L12.7285 217.654L22.4799 227.418L32.2434 217.654ZM22.4799 210.449L29.6854 217.654L22.4799 224.86L15.2745 217.654L22.4799 210.449Z" fill="#D5D0C2"/>
<path d="M25.9966 217.653L22.478 214.135L18.9473 217.653L22.454 221.172L25.9966 217.653ZM22.478 215.84L24.3033 217.653L22.478 219.467L20.6646 217.653L22.478 215.84Z" fill="#D5D0C2"/>
<path d="M24.2178 68.7403C25.0972 68.7403 25.9567 68.4794 26.6877 67.9906C27.4187 67.5018 27.9881 66.8071 28.3241 65.9945C28.6601 65.1819 28.7473 64.2879 28.5749 63.4256C28.4025 62.5634 27.9781 61.7717 27.3555 61.1507C26.7329 60.5298 25.94 60.1075 25.0773 59.9374C24.2146 59.7673 23.3208 59.8571 22.5091 60.1952C21.6974 60.5334 21.0042 61.1048 20.5174 61.8371C20.0306 62.5694 19.7721 63.4296 19.7744 64.3089C19.7744 64.8919 19.8894 65.4691 20.1129 66.0075C20.3363 66.5459 20.6638 67.035 21.0766 67.4466C21.4894 67.8583 21.9793 68.1844 22.5183 68.4064C23.0573 68.6284 23.6349 68.7419 24.2178 68.7403ZM24.2178 61.6669C24.7404 61.6669 25.2511 61.8219 25.6856 62.1122C26.1201 62.4025 26.4588 62.8151 26.6587 63.2979C26.8587 63.7806 26.911 64.3119 26.8091 64.8244C26.7071 65.3369 26.4555 65.8076 26.086 66.1771C25.7165 66.5466 25.2458 66.7982 24.7333 66.9002C24.2208 67.0021 23.6895 66.9498 23.2068 66.7498C22.724 66.5499 22.3114 66.2112 22.0211 65.7768C21.7307 65.3423 21.5758 64.8315 21.5758 64.3089C21.5758 63.6082 21.8541 62.9362 22.3496 62.4407C22.8451 61.9453 23.5171 61.6669 24.2178 61.6669Z" fill="#D5D0C2"/>
<path d="M79.2947 68.7403C80.1745 68.7426 81.0352 68.4837 81.7678 67.9964C82.5003 67.5091 83.0717 66.8153 83.4095 66.0028C83.7473 65.1904 83.8363 64.296 83.6653 63.433C83.4942 62.5699 83.0708 61.7771 82.4486 61.1549C81.8265 60.5328 81.0336 60.1094 80.1706 59.9383C79.3075 59.7672 78.4131 59.8563 77.6007 60.194C76.7883 60.5318 76.0945 61.1032 75.6071 61.8358C75.1198 62.5683 74.8609 63.4291 74.8633 64.3089C74.8665 65.4832 75.3343 66.6085 76.1647 67.4388C76.9951 68.2692 78.1204 68.7371 79.2947 68.7403ZM79.2947 61.6669C79.8177 61.6645 80.3297 61.8174 80.7658 62.1063C81.2018 62.3951 81.5423 62.8069 81.7441 63.2895C81.9459 63.772 82 64.3036 81.8994 64.8169C81.7988 65.3302 81.5481 65.8021 81.1791 66.1728C80.8101 66.5435 80.3394 66.7963 79.8266 66.8992C79.3137 67.0021 78.7819 66.9505 78.2984 66.7509C77.8149 66.5513 77.4016 66.2127 77.1108 65.778C76.8199 65.3432 76.6647 64.8319 76.6647 64.3089C76.6647 63.6103 76.9414 62.9401 77.4343 62.4449C77.9271 61.9498 78.5961 61.67 79.2947 61.6669Z" fill="#D5D0C2"/>
<path d="M134.577 68.7403C135.457 68.7403 136.316 68.4794 137.047 67.9906C137.778 67.5018 138.348 66.8071 138.683 65.9945C139.019 65.1819 139.107 64.2879 138.934 63.4256C138.762 62.5634 138.337 61.7717 137.715 61.1507C137.092 60.5298 136.299 60.1075 135.437 59.9374C134.574 59.7673 133.68 59.8571 132.868 60.1952C132.057 60.5334 131.364 61.1048 130.877 61.8371C130.39 62.5694 130.131 63.4296 130.134 64.3089C130.137 65.4853 130.607 66.6124 131.439 67.4431C132.272 68.2738 133.401 68.7403 134.577 68.7403ZM134.577 61.6669C135.1 61.6669 135.611 61.8219 136.045 62.1122C136.48 62.4025 136.818 62.8151 137.018 63.2979C137.218 63.7806 137.27 64.3119 137.168 64.8244C137.066 65.3369 136.815 65.8076 136.445 66.1771C136.076 66.5466 135.605 66.7982 135.093 66.9002C134.58 67.0021 134.049 66.9498 133.566 66.7498C133.083 66.5499 132.671 66.2112 132.38 65.7768C132.09 65.3423 131.935 64.8315 131.935 64.3089C131.938 63.6092 132.218 62.939 132.713 62.4442C133.207 61.9494 133.877 61.6701 134.577 61.6669Z" fill="#D5D0C2"/>
<path d="M189.739 68.7403C190.619 68.7403 191.478 68.4794 192.209 67.9906C192.94 67.5018 193.51 66.8071 193.846 65.9945C194.181 65.1819 194.269 64.2879 194.096 63.4256C193.924 62.5634 193.5 61.7717 192.877 61.1507C192.254 60.5298 191.461 60.1075 190.599 59.9374C189.736 59.7673 188.842 59.8571 188.031 60.1952C187.219 60.5334 186.526 61.1048 186.039 61.8371C185.552 62.5694 185.294 63.4296 185.296 64.3089C185.296 64.8919 185.411 65.4691 185.634 66.0075C185.858 66.5459 186.185 67.035 186.598 67.4466C187.011 67.8583 187.501 68.1844 188.04 68.4064C188.579 68.6284 189.156 68.7419 189.739 68.7403ZM189.739 61.6669C190.262 61.6669 190.773 61.8219 191.207 62.1122C191.642 62.4025 191.98 62.8151 192.18 63.2979C192.38 63.7806 192.432 64.3119 192.331 64.8244C192.229 65.3369 191.977 65.8076 191.607 66.1771C191.238 66.5466 190.767 66.7982 190.255 66.9002C189.742 67.0021 189.211 66.9498 188.728 66.7498C188.245 66.5499 187.833 66.2112 187.543 65.7768C187.252 65.3423 187.097 64.8315 187.097 64.3089C187.097 63.6082 187.376 62.9362 187.871 62.4407C188.367 61.9453 189.039 61.6669 189.739 61.6669Z" fill="#D5D0C2"/>
<path d="M244.884 68.7403C245.763 68.7426 246.624 68.4837 247.357 67.9964C248.089 67.5091 248.661 66.8153 248.998 66.0028C249.336 65.1904 249.425 64.296 249.254 63.433C249.083 62.5699 248.66 61.7771 248.037 61.1549C247.415 60.5328 246.623 60.1094 245.759 59.9383C244.896 59.7672 244.002 59.8563 243.19 60.194C242.377 60.5318 241.683 61.1032 241.196 61.8358C240.709 62.5683 240.45 63.4291 240.452 64.3089C240.455 65.4832 240.923 66.6085 241.754 67.4388C242.584 68.2692 243.709 68.7371 244.884 68.7403ZM244.884 61.6669C245.407 61.6645 245.919 61.8174 246.355 62.1063C246.791 62.3951 247.131 62.8069 247.333 63.2895C247.535 63.772 247.589 64.3036 247.488 64.8169C247.388 65.3302 247.137 65.8021 246.768 66.1728C246.399 66.5435 245.928 66.7963 245.415 66.8992C244.903 67.0021 244.371 66.9505 243.887 66.7509C243.404 66.5513 242.99 66.2127 242.7 65.778C242.409 65.3432 242.254 64.8319 242.254 64.3089C242.257 63.6112 242.534 62.9429 243.027 62.4484C243.519 61.954 244.186 61.6732 244.884 61.6669Z" fill="#D5D0C2"/>
<path d="M300.046 68.7403C300.925 68.7403 301.785 68.4794 302.516 67.9906C303.247 67.5018 303.816 66.8071 304.152 65.9945C304.488 65.1819 304.576 64.2879 304.403 63.4256C304.231 62.5634 303.806 61.7717 303.184 61.1507C302.561 60.5298 301.768 60.1075 300.905 59.9374C300.043 59.7673 299.149 59.8571 298.337 60.1952C297.526 60.5334 296.832 61.1048 296.346 61.8371C295.859 62.5694 295.6 63.4296 295.603 64.3089C295.603 64.8919 295.718 65.4691 295.941 66.0075C296.164 66.5459 296.492 67.035 296.905 67.4466C297.317 67.8583 297.807 68.1844 298.346 68.4064C298.885 68.6284 299.463 68.7419 300.046 68.7403ZM300.046 61.6669C300.568 61.6669 301.079 61.8219 301.514 62.1122C301.948 62.4025 302.287 62.8151 302.487 63.2979C302.687 63.7806 302.739 64.3119 302.637 64.8244C302.535 65.3369 302.284 65.8076 301.914 66.1771C301.545 66.5466 301.074 66.7982 300.561 66.9002C300.049 67.0021 299.518 66.9498 299.035 66.7498C298.552 66.5499 298.14 66.2112 297.849 65.7768C297.559 65.3423 297.404 64.8315 297.404 64.3089C297.404 63.6082 297.682 62.9362 298.178 62.4407C298.673 61.9453 299.345 61.6669 300.046 61.6669Z" fill="#D5D0C2"/>
<path d="M51.7412 81.5303C50.8624 81.5303 50.0034 81.7909 49.2726 82.2791C48.5419 82.7674 47.9724 83.4613 47.6361 84.2732C47.2998 85.0852 47.2118 85.9786 47.3832 86.8405C47.5547 87.7025 47.9779 88.4942 48.5993 89.1156C49.2207 89.737 50.0125 90.1602 50.8744 90.3317C51.7363 90.5031 52.6297 90.4151 53.4416 90.0788C54.2536 89.7425 54.9476 89.173 55.4358 88.4423C55.924 87.7116 56.1846 86.8525 56.1846 85.9737C56.1846 84.7952 55.7165 83.665 54.8832 82.8317C54.0499 81.9984 52.9197 81.5303 51.7412 81.5303ZM51.7412 88.6037C51.2182 88.6037 50.7069 88.4484 50.2722 88.1576C49.8374 87.8667 49.4988 87.4534 49.2992 86.9699C49.0996 86.4864 49.048 85.9546 49.1509 85.4418C49.2538 84.929 49.5067 84.4582 49.8773 84.0892C50.248 83.7202 50.7199 83.4695 51.2332 83.369C51.7465 83.2684 52.2781 83.3224 52.7606 83.5242C53.2432 83.726 53.655 84.0665 53.9439 84.5026C54.2327 84.9386 54.3857 85.4506 54.3833 85.9737C54.3769 86.6691 54.0954 87.3337 53.6003 87.8221C53.1051 88.3104 52.4367 88.5828 51.7412 88.5796V88.6037Z" fill="#D5D0C2"/>
<path d="M107.035 81.5303C106.156 81.5279 105.296 81.7865 104.564 82.2733C103.831 82.7601 103.26 83.4532 102.922 84.2649C102.584 85.0766 102.494 85.9704 102.664 86.8331C102.834 87.6959 103.256 88.4887 103.877 89.1114C104.498 89.734 105.29 90.1584 106.152 90.3308C107.014 90.5032 107.908 90.4159 108.721 90.08C109.534 89.744 110.228 89.1745 110.717 88.4435C111.206 87.7126 111.467 86.853 111.467 85.9737C111.467 84.7973 111 83.6689 110.17 82.8359C109.339 82.003 108.212 81.5335 107.035 81.5303ZM107.035 88.6037C106.512 88.6061 105.999 88.4528 105.563 88.1634C105.127 87.874 104.786 87.4615 104.585 86.9783C104.383 86.495 104.33 85.9628 104.432 85.4492C104.533 84.9356 104.785 84.4637 105.155 84.0935C105.526 83.7233 105.997 83.4714 106.511 83.3699C107.025 83.2683 107.557 83.3216 108.04 83.5231C108.523 83.7245 108.936 84.065 109.225 84.5014C109.515 84.9377 109.668 85.4501 109.665 85.9737C109.656 86.6661 109.375 87.3271 108.883 87.8144C108.391 88.3018 107.728 88.5766 107.035 88.5797V88.6037Z" fill="#D5D0C2"/>
<path d="M162.186 81.5303C161.307 81.5279 160.446 81.7865 159.714 82.2733C158.982 82.7601 158.41 83.4532 158.072 84.2649C157.734 85.0766 157.644 85.9704 157.814 86.8331C157.984 87.6959 158.407 88.4887 159.028 89.1114C159.649 89.734 160.44 90.1584 161.303 90.3308C162.165 90.5032 163.059 90.4159 163.871 90.08C164.684 89.744 165.379 89.1745 165.868 88.4435C166.356 87.7126 166.617 86.853 166.617 85.9737C166.617 84.7973 166.151 83.6689 165.32 82.8359C164.489 82.003 163.362 81.5335 162.186 81.5303ZM162.186 88.6037C161.662 88.6061 161.15 88.4528 160.714 88.1634C160.277 87.874 159.937 87.4615 159.735 86.9783C159.534 86.495 159.48 85.9628 159.582 85.4492C159.684 84.9356 159.935 84.4637 160.306 84.0935C160.676 83.7233 161.148 83.4714 161.661 83.3699C162.175 83.2683 162.707 83.3216 163.19 83.5231C163.674 83.7245 164.086 84.065 164.376 84.5014C164.665 84.9377 164.818 85.4501 164.816 85.9737C164.806 86.6661 164.526 87.3271 164.034 87.8144C163.542 88.3018 162.878 88.5766 162.186 88.5797V88.6037Z" fill="#D5D0C2"/>
<path d="M217.335 81.5303C216.456 81.5303 215.597 81.7909 214.866 82.2791C214.136 82.7674 213.566 83.4613 213.23 84.2732C212.893 85.0852 212.806 85.9786 212.977 86.8405C213.148 87.7025 213.572 88.4942 214.193 89.1156C214.814 89.737 215.606 90.1602 216.468 90.3317C217.33 90.5031 218.223 90.4151 219.035 90.0788C219.847 89.7425 220.541 89.173 221.03 88.4423C221.518 87.7116 221.778 86.8525 221.778 85.9737C221.778 84.7952 221.31 83.665 220.477 82.8317C219.644 81.9984 218.513 81.5303 217.335 81.5303ZM217.335 88.6037C216.812 88.6037 216.301 88.4484 215.866 88.1576C215.431 87.8667 215.093 87.4534 214.893 86.9699C214.693 86.4864 214.642 85.9546 214.745 85.4418C214.848 84.929 215.1 84.4582 215.471 84.0892C215.842 83.7202 216.314 83.4695 216.827 83.369C217.34 83.2684 217.872 83.3224 218.354 83.5242C218.837 83.726 219.249 84.0665 219.538 84.5026C219.826 84.9386 219.979 85.4506 219.977 85.9737C219.971 86.6691 219.689 87.3337 219.194 87.8221C218.699 88.3104 218.03 88.5828 217.335 88.5796V88.6037Z" fill="#D5D0C2"/>
<path d="M272.491 81.5303C271.612 81.5303 270.753 81.7909 270.023 82.2791C269.292 82.7674 268.722 83.4613 268.386 84.2732C268.05 85.0852 267.962 85.9786 268.133 86.8405C268.305 87.7025 268.728 88.4942 269.349 89.1156C269.971 89.737 270.762 90.1602 271.624 90.3317C272.486 90.5031 273.38 90.4151 274.192 90.0788C275.004 89.7425 275.698 89.173 276.186 88.4423C276.674 87.7116 276.935 86.8525 276.935 85.9737C276.935 84.7952 276.466 83.665 275.633 82.8317C274.8 81.9984 273.67 81.5303 272.491 81.5303ZM272.491 88.6037C271.968 88.6037 271.457 88.4484 271.022 88.1576C270.587 87.8667 270.249 87.4534 270.049 86.9699C269.85 86.4864 269.798 85.9546 269.901 85.4418C270.004 84.929 270.257 84.4582 270.627 84.0892C270.998 83.7202 271.47 83.4695 271.983 83.369C272.496 83.2684 273.028 83.3224 273.511 83.5242C273.993 83.726 274.405 84.0665 274.694 84.5026C274.983 84.9386 275.136 85.4506 275.133 85.9737C275.124 86.6681 274.841 87.3309 274.347 87.8186C273.852 88.3063 273.186 88.5797 272.491 88.5796V88.6037Z" fill="#D5D0C2"/>
<path d="M314.457 185.205C315.336 185.205 316.195 184.945 316.926 184.456C317.656 183.968 318.226 183.274 318.562 182.462C318.899 181.65 318.987 180.757 318.815 179.895C318.644 179.033 318.22 178.241 317.599 177.62C316.978 176.998 316.186 176.575 315.324 176.404C314.462 176.232 313.569 176.32 312.757 176.657C311.945 176.993 311.251 177.562 310.763 178.293C310.274 179.024 310.014 179.883 310.014 180.762C310.014 181.345 310.129 181.923 310.352 182.462C310.575 183.001 310.903 183.491 311.315 183.904C311.728 184.316 312.218 184.644 312.757 184.867C313.296 185.09 313.874 185.205 314.457 185.205ZM314.457 178.132C314.98 178.132 315.491 178.287 315.926 178.578C316.361 178.869 316.699 179.282 316.899 179.765C317.099 180.249 317.15 180.781 317.047 181.294C316.945 181.806 316.692 182.277 316.321 182.646C315.95 183.015 315.478 183.266 314.965 183.366C314.452 183.467 313.92 183.413 313.438 183.211C312.955 183.009 312.543 182.669 312.254 182.233C311.966 181.797 311.813 181.285 311.815 180.762C311.818 180.063 312.098 179.394 312.593 178.901C313.088 178.408 313.758 178.132 314.457 178.132Z" fill="#D5D0C2"/>
<path d="M259.368 185.205C260.247 185.208 261.107 184.949 261.84 184.462C262.572 183.975 263.143 183.282 263.482 182.47C263.82 181.659 263.909 180.765 263.739 179.902C263.569 179.04 263.147 178.247 262.526 177.624C261.905 177.001 261.113 176.577 260.251 176.405C259.389 176.232 258.495 176.319 257.682 176.655C256.87 176.991 256.175 177.561 255.686 178.292C255.197 179.023 254.937 179.882 254.937 180.762C254.937 181.938 255.403 183.066 256.234 183.899C257.064 184.732 258.192 185.202 259.368 185.205ZM259.368 178.132C259.891 178.129 260.404 178.283 260.84 178.572C261.277 178.861 261.617 179.274 261.818 179.757C262.02 180.24 262.073 180.773 261.972 181.286C261.87 181.8 261.618 182.272 261.248 182.642C260.878 183.012 260.406 183.264 259.892 183.366C259.379 183.467 258.847 183.414 258.363 183.212C257.88 183.011 257.468 182.67 257.178 182.234C256.889 181.798 256.736 181.285 256.738 180.762C256.738 180.416 256.806 180.074 256.938 179.755C257.07 179.436 257.264 179.146 257.508 178.902C257.752 178.658 258.042 178.464 258.361 178.332C258.681 178.2 259.023 178.132 259.368 178.132Z" fill="#D5D0C2"/>
<path d="M204.087 185.205C204.966 185.205 205.825 184.945 206.556 184.456C207.286 183.968 207.856 183.274 208.192 182.462C208.528 181.65 208.616 180.757 208.445 179.895C208.274 179.033 207.85 178.241 207.229 177.62C206.608 176.998 205.816 176.575 204.954 176.404C204.092 176.232 203.199 176.32 202.387 176.657C201.575 176.993 200.881 177.562 200.392 178.293C199.904 179.024 199.644 179.883 199.644 180.762C199.644 181.94 200.112 183.07 200.945 183.904C201.778 184.737 202.908 185.205 204.087 185.205ZM204.087 178.132C204.61 178.132 205.121 178.287 205.556 178.578C205.991 178.869 206.329 179.282 206.529 179.765C206.729 180.249 206.78 180.781 206.677 181.294C206.574 181.806 206.322 182.277 205.951 182.646C205.58 183.015 205.108 183.266 204.595 183.366C204.082 183.467 203.55 183.413 203.068 183.211C202.585 183.009 202.173 182.669 201.884 182.233C201.595 181.797 201.443 181.285 201.445 180.762C201.448 180.063 201.728 179.394 202.223 178.901C202.718 178.408 203.388 178.132 204.087 178.132Z" fill="#D5D0C2"/>
<path d="M148.934 185.205C149.814 185.208 150.674 184.949 151.406 184.462C152.139 183.975 152.71 183.282 153.048 182.47C153.386 181.659 153.476 180.765 153.306 179.902C153.136 179.04 152.713 178.247 152.093 177.624C151.472 177.001 150.68 176.577 149.818 176.405C148.955 176.232 148.061 176.319 147.249 176.655C146.436 176.991 145.741 177.561 145.253 178.292C144.764 179.023 144.503 179.882 144.503 180.762C144.503 181.938 144.969 183.066 145.8 183.899C146.631 184.732 147.758 185.202 148.934 185.205ZM148.934 178.132C149.458 178.129 149.97 178.283 150.407 178.572C150.843 178.861 151.183 179.274 151.385 179.757C151.586 180.24 151.64 180.773 151.538 181.286C151.437 181.8 151.185 182.272 150.814 182.642C150.444 183.012 149.972 183.264 149.459 183.366C148.945 183.467 148.413 183.414 147.93 183.212C147.446 183.011 147.034 182.67 146.745 182.234C146.455 181.798 146.302 181.285 146.304 180.762C146.307 180.065 146.586 179.398 147.078 178.906C147.571 178.413 148.238 178.135 148.934 178.132Z" fill="#D5D0C2"/>
<path d="M93.7852 185.205C94.664 185.205 95.5231 184.945 96.2538 184.456C96.9845 183.968 97.554 183.274 97.8903 182.462C98.2266 181.65 98.3147 180.757 98.1432 179.895C97.9718 179.033 97.5486 178.241 96.9272 177.62C96.3057 176.998 95.514 176.575 94.6521 176.404C93.7901 176.232 92.8967 176.32 92.0848 176.657C91.2729 176.993 90.5789 177.562 90.0906 178.293C89.6024 179.024 89.3418 179.883 89.3418 180.762C89.3418 181.94 89.8099 183.07 90.6432 183.904C91.4765 184.737 92.6067 185.205 93.7852 185.205ZM93.7852 178.132C94.3082 178.132 94.8195 178.287 95.2542 178.578C95.689 178.869 96.0276 179.282 96.2272 179.765C96.4268 180.249 96.4784 180.781 96.3755 181.294C96.2726 181.806 96.0198 182.277 95.6491 182.646C95.2784 183.015 94.8065 183.266 94.2932 183.366C93.7799 183.467 93.2483 183.413 92.7658 183.211C92.2832 183.009 91.8715 182.669 91.5826 182.233C91.2937 181.797 91.1408 181.285 91.1432 180.762C91.1432 180.415 91.2116 180.072 91.3445 179.753C91.4774 179.433 91.6722 179.142 91.9177 178.898C92.1632 178.653 92.4546 178.46 92.775 178.328C93.0955 178.197 93.4388 178.13 93.7852 178.132Z" fill="#D5D0C2"/>
<path d="M38.6348 185.205C39.5136 185.205 40.3727 184.945 41.1034 184.456C41.8341 183.968 42.4036 183.274 42.7399 182.462C43.0762 181.65 43.1642 180.757 42.9928 179.895C42.8213 179.033 42.3981 178.241 41.7767 177.62C41.1553 176.998 40.3636 176.575 39.5017 176.404C38.6397 176.232 37.7463 176.32 36.9344 176.657C36.1224 176.993 35.4285 177.562 34.9403 178.293C34.452 179.024 34.1914 179.883 34.1914 180.762C34.1914 181.94 34.6596 183.07 35.4928 183.904C36.3261 184.737 37.4563 185.205 38.6348 185.205ZM38.6348 178.132C39.1579 178.132 39.6691 178.287 40.1038 178.578C40.5386 178.869 40.8772 179.282 41.0768 179.765C41.2764 180.249 41.328 180.781 41.2251 181.294C41.1222 181.806 40.8694 182.277 40.4987 182.646C40.128 183.015 39.6561 183.266 39.1428 183.366C38.6295 183.467 38.0979 183.413 37.6154 183.211C37.1328 183.009 36.7211 182.669 36.4322 182.233C36.1433 181.797 35.9904 181.285 35.9928 180.762C35.996 180.063 36.2757 179.394 36.7708 178.901C37.266 178.408 37.9362 178.132 38.6348 178.132Z" fill="#D5D0C2"/>
<path d="M286.917 163.564C287.796 163.567 288.656 163.308 289.389 162.822C290.121 162.335 290.692 161.642 291.03 160.83C291.369 160.018 291.458 159.124 291.288 158.262C291.118 157.399 290.696 156.606 290.075 155.983C289.454 155.361 288.662 154.936 287.8 154.764C286.938 154.592 286.044 154.679 285.231 155.015C284.418 155.351 283.724 155.92 283.235 156.651C282.746 157.382 282.485 158.242 282.485 159.121C282.485 160.297 282.952 161.426 283.783 162.259C284.613 163.092 285.74 163.561 286.917 163.564ZM286.917 156.491C287.44 156.489 287.953 156.642 288.389 156.931C288.825 157.221 289.166 157.633 289.367 158.117C289.569 158.6 289.622 159.132 289.52 159.646C289.419 160.159 289.167 160.631 288.797 161.001C288.427 161.371 287.955 161.623 287.441 161.725C286.928 161.826 286.395 161.773 285.912 161.572C285.429 161.37 285.016 161.03 284.727 160.593C284.438 160.157 284.284 159.645 284.287 159.121C284.287 158.424 284.564 157.755 285.057 157.261C285.55 156.768 286.219 156.491 286.917 156.491Z" fill="#D5D0C2"/>
<path d="M231.642 163.564C232.52 163.564 233.38 163.304 234.11 162.816C234.841 162.327 235.411 161.633 235.747 160.822C236.083 160.01 236.171 159.116 236 158.254C235.828 157.392 235.405 156.601 234.784 155.979C234.162 155.358 233.37 154.935 232.509 154.763C231.647 154.592 230.753 154.68 229.941 155.016C229.129 155.352 228.435 155.922 227.947 156.652C227.459 157.383 227.198 158.242 227.198 159.121C227.198 160.3 227.666 161.43 228.5 162.263C229.333 163.096 230.463 163.564 231.642 163.564ZM231.642 156.491C232.165 156.491 232.676 156.646 233.111 156.937C233.545 157.228 233.884 157.641 234.084 158.125C234.283 158.608 234.335 159.14 234.232 159.653C234.129 160.166 233.876 160.637 233.506 161.006C233.135 161.375 232.663 161.625 232.15 161.726C231.636 161.826 231.105 161.772 230.622 161.571C230.14 161.369 229.728 161.028 229.439 160.592C229.15 160.156 228.997 159.644 229 159.121C229.003 158.422 229.283 157.754 229.778 157.261C230.273 156.768 230.943 156.491 231.642 156.491Z" fill="#D5D0C2"/>
<path d="M176.479 163.564C177.359 163.567 178.219 163.308 178.951 162.822C179.683 162.335 180.255 161.642 180.593 160.83C180.931 160.018 181.021 159.124 180.851 158.262C180.681 157.399 180.258 156.606 179.637 155.983C179.016 155.361 178.225 154.936 177.363 154.764C176.5 154.592 175.606 154.679 174.794 155.015C173.981 155.351 173.286 155.92 172.798 156.651C172.309 157.382 172.048 158.242 172.048 159.121C172.048 160.297 172.514 161.426 173.345 162.259C174.176 163.092 175.303 163.561 176.479 163.564ZM176.479 156.491C177.003 156.489 177.515 156.642 177.952 156.931C178.388 157.221 178.728 157.633 178.93 158.117C179.131 158.6 179.185 159.132 179.083 159.646C178.982 160.159 178.73 160.631 178.359 161.001C177.989 161.371 177.517 161.623 177.004 161.725C176.49 161.826 175.958 161.773 175.475 161.572C174.991 161.37 174.579 161.03 174.289 160.593C174 160.157 173.847 159.645 173.849 159.121C173.852 158.425 174.13 157.757 174.623 157.265C175.116 156.772 175.783 156.494 176.479 156.491Z" fill="#D5D0C2"/>
<path d="M121.335 163.564C122.214 163.564 123.073 163.304 123.804 162.816C124.534 162.327 125.104 161.633 125.44 160.822C125.776 160.01 125.864 159.116 125.693 158.254C125.522 157.392 125.098 156.601 124.477 155.979C123.856 155.358 123.064 154.935 122.202 154.763C121.34 154.592 120.447 154.68 119.635 155.016C118.823 155.352 118.129 155.922 117.64 156.652C117.152 157.383 116.892 158.242 116.892 159.121C116.892 160.3 117.36 161.43 118.193 162.263C119.026 163.096 120.157 163.564 121.335 163.564ZM121.335 156.491C121.858 156.491 122.369 156.646 122.804 156.937C123.239 157.228 123.577 157.641 123.777 158.125C123.977 158.608 124.028 159.14 123.925 159.653C123.822 160.166 123.57 160.637 123.199 161.006C122.828 161.375 122.356 161.625 121.843 161.726C121.33 161.826 120.798 161.772 120.316 161.571C119.833 161.369 119.421 161.028 119.132 160.592C118.844 160.156 118.691 159.644 118.693 159.121C118.693 158.775 118.761 158.432 118.894 158.112C119.027 157.792 119.222 157.502 119.468 157.257C119.713 157.013 120.004 156.819 120.325 156.688C120.645 156.556 120.989 156.49 121.335 156.491Z" fill="#D5D0C2"/>
<path d="M66.1787 163.564C67.0575 163.564 67.9166 163.304 68.6474 162.816C69.3781 162.327 69.9476 161.633 70.2839 160.822C70.6202 160.01 70.7082 159.116 70.5367 158.254C70.3653 157.392 69.9421 156.601 69.3207 155.979C68.6993 155.358 67.9075 154.935 67.0456 154.763C66.1837 154.592 65.2902 154.68 64.4783 155.016C63.6664 155.352 62.9724 155.922 62.4842 156.652C61.996 157.383 61.7354 158.242 61.7354 159.121C61.7354 160.3 62.2035 161.43 63.0368 162.263C63.8701 163.096 65.0003 163.564 66.1787 163.564ZM66.1787 156.491C66.7018 156.491 67.2131 156.646 67.6478 156.937C68.0825 157.228 68.4211 157.641 68.6208 158.125C68.8204 158.608 68.872 159.14 68.7691 159.653C68.6661 160.166 68.4133 160.637 68.0426 161.006C67.6719 161.375 67.2 161.625 66.6867 161.726C66.1735 161.826 65.6419 161.772 65.1593 161.571C64.6768 161.369 64.265 161.028 63.9761 160.592C63.6873 160.156 63.5343 159.644 63.5367 159.121C63.5399 158.422 63.8197 157.754 64.3148 157.261C64.8099 156.768 65.4801 156.491 66.1787 156.491Z" fill="#D5D0C2"/>
<path d="M308.245 271.791C307.366 271.789 306.506 272.047 305.774 272.534C305.041 273.021 304.47 273.714 304.132 274.526C303.794 275.337 303.704 276.231 303.874 277.094C304.044 277.957 304.466 278.749 305.087 279.372C305.708 279.995 306.5 280.419 307.362 280.592C308.224 280.764 309.118 280.677 309.931 280.341C310.744 280.005 311.438 279.435 311.927 278.704C312.416 277.973 312.677 277.114 312.677 276.234C312.677 275.058 312.21 273.93 311.38 273.097C310.549 272.264 309.422 271.794 308.245 271.791ZM308.245 278.864C307.722 278.867 307.209 278.714 306.773 278.424C306.337 278.135 305.996 277.722 305.795 277.239C305.593 276.756 305.54 276.224 305.642 275.71C305.743 275.196 305.995 274.724 306.365 274.354C306.735 273.984 307.207 273.732 307.721 273.631C308.235 273.529 308.767 273.582 309.25 273.784C309.733 273.985 310.146 274.326 310.435 274.762C310.725 275.198 310.878 275.711 310.875 276.234C310.875 276.58 310.807 276.922 310.675 277.241C310.543 277.56 310.349 277.85 310.105 278.094C309.861 278.338 309.571 278.532 309.252 278.664C308.933 278.796 308.591 278.864 308.245 278.864Z" fill="#D5D0C2"/>
<path d="M253.121 271.791C252.242 271.789 251.382 272.047 250.65 272.534C249.917 273.021 249.346 273.714 249.008 274.526C248.67 275.337 248.58 276.231 248.75 277.094C248.92 277.957 249.342 278.749 249.963 279.372C250.584 279.995 251.376 280.419 252.238 280.592C253.1 280.764 253.994 280.677 254.807 280.341C255.62 280.005 256.314 279.435 256.803 278.704C257.292 277.973 257.553 277.114 257.553 276.234C257.553 275.058 257.086 273.93 256.256 273.097C255.425 272.264 254.298 271.794 253.121 271.791ZM253.121 278.864C252.598 278.867 252.085 278.714 251.649 278.424C251.213 278.135 250.872 277.722 250.671 277.239C250.469 276.756 250.416 276.224 250.518 275.71C250.619 275.196 250.871 274.724 251.241 274.354C251.611 273.984 252.083 273.732 252.597 273.631C253.111 273.529 253.643 273.582 254.126 273.784C254.609 273.985 255.022 274.326 255.311 274.762C255.601 275.198 255.754 275.711 255.751 276.234C255.748 276.931 255.47 277.598 254.978 278.091C254.485 278.583 253.818 278.861 253.121 278.864Z" fill="#D5D0C2"/>
<path d="M197.885 271.791C197.006 271.791 196.147 272.052 195.416 272.54C194.685 273.028 194.116 273.722 193.78 274.534C193.443 275.346 193.355 276.239 193.527 277.101C193.698 277.963 194.121 278.755 194.743 279.376C195.364 279.998 196.156 280.421 197.018 280.592C197.88 280.764 198.773 280.676 199.585 280.34C200.397 280.003 201.091 279.434 201.579 278.703C202.068 277.972 202.328 277.113 202.328 276.234C202.328 275.056 201.86 273.926 201.027 273.092C200.193 272.259 199.063 271.791 197.885 271.791ZM197.885 278.864C197.362 278.864 196.85 278.709 196.416 278.418C195.981 278.127 195.642 277.714 195.443 277.231C195.243 276.747 195.192 276.215 195.294 275.703C195.397 275.19 195.65 274.719 196.021 274.35C196.392 273.981 196.863 273.73 197.377 273.63C197.89 273.529 198.422 273.583 198.904 273.785C199.387 273.987 199.799 274.327 200.087 274.763C200.376 275.199 200.529 275.711 200.527 276.234C200.527 276.581 200.458 276.924 200.325 277.244C200.193 277.564 199.998 277.854 199.752 278.098C199.507 278.343 199.215 278.536 198.895 278.668C198.574 278.799 198.231 278.866 197.885 278.864Z" fill="#D5D0C2"/>
<path d="M142.72 271.791C141.841 271.789 140.98 272.047 140.248 272.534C139.516 273.021 138.945 273.714 138.606 274.526C138.268 275.337 138.178 276.231 138.349 277.094C138.519 277.957 138.941 278.749 139.562 279.372C140.183 279.995 140.974 280.419 141.837 280.592C142.699 280.764 143.593 280.677 144.406 280.341C145.218 280.005 145.913 279.435 146.402 278.704C146.891 277.973 147.151 277.114 147.151 276.234C147.151 275.058 146.685 273.93 145.854 273.097C145.024 272.264 143.896 271.794 142.72 271.791ZM142.72 278.864C142.197 278.867 141.684 278.714 141.248 278.424C140.811 278.135 140.471 277.722 140.269 277.239C140.068 276.756 140.015 276.224 140.116 275.71C140.218 275.196 140.47 274.724 140.84 274.354C141.21 273.984 141.682 273.732 142.196 273.631C142.709 273.529 143.241 273.582 143.725 273.784C144.208 273.985 144.62 274.326 144.91 274.762C145.199 275.198 145.352 275.711 145.35 276.234C145.35 276.58 145.282 276.922 145.15 277.241C145.018 277.56 144.824 277.85 144.58 278.094C144.336 278.338 144.046 278.532 143.727 278.664C143.407 278.796 143.065 278.864 142.72 278.864Z" fill="#D5D0C2"/>
<path d="M87.5674 271.791C86.6886 271.791 85.8295 272.052 85.0988 272.54C84.3681 273.028 83.7986 273.722 83.4622 274.534C83.1259 275.346 83.038 276.239 83.2094 277.101C83.3809 277.963 83.804 278.755 84.4255 279.376C85.0469 279.998 85.8386 280.421 86.7005 280.592C87.5625 280.764 88.4559 280.676 89.2678 280.34C90.0797 280.003 90.7737 279.434 91.2619 278.703C91.7502 277.972 92.0108 277.113 92.0108 276.234C92.0108 275.056 91.5426 273.926 90.7093 273.092C89.876 272.259 88.7459 271.791 87.5674 271.791ZM87.5674 278.864C87.0444 278.864 86.5331 278.709 86.0983 278.418C85.6636 278.127 85.325 277.714 85.1254 277.231C84.9258 276.747 84.8741 276.215 84.9771 275.703C85.08 275.19 85.3328 274.719 85.7035 274.35C86.0742 273.981 86.5461 273.73 87.0594 273.63C87.5726 273.529 88.1043 273.583 88.5868 273.785C89.0694 273.987 89.4811 274.327 89.77 274.763C90.0588 275.199 90.2118 275.711 90.2094 276.234C90.2062 276.933 89.9265 277.602 89.4313 278.095C88.9362 278.588 88.266 278.864 87.5674 278.864Z" fill="#D5D0C2"/>
<path d="M32.4112 271.791C31.5323 271.791 30.6733 272.052 29.9426 272.54C29.2118 273.028 28.6423 273.722 28.306 274.534C27.9697 275.346 27.8817 276.239 28.0531 277.101C28.2246 277.963 28.6478 278.755 29.2692 279.376C29.8907 279.998 30.6824 280.421 31.5443 280.592C32.4062 280.764 33.2996 280.676 34.1116 280.34C34.9235 280.003 35.6175 279.434 36.1057 278.703C36.594 277.972 36.8546 277.113 36.8546 276.234C36.8546 275.056 36.3864 273.926 35.5531 273.092C34.7198 272.259 33.5896 271.791 32.4112 271.791ZM32.4112 278.864C31.8881 278.864 31.3768 278.709 30.9421 278.418C30.5074 278.127 30.1687 277.714 29.9691 277.231C29.7695 276.747 29.7179 276.215 29.8208 275.703C29.9238 275.19 30.1766 274.719 30.5473 274.35C30.918 273.981 31.3898 273.73 31.9031 273.63C32.4164 273.529 32.948 273.583 33.4306 273.785C33.9131 273.987 34.3249 274.327 34.6138 274.763C34.9026 275.199 35.0556 275.711 35.0532 276.234C35.0532 276.581 34.9848 276.924 34.8518 277.244C34.7189 277.564 34.5241 277.854 34.2786 278.098C34.0332 278.343 33.7418 278.536 33.4213 278.668C33.1008 278.799 32.7575 278.866 32.4112 278.864Z" fill="#D5D0C2"/>
<path d="M280.742 259.025C281.622 259.025 282.481 258.764 283.212 258.276C283.943 257.787 284.513 257.092 284.849 256.28C285.185 255.467 285.272 254.573 285.099 253.711C284.927 252.848 284.503 252.057 283.88 251.436C283.257 250.815 282.464 250.393 281.602 250.223C280.739 250.053 279.845 250.142 279.034 250.48C278.222 250.818 277.529 251.39 277.042 252.122C276.555 252.854 276.296 253.715 276.299 254.594C276.299 255.177 276.414 255.754 276.637 256.293C276.861 256.831 277.188 257.32 277.601 257.732C278.014 258.143 278.504 258.47 279.043 258.692C279.582 258.914 280.159 259.027 280.742 259.025ZM280.742 251.952C281.265 251.952 281.776 252.107 282.21 252.397C282.645 252.688 282.983 253.1 283.183 253.583C283.383 254.066 283.435 254.597 283.333 255.109C283.232 255.622 282.98 256.093 282.61 256.462C282.241 256.832 281.77 257.083 281.258 257.185C280.745 257.287 280.214 257.235 279.731 257.035C279.248 256.835 278.836 256.496 278.546 256.062C278.255 255.627 278.1 255.117 278.1 254.594C278.099 254.247 278.166 253.902 278.298 253.581C278.43 253.26 278.625 252.968 278.871 252.722C279.116 252.477 279.408 252.282 279.729 252.15C280.051 252.018 280.395 251.95 280.742 251.952Z" fill="#D5D0C2"/>
<path d="M225.417 259.025C226.297 259.028 227.157 258.769 227.89 258.282C228.622 257.794 229.194 257.1 229.532 256.288C229.869 255.476 229.958 254.581 229.787 253.718C229.616 252.855 229.193 252.062 228.571 251.44C227.949 250.818 227.156 250.395 226.293 250.223C225.43 250.052 224.535 250.141 223.723 250.479C222.91 250.817 222.217 251.388 221.729 252.121C221.242 252.853 220.983 253.714 220.985 254.594C220.989 255.768 221.456 256.894 222.287 257.724C223.117 258.554 224.242 259.022 225.417 259.025ZM225.417 251.952C225.94 251.95 226.452 252.103 226.888 252.391C227.324 252.68 227.664 253.092 227.866 253.575C228.068 254.057 228.122 254.589 228.021 255.102C227.921 255.615 227.67 256.087 227.301 256.458C226.932 256.829 226.461 257.081 225.949 257.184C225.436 257.287 224.904 257.236 224.42 257.036C223.937 256.836 223.524 256.498 223.233 256.063C222.942 255.628 222.787 255.117 222.787 254.594C222.785 254.248 222.852 253.904 222.983 253.584C223.115 253.263 223.308 252.972 223.553 252.727C223.797 252.481 224.088 252.286 224.408 252.153C224.727 252.02 225.07 251.952 225.417 251.952Z" fill="#D5D0C2"/>
<path d="M170.256 259.025C171.135 259.028 171.996 258.769 172.729 258.282C173.461 257.794 174.033 257.1 174.37 256.288C174.708 255.476 174.797 254.581 174.626 253.718C174.455 252.855 174.032 252.062 173.41 251.44C172.787 250.818 171.995 250.395 171.132 250.223C170.268 250.052 169.374 250.141 168.562 250.479C167.749 250.817 167.055 251.388 166.568 252.121C166.081 252.853 165.822 253.714 165.824 254.594C165.827 255.768 166.295 256.894 167.126 257.724C167.956 258.554 169.081 259.022 170.256 259.025ZM170.256 251.952C170.779 251.95 171.291 252.103 171.727 252.391C172.163 252.68 172.503 253.092 172.705 253.575C172.907 254.057 172.961 254.589 172.86 255.102C172.76 255.615 172.509 256.087 172.14 256.458C171.771 256.829 171.3 257.081 170.787 257.184C170.275 257.287 169.743 257.236 169.259 257.036C168.776 256.836 168.363 256.498 168.072 256.063C167.781 255.628 167.626 255.117 167.626 254.594C167.624 254.248 167.691 253.904 167.822 253.584C167.954 253.263 168.147 252.972 168.392 252.727C168.636 252.481 168.927 252.286 169.246 252.153C169.566 252.02 169.909 251.952 170.256 251.952Z" fill="#D5D0C2"/>
<path d="M115.111 259.025C115.991 259.025 116.85 258.764 117.581 258.276C118.312 257.787 118.882 257.092 119.218 256.28C119.554 255.467 119.641 254.573 119.468 253.711C119.296 252.848 118.872 252.057 118.249 251.436C117.626 250.815 116.834 250.393 115.971 250.223C115.108 250.053 114.214 250.142 113.403 250.48C112.591 250.818 111.898 251.39 111.411 252.122C110.924 252.854 110.666 253.715 110.668 254.594C110.671 255.77 111.141 256.898 111.974 257.728C112.807 258.559 113.935 259.025 115.111 259.025ZM115.111 251.952C115.634 251.952 116.145 252.107 116.579 252.397C117.014 252.688 117.352 253.1 117.552 253.583C117.752 254.066 117.805 254.597 117.703 255.109C117.601 255.622 117.349 256.093 116.98 256.462C116.61 256.832 116.139 257.083 115.627 257.185C115.114 257.287 114.583 257.235 114.1 257.035C113.618 256.835 113.205 256.496 112.915 256.062C112.624 255.627 112.469 255.117 112.469 254.594C112.469 253.893 112.748 253.221 113.243 252.726C113.739 252.23 114.411 251.952 115.111 251.952Z" fill="#D5D0C2"/>
<path d="M59.9587 259.025C60.8386 259.028 61.6993 258.769 62.4319 258.282C63.1644 257.794 63.7358 257.1 64.0736 256.288C64.4114 255.476 64.5004 254.581 64.3293 253.718C64.1583 252.855 63.7348 252.062 63.1127 251.44C62.4905 250.818 61.6977 250.395 60.8347 250.223C59.9716 250.052 59.0772 250.141 58.2648 250.479C57.4524 250.817 56.7586 251.388 56.2712 252.121C55.7839 252.853 55.525 253.714 55.5274 254.594C55.5305 255.768 55.9984 256.894 56.8288 257.724C57.6592 258.554 58.7844 259.022 59.9587 259.025ZM59.9587 251.952C60.4818 251.95 60.9938 252.103 61.4298 252.391C61.8659 252.68 62.2064 253.092 62.4082 253.575C62.61 254.057 62.664 254.589 62.5635 255.102C62.4629 255.615 62.2122 256.087 61.8432 256.458C61.4742 256.829 61.0035 257.081 60.4906 257.184C59.9778 257.287 59.446 257.236 58.9625 257.036C58.479 256.836 58.0657 256.498 57.7749 256.063C57.484 255.628 57.3287 255.117 57.3287 254.594C57.3272 254.248 57.394 253.904 57.5255 253.584C57.6569 253.263 57.8504 252.972 58.0948 252.727C58.3392 252.481 58.6296 252.286 58.9495 252.153C59.2694 252.02 59.6124 251.952 59.9587 251.952Z" fill="#D5D0C2"/>
</svg>
