<?xml version="1.0" standalone="no"?>
<!DOCTYPE svg PUBLIC "-//W3C//DTD SVG 20010904//EN"
 "http://www.w3.org/TR/2001/REC-SVG-20010904/DTD/svg10.dtd">
<svg version="1.0" xmlns="http://www.w3.org/2000/svg"
 width="732.000000pt" height="366.000000pt" viewBox="0 0 732.000000 366.000000"
 preserveAspectRatio="xMidYMid meet">

<g transform="translate(0.000000,366.000000) scale(0.100000,-0.100000)"
fill="#000000" stroke="none">
<path d="M3828 3484 c-45 -41 -69 -42 -143 -10 -64 29 -70 18 -18 -30 33 -30
35 -34 15 -34 -21 0 -30 -14 -14 -23 4 -3 31 -1 61 4 38 6 63 17 83 36 29 27
63 81 56 88 -2 2 -20 -12 -40 -31z"/>
<path d="M3173 3315 c15 -14 35 -25 43 -25 17 0 19 -17 2 -23 -10 -4 -10 -7
-1 -18 10 -10 16 -9 31 4 10 9 27 17 38 17 11 0 29 6 39 14 17 12 14 14 -36
21 -29 4 -63 14 -74 21 -11 8 -31 14 -45 14 l-25 -1 28 -24z"/>
<path d="M3670 3180 c0 -12 47 -48 73 -56 20 -6 20 -7 1 -21 -16 -12 -17 -15
-4 -23 9 -6 20 -4 30 5 8 7 32 16 52 20 21 4 42 13 49 21 9 11 5 14 -22 16
-74 3 -89 5 -103 17 -19 16 -76 32 -76 21z"/>
<path d="M3300 2940 c-8 -6 -37 -8 -65 -4 l-50 6 28 -26 c34 -31 47 -32 70 -6
9 11 26 20 36 20 11 0 23 5 26 10 8 13 -26 13 -45 0z"/>
<path d="M3130 2752 l0 -80 -42 -4 c-66 -7 -70 -3 -64 61 5 50 5 53 -6 26 -15
-40 -28 -47 -55 -30 -12 8 -25 15 -28 15 -3 0 -5 -25 -5 -55 0 -50 -2 -56 -25
-65 -14 -5 -38 -7 -55 -4 -16 4 -41 3 -55 0 -20 -5 -25 -13 -25 -36 0 -20 -8
-35 -24 -45 -18 -12 -25 -28 -30 -68 -7 -65 -24 -117 -38 -117 -7 0 -9 16 -5
41 6 48 -14 50 -24 2 -3 -16 -14 -39 -25 -49 -10 -11 -28 -32 -38 -46 -11 -15
-24 -24 -29 -21 -6 3 -7 1 -4 -4 4 -6 -4 -32 -18 -57 -14 -26 -25 -58 -25 -71
0 -13 -6 -26 -12 -29 -7 -3 56 -4 140 -2 150 4 153 4 161 -17 8 -21 5 -22 -48
-28 -31 -4 -95 -7 -142 -8 -95 -1 -248 -19 -264 -31 -5 -4 -37 -15 -70 -25
-33 -9 -78 -23 -100 -31 -35 -13 -36 -14 -8 -9 17 2 102 10 188 16 164 13 460
0 525 -22 16 -6 65 -17 107 -24 l78 -13 -67 -1 -67 -1 -6 -33 c-7 -35 8 -87
25 -87 5 0 10 -9 10 -20 0 -11 5 -20 10 -20 6 0 10 -7 10 -15 0 -23 44 -29 79
-10 24 12 40 14 65 7 18 -6 38 -7 43 -3 14 9 35 66 33 87 -4 39 1 54 18 54 14
0 15 2 2 10 -10 7 4 8 45 5 91 -9 125 -15 125 -23 0 -5 19 -9 43 -10 23 -1 54
-5 70 -8 l27 -6 0 -151 c0 -102 -4 -147 -10 -137 -7 12 -10 8 -10 -15 0 -23 3
-27 10 -15 7 11 10 7 10 -19 0 -24 7 -39 26 -53 23 -19 25 -26 22 -72 -3 -28
-8 -58 -12 -67 -6 -13 1 -17 36 -22 24 -3 57 -2 73 3 116 34 138 33 157 -10
11 -25 16 -28 43 -23 16 3 35 10 42 15 20 16 53 -9 53 -40 0 -38 46 -62 116
-62 47 0 54 3 54 19 0 11 5 23 10 26 18 11 60 -24 60 -49 0 -30 29 -56 63 -56
14 0 33 -10 44 -23 10 -12 30 -30 44 -39 15 -10 29 -30 33 -48 5 -28 9 -31 28
-25 33 10 60 8 68 -5 12 -19 15 10 10 84 -5 67 -6 69 -23 52 -13 -14 -26 -17
-52 -12 -19 4 -35 12 -35 18 0 12 -50 58 -63 58 -5 0 -6 30 -3 68 15 175 18
262 7 262 -13 0 -15 47 -2 55 12 7 41 64 41 80 0 24 31 38 103 46 39 4 81 10
92 13 11 2 23 5 28 5 4 1 7 13 7 27 0 14 -4 23 -10 19 -6 -4 -10 6 -10 24 0
29 4 31 58 46 68 19 144 46 140 50 -2 1 -42 -4 -91 -12 -110 -19 -157 -12
-157 22 0 21 5 25 33 25 25 0 29 3 17 10 -11 8 -8 9 11 5 32 -8 143 11 147 25
2 6 8 8 13 4 5 -3 9 0 9 6 0 8 10 9 30 5 21 -5 32 -2 35 7 3 8 21 14 39 15 31
1 115 36 126 53 3 4 14 10 25 12 11 2 19 10 17 17 -2 9 3 11 13 8 8 -4 15 -2
15 3 0 9 -14 12 -37 9 -5 -1 -7 -5 -5 -10 1 -5 -1 -8 -5 -7 -5 1 -18 -3 -29
-10 -12 -6 -24 -8 -28 -5 -3 3 -6 1 -6 -6 0 -8 -8 -11 -20 -8 -11 3 -18 1 -14
-4 3 -5 -6 -9 -20 -9 -14 0 -26 -4 -26 -9 0 -6 -20 -13 -45 -17 -26 -3 -52
-13 -60 -20 -9 -9 -26 -12 -53 -8 -28 4 -44 1 -55 -10 -9 -9 -31 -16 -49 -16
-18 0 -51 -2 -73 -5 -32 -5 -44 -2 -62 14 -12 12 -28 21 -35 21 -8 0 -6 5 5
11 16 10 24 39 10 39 -4 0 -21 -5 -39 -12 -27 -10 -36 -8 -68 12 -31 19 -44
21 -79 15 -65 -12 -136 -8 -162 9 -14 9 -41 16 -60 16 -20 0 -44 4 -54 10 -14
7 -25 4 -45 -15 -37 -34 -35 -65 4 -65 30 0 41 -14 17 -23 -7 -2 -37 -1 -67 4
-30 5 -109 11 -175 14 -118 5 -119 5 -65 -9 30 -8 90 -22 132 -31 43 -9 76
-21 73 -25 -3 -5 16 -12 42 -16 27 -4 42 -9 36 -11 -7 -3 -140 21 -295 51
-156 31 -339 65 -408 75 l-125 19 177 0 c97 0 196 3 220 6 24 4 126 11 227 16
177 9 234 21 199 41 -25 14 -218 23 -218 10 0 -6 -11 -11 -25 -11 -48 0 -27
29 64 89 35 24 94 54 131 66 37 13 78 29 91 36 13 8 31 14 39 15 8 1 25 2 38
3 32 2 27 17 -10 31 -64 24 -79 33 -66 41 18 12 7 19 -89 56 -172 65 -247 74
-353 42 -41 -13 -77 -26 -80 -30 -3 -4 -16 -7 -30 -7 -14 1 -39 -3 -56 -7 -31
-7 -31 -7 -47 52 -8 32 -18 72 -22 90 -3 17 -25 53 -48 79 -23 26 -55 72 -72
102 -44 82 -55 79 -55 -16z m106 -127 c3 -25 4 -49 0 -52 -9 -10 -13 -2 -19
50 -8 60 9 62 19 2z m-116 -124 c0 -77 -4 -142 -9 -145 -5 -4 -16 -3 -25 0
-12 5 -16 27 -18 107 -3 95 -5 103 -25 112 -22 9 -31 43 -16 58 3 4 26 7 50 7
l43 0 0 -139z m-222 17 c-3 -64 -5 -73 -23 -76 -42 -5 -49 10 -35 82 11 60 15
66 37 66 23 0 24 -2 21 -72z m409 -30 c-3 -8 -6 -5 -6 6 -1 11 2 17 5 13 3 -3
4 -12 1 -19z m-58 -73 c1 -17 -1 -17 -9 -5 -5 8 -9 26 -9 40 0 23 1 23 9 5 5
-11 9 -29 9 -40z m74 35 c3 -11 1 -20 -4 -20 -5 0 -9 9 -9 20 0 11 2 20 4 20
2 0 6 -9 9 -20z m-314 -12 c-1 -7 -5 -24 -9 -38 -7 -22 -8 -21 -9 13 -1 20 4
37 9 37 6 0 10 -6 9 -12z m-159 -55 c0 -16 -5 -35 -10 -43 -7 -11 -10 -4 -10
28 0 23 5 42 10 42 6 0 10 -12 10 -27z m826 -50 c-10 -10 -19 5 -10 18 6 11 8
11 12 0 2 -7 1 -15 -2 -18z m-406 -19 c0 -8 -4 -12 -10 -9 -5 3 -10 13 -10 21
0 8 5 12 10 9 6 -3 10 -13 10 -21z m-270 -16 c0 -25 -3 -29 -10 -18 -13 20
-13 50 0 50 6 0 10 -15 10 -32z m-318 -10 c-9 -9 -12 -7 -12 12 0 19 3 21 12
12 9 -9 9 -15 0 -24z m678 1 c0 -11 -4 -17 -10 -14 -5 3 -10 15 -10 26 0 11 5
17 10 14 6 -3 10 -15 10 -26z m158 11 c23 -10 42 -21 42 -23 0 -4 -113 32
-119 39 -12 12 40 1 77 -16z m390 8 c-2 -6 -10 -14 -16 -16 -7 -2 -10 2 -6 12
7 18 28 22 22 4z m-293 -22 c9 -14 15 -37 13 -53 -4 -27 -5 -26 -26 20 -25 56
-25 57 -12 57 5 0 17 -11 25 -24z m99 -28 c-8 -25 -24 -54 -35 -64 -18 -16
-19 -16 -19 5 0 12 5 32 11 44 13 25 51 68 56 64 1 -2 -4 -24 -13 -49z m146
37 c-7 -9 -15 -13 -17 -11 -7 7 7 26 19 26 6 0 6 -6 -2 -15z m-377 -17 c48
-14 127 -106 127 -149 0 -29 -1 -29 -58 -29 l-58 0 -23 80 c-13 44 -29 80 -35
80 -6 0 -22 10 -36 21 l-25 20 35 -6 c19 -4 52 -12 73 -17z m180 -3 c-3 -9 -8
-14 -10 -11 -3 3 -2 9 2 15 9 16 15 13 8 -4z m-972 -25 c-35 -5 -44 -14 -61
-62 -7 -22 -16 -28 -37 -28 -27 0 -28 1 -25 50 l4 49 66 3 c74 3 106 -4 53
-12z m1093 -8 c-56 -40 -64 -44 -64 -33 0 13 69 60 89 60 8 1 -4 -12 -25 -27z
m-494 -26 c0 -18 3 -17 28 7 15 15 39 27 52 27 22 0 22 -1 7 -18 -10 -10 -17
-24 -17 -31 0 -7 -14 -17 -31 -23 -18 -6 -27 -14 -22 -19 5 -5 8 -23 5 -39 -4
-27 -8 -30 -38 -30 -19 0 -34 3 -34 8 0 10 31 55 44 64 6 4 6 16 -2 33 -15 33
-17 78 -2 55 5 -8 10 -24 10 -34z m-220 6 c0 -5 -26 -16 -58 -25 -42 -12 -62
-23 -72 -41 -15 -29 -74 -46 -92 -28 -14 14 35 89 60 94 37 8 162 8 162 0z
m140 -61 c0 -5 -23 -14 -50 -20 -28 -6 -67 -18 -87 -26 -48 -20 -56 -9 -16 24
25 21 44 27 92 29 35 2 61 -1 61 -7z m717 -197 c-3 -3 -12 -4 -19 -1 -8 3 -5
6 6 6 11 1 17 -2 13 -5z m76 -71 c-7 -2 -21 -2 -30 0 -10 3 -4 5 12 5 17 0 24
-2 18 -5z m54 -9 c-3 -3 -12 -4 -19 -1 -8 3 -5 6 6 6 11 1 17 -2 13 -5z m56
-11 c-7 -2 -19 -2 -25 0 -7 3 -2 5 12 5 14 0 19 -2 13 -5z"/>
<path d="M5146 2155 c-11 -8 -15 -15 -9 -15 6 0 16 7 23 15 16 19 11 19 -14 0z"/>
<path d="M5071 2116 c-19 -10 -20 -14 -8 -19 9 -3 21 1 28 9 17 20 8 25 -20
10z"/>
<path d="M2618 2083 c12 -2 32 -2 45 0 12 2 2 4 -23 4 -25 0 -35 -2 -22 -4z"/>
<path d="M3578 2003 c7 -3 16 -2 19 1 4 3 -2 6 -13 5 -11 0 -14 -3 -6 -6z"/>
<path d="M3512 1750 c0 -14 2 -19 5 -12 2 6 2 18 0 25 -3 6 -5 1 -5 -13z"/>
<path d="M1783 524 c-10 -4 -13 -60 -13 -230 l0 -224 25 -6 c14 -3 36 -3 50 0
l25 6 0 225 c0 124 -1 225 -2 225 -40 6 -76 8 -85 4z"/>
<path d="M2223 523 c-13 -2 -23 -9 -23 -14 0 -6 -4 -8 -9 -5 -11 7 -81 -56
-81 -72 0 -7 -4 -12 -10 -12 -5 0 -10 -9 -10 -20 0 -11 -4 -20 -10 -20 -6 0
-10 -35 -10 -85 0 -50 4 -85 10 -85 6 0 10 -9 10 -19 0 -35 83 -108 141 -125
29 -9 61 -16 70 -16 33 0 124 39 159 69 30 25 33 31 21 45 -7 9 -22 16 -32 16
-10 0 -20 4 -24 9 -3 6 -19 2 -38 -9 -72 -42 -159 -30 -201 27 -27 36 -32 111
-12 152 40 77 160 96 220 35 17 -17 20 -16 61 6 41 22 42 25 29 46 -8 12 -41
36 -73 53 -58 31 -116 38 -188 24z"/>
<path d="M4273 522 l-103 -3 0 -230 0 -230 43 3 42 3 1 80 c0 45 4 86 8 93 5
8 36 12 92 12 l84 0 0 40 0 40 -77 0 c-43 0 -84 4 -91 9 -9 5 -12 24 -10 52
l3 44 113 3 112 3 0 39 0 40 -44 0 c-24 0 -50 1 -58 3 -7 1 -59 1 -115 -1z"/>
<path d="M5415 524 c-72 -18 -103 -41 -150 -112 -24 -37 -28 -51 -28 -121 0
-64 5 -86 22 -114 66 -107 193 -149 301 -100 56 25 90 55 90 78 0 10 -3 16 -6
12 -3 -3 -14 2 -24 11 -22 18 -50 25 -50 11 0 -5 -6 -9 -14 -9 -8 0 -16 -6
-18 -12 -6 -17 -119 -17 -138 -1 -70 58 -70 58 -70 120 0 46 5 67 21 87 54 69
156 78 214 20 15 -15 19 -15 51 2 54 30 40 69 -40 111 -30 16 -126 26 -161 17z"/>
<path d="M7008 503 c-31 -17 -48 -33 -48 -45 0 -11 -4 -16 -10 -13 -6 4 -10
-17 -10 -54 0 -34 4 -61 10 -61 6 0 10 -6 10 -13 0 -18 55 -44 135 -63 73 -17
115 -37 115 -55 0 -27 -35 -44 -91 -44 -47 1 -62 5 -77 23 -20 23 -47 29 -57
12 -3 -5 -15 -10 -26 -10 -15 0 -19 -7 -19 -31 0 -17 4 -28 10 -24 6 3 10 0
10 -7 0 -17 53 -45 105 -56 35 -7 66 -5 141 13 27 6 57 34 72 68 14 34 16 117
2 117 -5 0 -10 6 -10 14 0 15 -91 56 -126 56 -12 0 -26 5 -29 10 -3 6 -17 10
-31 10 -44 0 -69 41 -42 68 18 18 109 15 136 -4 16 -11 34 -14 58 -10 28 6 34
11 34 31 0 14 -4 25 -10 25 -5 0 -10 7 -10 16 0 8 -4 12 -10 9 -5 -3 -10 -2
-10 3 0 17 -78 42 -128 42 -32 0 -62 -9 -94 -27z"/>
<path d="M203 505 c-7 -8 -13 -26 -13 -40 0 -15 -4 -24 -10 -20 -6 3 -10 -5
-10 -19 0 -14 -11 -46 -25 -72 -14 -26 -25 -58 -25 -71 0 -14 -4 -21 -10 -18
-6 4 -10 -7 -10 -24 0 -17 -4 -31 -10 -31 -5 0 -10 -11 -10 -23 0 -26 -25 -83
-41 -92 -5 -4 -9 -13 -9 -21 0 -21 90 -15 100 6 36 77 33 75 117 78 89 3 123
-9 123 -45 0 -13 5 -23 10 -23 6 0 10 -7 10 -15 0 -11 12 -15 45 -15 40 0 45
2 45 23 0 12 -7 31 -15 41 -8 11 -15 28 -15 38 0 10 -4 18 -10 18 -5 0 -10 14
-10 30 0 17 -4 30 -10 30 -5 0 -10 11 -10 24 0 14 -4 28 -10 31 -5 3 -10 16
-10 28 0 12 -7 31 -15 41 -8 11 -15 28 -15 38 0 10 -4 18 -10 18 -5 0 -10 11
-10 24 0 14 -4 28 -10 31 -5 3 -10 15 -10 26 0 16 -7 19 -52 19 -33 -1 -58 -6
-65 -15z m73 -160 c3 -14 10 -25 15 -25 5 0 9 -11 9 -24 0 -14 5 -28 10 -31
21 -13 -3 -25 -51 -25 -58 0 -61 10 -29 84 22 51 37 58 46 21z"/>
<path d="M692 293 l3 -228 42 -3 42 -3 3 93 3 93 88 3 87 3 0 39 0 40 -77 0
c-43 0 -84 4 -91 9 -9 5 -12 24 -10 52 l3 44 113 3 112 3 0 39 0 40 -160 0
-160 0 2 -227z"/>
<path d="M1200 295 l0 -225 24 -6 c13 -3 35 -4 47 -2 23 3 24 8 27 81 l3 77
29 0 c23 0 35 -9 60 -44 16 -25 30 -48 30 -53 0 -4 11 -21 25 -36 23 -24 33
-27 83 -26 31 0 51 3 45 6 -7 2 -13 9 -13 14 0 10 -50 90 -62 99 -3 3 -9 16
-13 30 -5 21 -1 28 23 42 43 25 66 80 59 139 -7 60 -21 82 -68 108 -32 18 -54
21 -168 21 l-131 0 0 -225z m254 130 c26 -20 26 -84 -1 -99 -21 -13 -110 -24
-135 -18 -15 4 -18 16 -18 68 l0 64 68 0 c43 -1 74 -6 86 -15z"/>
<path d="M2832 500 c-6 -11 -12 -27 -12 -35 0 -8 -4 -23 -9 -33 -24 -44 -41
-87 -41 -104 0 -10 -4 -18 -10 -18 -5 0 -10 -11 -10 -25 0 -14 -4 -25 -10 -25
-5 0 -10 -13 -10 -30 0 -16 -4 -30 -10 -30 -5 0 -10 -8 -10 -18 0 -10 -7 -27
-15 -38 -8 -10 -15 -34 -15 -51 0 -32 2 -33 39 -33 36 0 40 3 62 48 l24 47 80
3 c79 3 125 -9 125 -33 0 -6 6 -23 13 -38 11 -24 18 -27 62 -27 38 0 46 3 37
12 -7 7 -12 20 -12 30 0 10 -4 26 -9 36 -5 9 -35 85 -66 167 -88 233 -76 215
-137 215 -42 0 -56 -4 -66 -20z m82 -155 c9 -13 16 -31 16 -39 0 -8 7 -22 16
-30 24 -25 8 -36 -52 -36 -57 0 -65 9 -45 48 5 9 15 32 21 50 15 38 23 40 44
7z"/>
<path d="M3320 296 c0 -245 -2 -236 61 -236 l29 0 0 126 c0 71 5 134 11 146
10 19 11 19 40 -9 15 -15 29 -34 29 -40 0 -7 5 -13 10 -13 6 0 10 -9 10 -20 0
-11 5 -20 10 -20 6 0 10 -9 10 -20 0 -11 4 -20 9 -20 5 0 12 -8 15 -17 13 -33
31 -63 38 -63 5 0 8 -9 8 -19 0 -24 19 -31 81 -31 l49 0 0 230 0 230 -40 0
-40 0 -2 -57 c-1 -32 -2 -93 -3 -135 -1 -43 -4 -81 -8 -84 -9 -9 -34 13 -50
45 -18 35 -41 75 -47 81 -8 8 -27 41 -57 98 l-27 52 -68 0 -68 0 0 -224z"/>
<path d="M4773 501 c-7 -12 -13 -30 -13 -41 0 -11 -4 -20 -10 -20 -5 0 -10
-14 -10 -31 0 -17 -4 -28 -10 -24 -5 3 -10 -3 -10 -15 0 -20 -2 -26 -33 -88
-9 -19 -17 -45 -17 -58 0 -14 -4 -22 -10 -19 -6 4 -10 -7 -10 -24 0 -17 -4
-31 -10 -31 -5 0 -10 -11 -10 -24 0 -14 -4 -28 -10 -31 -23 -15 -9 -35 24 -35
44 0 66 9 66 25 0 7 8 27 18 44 17 31 17 31 105 31 94 0 117 -10 117 -49 0
-12 5 -21 10 -21 6 0 10 -7 10 -15 0 -11 12 -15 45 -15 51 0 54 8 29 67 -23
53 -35 82 -73 183 -11 30 -26 69 -32 85 -7 17 -20 50 -29 75 l-16 45 -55 3
c-45 2 -56 -1 -66 -17z m86 -165 c12 -18 21 -40 21 -49 0 -8 6 -18 13 -20 24
-10 -17 -27 -65 -27 -38 0 -48 3 -48 17 0 21 41 113 51 113 4 0 17 -15 28 -34z"/>
<path d="M5860 295 l0 -224 33 -6 c17 -3 88 -5 157 -3 l125 3 3 38 3 37 -103
0 c-114 0 -128 6 -128 55 0 49 9 54 100 57 l85 3 3 38 3 37 -83 0 c-92 0 -108
8 -108 51 0 58 3 59 121 59 l109 0 0 40 0 40 -160 0 -160 0 0 -225z"/>
<path d="M6390 480 l0 -39 58 -3 57 -3 3 -182 2 -183 24 -6 c61 -15 61 -15 62
176 1 96 2 181 3 188 1 8 20 12 61 12 l60 0 0 40 0 40 -165 0 -165 0 0 -40z"/>
</g>
</svg>
